<svg width="980" height="551" xmlns="http://www.w3.org/2000/svg" xmlns:xlink="http://www.w3.org/1999/xlink">
<path fill="#ff595e" d="M 344.41 186.46 Q 344.41 186.46 338.07 182.19 331.72 177.91 327.55 174.06 323.37 170.21 317.78 165.81 312.18 161.40 308.38 158.83 304.58 156.25 301.11 154.36 297.64 152.46 294.93 151.27 292.23 150.07 288.72 149.39 285.21 148.71 282.62 148.44 280.03 148.18 277.75 148.23 275.47 148.27 272.22 148.42 268.97 148.56 266.43 148.72 263.88 148.88 257.54 148.67 251.20 148.47 246.88 148.44 242.56 148.41 239.36 148.58 236.16 148.75 233.88 149.10 231.59 149.46 231.30 151.53 231.01 153.60 228.20 156.34 225.40 159.09 225.40 159.09 225.39 159.09 225.39 159.09 225.38 159.08 223.91 157.07 222.43 155.06 223.29 152.04 224.15 149.02 224.87 147.15 225.59 145.28 227.71 143.47 229.83 141.65 232.79 141.21 235.75 140.76 239.18 140.58 242.62 140.41 247.04 140.44 251.47 140.47 257.43 140.68 263.39 140.89 265.97 140.73 268.56 140.57 271.96 140.42 275.36 140.27 278.11 140.25 280.87 140.22 283.85 140.55 286.83 140.88 291.13 141.81 295.43 142.75 298.46 144.10 301.50 145.45 305.28 147.54 309.07 149.63 313.10 152.38 317.14 155.12 322.97 159.73 328.80 164.34 333.28 168.50 337.77 172.67 341.09 179.56 344.42 186.45 344.41 186.45 Z"></path><path fill="#ff595e" d="M 488.60 362.62 Q 488.60 362.62 491.37 359.93 494.15 357.23 497.46 356.60 500.77 355.96 506.21 355.17 511.65 354.38 516.54 353.90 521.44 353.42 527.70 353.03 533.97 352.63 539.31 352.46 544.66 352.29 551.92 352.36 559.19 352.42 564.41 352.45 569.64 352.48 576.03 352.49 582.41 352.51 586.89 352.51 591.37 352.52 597.88 352.19 604.39 351.86 609.46 351.52 614.53 351.19 622.02 350.76 629.51 350.34 634.38 350.16 639.25 349.98 645.10 349.90 650.95 349.82 654.99 349.95 659.02 350.09 662.59 350.38 666.17 350.66 669.11 351.01 672.04 351.36 675.15 352.31 678.26 353.26 680.32 354.02 682.38 354.79 686.28 355.91 690.17 357.03 693.13 357.89 696.09 358.75 698.32 359.46 700.54 360.18 702.88 361.49 705.21 362.80 707.01 367.00 708.80 371.20 709.28 373.32 709.77 375.45 710.22 378.87 710.67 382.29 710.27 384.86 709.87 387.43 708.11 389.55 706.36 391.67 702.72 394.61 699.08 397.55 694.94 400.49 690.80 403.43 685.71 406.31 680.62 409.20 677.75 410.71 674.89 412.21 672.81 413.06 670.72 413.91 668.13 414.50 665.54 415.09 663.36 415.11 661.17 415.13 654.75 415.07 648.33 415.00 641.64 415.06 634.94 415.12 627.71 415.21 620.48 415.30 615.12 415.40 609.77 415.50 603.94 415.55 598.12 415.59 594.08 415.61 590.04 415.63 585.14 415.53 580.23 415.42 576.86 415.33 573.48 415.23 569.01 415.08 564.54 414.93 561.58 414.82 558.63 414.71 555.21 414.46 551.79 414.22 549.07 413.91 546.35 413.60 542.26 413.26 538.16 412.91 535.62 412.68 533.07 412.44 531.07 412.30 529.07 412.16 525.93 411.80 522.80 411.44 520.44 411.15 518.07 410.85 515.12 410.35 512.16 409.85 509.24 409.30 506.31 408.75 503.20 407.77 500.08 406.78 497.23 405.95 494.38 405.12 491.97 403.96 489.55 402.81 488.20 400.33 486.84 397.85 485.91 395.32 484.97 392.79 484.20 390.66 483.42 388.54 483.28 385.73 483.13 382.93 483.15 380.84 483.17 378.76 483.07 376.74 482.97 374.72 483.92 372.35 484.87 369.98 486.37 368.65 487.87 367.32 490.03 365.68 492.19 364.05 494.34 362.78 496.49 361.50 499.31 362.22 502.13 362.93 502.13 362.94 502.13 362.94 502.14 362.95 502.14 362.95 500.87 365.93 499.60 368.91 497.32 370.38 495.04 371.85 492.99 373.10 490.93 374.35 491.05 376.58 491.17 378.81 491.15 380.97 491.13 383.13 491.46 385.69 491.78 388.26 492.57 390.24 493.35 392.22 495.03 394.84 496.71 397.46 499.80 398.38 502.90 399.30 505.39 400.10 507.89 400.91 510.70 401.44 513.50 401.96 516.28 402.44 519.06 402.91 521.39 403.20 523.71 403.49 526.67 403.84 529.63 404.18 531.72 404.33 533.81 404.48 536.32 404.71 538.83 404.94 543.05 405.30 547.27 405.65 549.81 405.95 552.36 406.24 555.64 406.48 558.93 406.71 561.87 406.82 564.80 406.93 569.26 407.08 573.71 407.23 577.06 407.33 580.40 407.42 585.20 407.53 590.01 407.63 594.03 407.61 598.06 407.59 603.83 407.55 609.61 407.51 615.00 407.40 620.38 407.30 627.63 407.21 634.87 407.12 641.64 407.06 648.41 407.00 654.79 407.07 661.16 407.13 663.58 407.09 666.01 407.04 668.59 406.08 671.17 405.13 673.93 403.68 676.68 402.23 681.43 399.57 686.18 396.90 690.13 394.10 694.08 391.31 698.39 387.15 702.70 382.99 702.33 380.10 701.96 377.22 701.52 375.27 701.08 373.31 699.58 370.55 698.08 367.79 695.97 367.11 693.86 366.43 690.91 365.57 687.95 364.71 683.77 363.50 679.60 362.29 677.62 361.55 675.64 360.82 673.26 360.05 670.88 359.28 668.20 358.96 665.52 358.64 662.14 358.36 658.75 358.08 654.90 357.95 651.06 357.82 645.31 357.90 639.55 357.97 634.76 358.15 629.96 358.33 622.51 358.75 615.06 359.17 609.92 359.51 604.79 359.85 598.07 360.18 591.36 360.52 586.88 360.51 582.40 360.51 576.00 360.49 569.60 360.48 564.35 360.45 559.11 360.42 552.01 360.36 544.91 360.29 539.69 360.45 534.47 360.62 528.34 361.00 522.21 361.38 517.50 361.84 512.80 362.29 507.54 363.06 502.28 363.82 499.12 364.42 495.96 365.03 492.28 363.83 488.60 362.64 488.60 362.63 Z"></path><path fill="#ff595e" d="M 311.65 155.14 Q 311.65 155.14 311.26 158.58 310.87 162.03 308.18 165.19 305.50 168.35 303.44 170.83 301.37 173.32 299.43 176.04 297.49 178.75 296.29 180.66 295.09 182.58 294.17 184.44 293.26 186.30 292.48 189.50 291.70 192.70 291.64 197.16 291.59 201.62 291.65 203.81 291.72 206.01 291.89 209.08 292.05 212.15 292.26 214.30 292.46 216.45 293.00 218.89 293.54 221.32 295.51 225.65 297.48 229.97 299.21 232.28 300.95 234.58 304.30 237.87 307.64 241.17 310.65 243.81 313.66 246.45 317.08 249.25 320.50 252.04 323.12 254.18 325.74 256.31 329.01 258.46 332.27 260.62 334.73 261.95 337.20 263.28 340.81 264.75 344.43 266.23 347.85 267.06 351.26 267.88 354.18 268.41 357.09 268.94 362.06 269.06 367.03 269.19 371.05 269.14 375.06 269.08 380.08 268.38 385.10 267.67 388.09 267.03 391.09 266.38 393.90 264.77 396.72 263.16 398.84 261.66 400.97 260.16 404.12 256.97 407.28 253.77 409.50 251.40 411.71 249.04 414.34 245.93 416.96 242.83 418.61 240.44 420.26 238.06 421.59 234.87 422.91 231.68 423.83 228.71 424.75 225.75 425.43 219.58 426.11 213.42 426.43 207.99 426.74 202.56 426.20 197.05 425.65 191.54 424.77 188.09 423.90 184.63 421.69 181.40 419.48 178.16 416.71 175.08 413.94 172.00 408.05 167.66 402.16 163.33 396.64 159.64 391.13 155.94 379.08 150.33 367.03 144.71 357.54 141.09 348.05 137.47 333.89 134.74 319.73 132.01 311.38 130.83 303.04 129.65 297.67 129.76 292.30 129.87 289.69 130.16 287.09 130.46 284.87 129.00 282.66 127.53 282.66 127.53 282.66 127.52 282.66 127.52 282.65 127.51 284.41 125.04 286.18 122.56 289.17 122.21 292.17 121.87 298.16 121.80 304.14 121.73 312.70 122.94 321.26 124.16 336.07 127.08 350.88 129.99 360.65 133.73 370.42 137.47 382.99 143.38 395.57 149.29 401.25 153.10 406.93 156.91 413.41 161.79 419.90 166.66 423.05 170.23 426.19 173.81 428.90 178.19 431.60 182.57 432.61 186.67 433.62 190.78 434.17 196.89 434.72 203.01 434.39 208.67 434.06 214.34 433.22 221.23 432.39 228.11 431.33 231.47 430.26 234.84 428.55 238.71 426.84 242.59 424.96 245.29 423.07 247.99 420.31 251.25 417.55 254.51 415.24 256.97 412.94 259.43 409.25 263.07 405.57 266.71 403.05 268.45 400.53 270.20 396.69 272.18 392.85 274.17 389.52 274.89 386.19 275.60 380.68 276.34 375.17 277.08 370.98 277.13 366.80 277.19 361.23 277.00 355.67 276.81 352.50 276.23 349.33 275.65 345.36 274.64 341.40 273.63 337.39 271.97 333.38 270.31 330.62 268.80 327.85 267.29 324.27 264.90 320.69 262.51 318.07 260.38 315.44 258.24 311.91 255.35 308.38 252.46 305.19 249.65 302.00 246.84 298.27 243.10 294.54 239.36 292.47 236.54 290.41 233.72 288.69 230.40 286.98 227.09 286.35 225.05 285.72 223.01 285.10 220.10 284.49 217.20 284.28 214.89 284.07 212.59 283.89 209.41 283.72 206.24 283.66 203.98 283.59 201.73 283.56 198.81 283.52 195.89 283.67 193.58 283.83 191.27 284.96 187.01 286.09 182.76 287.20 180.54 288.32 178.31 289.65 176.20 290.99 174.09 293.10 171.15 295.22 168.21 297.31 165.69 299.40 163.17 302.14 159.94 304.88 156.72 308.26 155.92 311.63 155.13 311.64 155.13 Z"></path><path fill="#ff595e" d="M 281.82 220.48 Q 281.82 220.48 277.96 221.61 274.10 222.73 270.78 222.30 267.46 221.87 260.69 221.47 253.92 221.07 247.70 220.74 241.47 220.41 232.47 220.13 223.47 219.86 217.00 219.74 210.53 219.63 200.75 219.66 190.96 219.70 183.27 219.95 175.57 220.20 168.70 220.60 161.84 221.01 157.87 221.27 153.90 221.54 151.14 221.68 148.39 221.82 146.48 220.01 144.56 218.19 144.56 218.19 144.56 218.18 144.56 218.18 144.56 218.17 146.21 216.10 147.86 214.02 150.61 213.79 153.36 213.56 157.37 213.29 161.37 213.02 168.34 212.61 175.31 212.21 183.12 211.95 190.93 211.70 200.80 211.66 210.68 211.63 217.20 211.75 223.71 211.86 232.81 212.14 241.90 212.42 248.15 212.75 254.40 213.08 261.46 213.51 268.52 213.94 272.24 214.45 275.96 214.95 278.89 217.71 281.83 220.46 281.82 220.47 Z"></path>
</svg>