<svg width="980" height="551" xmlns="http://www.w3.org/2000/svg" xmlns:xlink="http://www.w3.org/1999/xlink">
<path fill="#ff595e" d="M 302.07 100.39 Q 302.07 100.39 301.37 96.77 300.66 93.16 302.77 90.63 304.87 88.11 308.05 86.26 311.23 84.40 314.53 84.08 317.83 83.76 321.64 83.71 325.45 83.67 327.69 83.67 329.93 83.66 331.94 83.66 333.96 83.66 336.00 83.65 338.03 83.65 341.44 83.65 344.85 83.65 347.39 83.65 349.93 83.65 352.98 84.41 356.04 85.16 358.92 86.44 361.81 87.72 364.59 89.04 367.38 90.35 369.55 91.64 371.72 92.92 373.34 94.61 374.96 96.30 376.19 99.03 377.42 101.77 377.96 104.07 378.49 106.38 378.60 108.54 378.71 110.70 377.68 113.30 376.65 115.91 374.79 118.14 372.93 120.37 370.98 122.31 369.03 124.26 366.80 125.96 364.56 127.66 362.63 128.38 360.70 129.10 358.12 129.61 355.53 130.11 352.67 130.26 349.82 130.41 347.40 130.46 344.99 130.51 341.86 130.44 338.73 130.38 336.59 129.84 334.45 129.30 331.51 128.31 328.57 127.32 326.08 126.56 323.60 125.81 321.36 125.18 319.13 124.56 317.04 123.91 314.94 123.26 312.97 122.22 310.99 121.17 309.17 118.88 307.34 116.58 306.49 113.77 305.65 110.95 305.77 107.38 305.90 103.80 305.90 103.80 305.90 103.79 305.91 103.79 305.91 103.79 308.37 103.56 310.83 103.34 311.95 105.04 313.08 106.74 313.44 108.90 313.80 111.05 315.01 113.07 316.23 115.09 318.67 115.95 321.12 116.82 323.48 117.47 325.84 118.13 328.48 118.93 331.12 119.74 333.85 120.66 336.58 121.59 339.47 122.05 342.35 122.52 344.70 122.50 347.05 122.48 349.24 122.38 351.43 122.28 353.85 122.15 356.26 122.03 358.24 121.48 360.23 120.94 361.88 119.69 363.53 118.45 365.28 116.71 367.02 114.98 368.44 113.33 369.86 111.67 370.22 109.62 370.58 107.57 369.90 105.10 369.22 102.64 367.59 100.65 365.96 98.67 363.61 97.50 361.26 96.33 358.56 95.07 355.87 93.82 352.88 92.74 349.90 91.65 347.38 91.65 344.85 91.65 341.44 91.65 338.04 91.65 336.00 91.65 333.97 91.66 331.96 91.66 329.95 91.66 327.73 91.67 325.50 91.67 321.86 91.71 318.22 91.75 315.34 91.93 312.46 92.11 310.23 94.18 308.01 96.25 305.05 98.32 302.09 100.40 302.08 100.39 Z"></path>
</svg>