<svg width="980" height="551" xmlns="http://www.w3.org/2000/svg" xmlns:xlink="http://www.w3.org/1999/xlink">
<path fill="#ff595e" d="M 184.28 323.01 Q 184.28 323.01 184.28 323.01 184.27 323.01 184.27 323.02 184.26 323.02 184.27 323.01 Z" data-drauu_index="0"></path><path fill="#ff595e" d="M 558.03 391.43 Q 558.03 391.43 558.03 391.44 558.02 391.44 558.02 391.44 558.02 391.45 558.02 391.44 Z" data-drauu_index="1"></path><path fill="#ff595e" d="M 477.22 327.14 Q 477.22 327.14 477.21 327.14 477.21 327.14 477.21 327.15 477.20 327.15 477.21 327.14 Z" data-drauu_index="2"></path><path fill="#ff595e" d="M 480.22 326.90 Q 480.22 326.90 480.22 326.91 480.21 326.91 480.21 326.91 480.21 326.92 480.21 326.91 Z" data-drauu_index="3"></path><path fill="#ff595e" d="M 480.22 326.90 Q 480.22 326.90 480.22 326.91 480.21 326.91 480.21 326.91 480.21 326.92 480.21 326.91 Z" data-drauu_index="4"></path><path fill="#ff595e" d="M 480.22 326.90 Q 480.22 326.90 480.22 326.91 480.21 326.91 480.21 326.91 480.21 326.92 480.21 326.91 Z" data-drauu_index="5"></path><path fill="#ff595e" d="M 494.40 343.48 Q 494.40 343.48 494.40 343.49 494.40 343.49 494.39 343.49 494.39 343.50 494.40 343.49 Z" data-drauu_index="6"></path><path fill="#ff595e" d="M 490.12 346.54 Q 490.12 346.54 490.12 346.54 490.12 346.55 490.11 346.55 490.11 346.55 490.12 346.55 Z" data-drauu_index="7"></path><path fill="#ff595e" d="M 491.13 344.89 Q 491.13 344.89 491.13 344.88 491.12 344.88 491.12 344.88 491.11 344.88 491.12 344.88 Z" data-drauu_index="8"></path><path fill="#ff595e" d="M 490.53 336.47 Q 490.53 336.47 490.52 336.47 490.52 336.47 490.51 336.47 490.51 336.47 490.52 336.47 Z" data-drauu_index="9"></path><path fill="#ff595e" d="M 489.62 337.28 Q 489.62 337.28 489.61 337.28 489.61 337.28 489.60 337.27 489.60 337.27 489.61 337.28 Z" data-drauu_index="10"></path><path fill="#ff595e" d="M 505.93 306.06 Q 505.93 306.06 505.93 306.07 505.93 306.07 505.92 306.07 505.92 306.08 505.93 306.07 Z" data-drauu_index="1"></path><path fill="#ff595e" d="M 464.64 298.18 Q 464.64 298.18 464.63 298.18 464.63 298.18 464.63 298.19 464.62 298.19 464.63 298.18 Z" data-drauu_index="2"></path>
</svg>