<svg width="980" height="551" xmlns="http://www.w3.org/2000/svg" xmlns:xlink="http://www.w3.org/1999/xlink">
<path fill="#ff595e" d="M 374.62 480.05 Q 374.62 480.05 374.62 480.05 374.62 480.06 374.62 480.06 374.62 480.07 374.62 480.06 Z" data-drauu_index="0"></path><path fill="#ff595e" d="M 382.17 471.29 Q 382.17 471.29 382.16 471.29 382.16 471.29 382.15 471.29 382.15 471.29 382.16 471.29 Z" data-drauu_index="1"></path><path fill="#ff595e" d="M 381.77 471.64 Q 381.77 471.64 381.50 472.08 381.22 472.52 381.22 472.51 381.21 472.51 381.21 472.51 381.20 472.51 381.48 472.07 381.76 471.63 381.76 471.64 Z" data-drauu_index="2"></path><path fill="#ff595e" d="M 410.12 342.92 Q 410.12 342.92 409.48 346.19 408.83 349.45 407.27 350.33 405.71 351.21 405.71 351.21 405.70 351.21 405.70 351.21 405.69 351.20 405.60 349.46 405.51 347.72 407.80 345.32 410.10 342.91 410.11 342.92 Z" data-drauu_index="3"></path><path fill="#ff595e" d="M 102.06 261.18 Q 102.06 261.18 105.96 262.41 109.87 263.65 111.61 265.91 113.35 268.18 113.35 268.18 113.34 268.19 113.34 268.19 113.34 268.20 110.56 267.63 107.77 267.06 104.91 264.13 102.05 261.19 102.05 261.19 Z" data-drauu_index="4"></path><path fill="#ff595e" d="M 707.25 280.59 Q 707.25 280.59 707.25 280.60 707.25 280.60 707.24 280.61 707.24 280.61 707.25 280.60 Z" data-drauu_index="5"></path>
</svg>