<svg width="980" height="551" xmlns="http://www.w3.org/2000/svg" xmlns:xlink="http://www.w3.org/1999/xlink">
<path fill="#ff595e" d="M 929.88 436.02 Q 929.88 436.02 929.87 436.03 929.87 436.03 929.86 436.03 929.86 436.04 929.87 436.03 Z" data-drauu_index="1"></path><path fill="#ff595e" d="M 929.88 436.02 Q 929.88 436.02 929.87 436.03 929.87 436.03 929.86 436.03 929.86 436.04 929.87 436.03 Z" data-drauu_index="2"></path><path fill="#ff595e" d="M 932.07 291.37 Q 932.07 291.37 932.06 291.38 932.06 291.38 932.06 291.38 932.05 291.39 932.06 291.38 Z" data-drauu_index="3"></path><path fill="#ff595e" d="M 944.15 397.54 Q 944.15 397.54 944.15 397.54 944.14 397.55 944.14 397.55 944.14 397.55 944.14 397.55 Z" data-drauu_index="4"></path><path fill="#ff595e" d="M 943.98 397.54 Q 943.98 397.54 943.97 397.54 943.97 397.55 943.97 397.55 943.96 397.55 943.97 397.55 Z" data-drauu_index="5"></path><path fill="#ff595e" d="M 943.39 396.50 Q 943.39 396.50 943.39 396.50 943.40 396.50 943.40 396.50 943.41 396.50 943.40 396.50 Z" data-drauu_index="6"></path><path fill="#ff595e" d="M 925.46 274.54 Q 925.46 274.54 925.46 274.54 925.46 274.53 925.46 274.53 925.46 274.52 925.46 274.53 Z" data-drauu_index="7"></path><path fill="#ff595e" d="M 634.78 306.19 Q 634.78 306.19 634.78 306.20 634.78 306.20 634.77 306.20 634.77 306.21 634.78 306.20 Z" data-drauu_index="8"></path><path fill="#ff595e" d="M 634.83 315.98 Q 634.83 315.98 635.48 317.65 636.12 319.33 636.12 319.33 636.12 319.33 636.11 319.34 636.11 319.34 635.46 317.66 634.82 315.99 634.82 315.98 Z" data-drauu_index="9"></path><path fill="#ff595e" d="M 675.80 444.35 Q 675.80 444.35 675.80 444.36 675.79 444.36 675.79 444.36 675.79 444.37 675.79 444.36 Z" data-drauu_index="10"></path>
</svg>