<svg width="980" height="551" xmlns="http://www.w3.org/2000/svg" xmlns:xlink="http://www.w3.org/1999/xlink">
<path fill="#ff595e" d="M 325.75 468.76 Q 325.75 468.76 326.07 471.40 326.39 474.04 325.68 476.10 324.98 478.17 323.67 479.50 322.36 480.83 322.35 480.83 322.35 480.82 322.34 480.82 322.34 480.82 321.82 478.90 321.31 476.98 321.92 474.99 322.53 473.00 324.13 470.88 325.73 468.75 325.74 468.76 Z" data-drauu_index="0"></path><path fill="#ff595e" d="M 302.51 483.29 Q 302.51 483.29 304.31 484.11 306.11 484.93 306.98 486.32 307.84 487.71 308.55 488.53 309.27 489.36 310.53 489.90 311.80 490.43 313.78 491.36 315.77 492.29 317.27 493.18 318.78 494.06 321.05 495.41 323.32 496.76 324.53 497.50 325.74 498.24 326.66 498.82 327.57 499.39 328.49 499.79 329.41 500.18 330.87 500.81 332.34 501.44 335.44 503.93 338.54 506.42 338.54 506.43 338.53 506.43 338.53 506.44 338.53 506.44 334.59 505.76 330.66 505.08 329.23 504.46 327.81 503.84 326.65 503.33 325.50 502.81 324.58 502.23 323.66 501.65 322.47 500.92 321.28 500.20 319.01 498.85 316.74 497.51 315.40 496.71 314.06 495.91 311.35 494.73 308.63 493.54 307.34 492.77 306.04 491.99 305.24 490.90 304.44 489.82 303.65 488.53 302.85 487.24 302.67 485.27 302.49 483.30 302.50 483.29 Z" data-drauu_index="1"></path><path fill="#ff595e" d="M 589.90 454.32 Q 589.90 454.32 589.90 454.32 589.89 454.32 589.89 454.33 589.89 454.33 589.89 454.32 Z" data-drauu_index="2"></path><path fill="#ff595e" d="M 624.62 433.44 Q 624.62 433.44 624.62 433.44 624.61 433.45 624.61 433.45 624.61 433.45 624.61 433.45 Z" data-drauu_index="3"></path><path fill="#ff595e" d="M 490.97 11.71 Q 490.97 11.71 490.96 11.72 490.96 11.72 490.96 11.72 490.95 11.73 490.96 11.72 Z" data-drauu_index="4"></path>
</svg>