<svg width="980" height="551" xmlns="http://www.w3.org/2000/svg" xmlns:xlink="http://www.w3.org/1999/xlink">
<path fill="#ff595e" d="M 411.15 292.72 Q 411.15 292.72 411.15 293.63 411.15 294.53 410.98 293.41 410.82 292.29 411.80 292.70 412.77 293.12 412.72 292.12 412.66 291.12 412.66 292.41 412.66 293.70 411.45 294.09 410.24 294.48 410.24 294.48 410.24 294.48 410.24 294.48 410.24 294.48 410.24 294.48 410.24 294.48 410.23 294.48 410.23 294.48 410.23 294.48 410.23 294.48 410.23 294.48 410.23 294.49 410.23 294.49 410.23 294.49 410.23 294.48 410.22 294.48 410.22 294.48 410.22 294.48 410.22 294.48 410.22 294.48 410.22 294.48 410.22 294.48 410.22 294.48 410.22 294.48 410.22 294.48 410.22 294.47 410.22 294.48 410.23 294.48 410.23 294.48 410.24 294.48 410.24 294.48 410.24 294.48 410.24 294.48 410.24 294.48 410.24 294.48 410.24 294.48 410.23 294.48 410.23 294.48 410.23 294.48 410.23 294.48 410.23 294.48 410.23 294.49 410.23 294.49 410.23 294.49 410.23 294.48 410.22 294.48 410.22 294.48 410.22 294.48 410.22 294.48 410.22 294.48 410.22 294.48 410.22 294.48 410.22 294.48 410.22 294.48 410.22 294.48 410.22 294.47 409.65 293.26 409.08 292.05 409.28 290.78 409.48 289.51 411.50 288.96 413.52 288.41 414.53 289.18 415.53 289.95 415.89 290.99 416.24 292.04 415.51 293.42 414.78 294.81 413.35 295.77 411.92 296.73 410.80 296.42 409.68 296.11 408.83 295.03 407.98 293.96 408.57 292.75 409.17 291.54 410.16 292.12 411.15 292.70 411.15 292.71 Z" data-drauu_index="0"></path><path fill="#ff595e" d="M 425.83 269.66 Q 425.83 269.66 426.29 271.44 426.76 273.23 426.59 274.66 426.43 276.09 426.21 277.90 426.00 279.70 425.92 282.48 425.85 285.26 424.80 287.36 423.75 289.46 423.74 289.46 423.74 289.46 423.73 289.46 423.73 289.46 422.80 287.35 421.86 285.25 421.90 282.62 421.94 279.99 422.11 278.86 422.27 277.74 422.37 276.66 422.46 275.59 422.71 273.79 422.95 271.99 424.38 270.82 425.81 269.66 425.82 269.66 Z" data-drauu_index="1"></path><path fill="#ff595e" d="M 420.44 276.00 Q 420.44 276.00 422.81 275.67 425.18 275.33 426.46 275.78 427.74 276.22 428.94 276.93 430.14 277.63 431.44 279.72 432.73 281.80 432.73 281.81 432.72 281.81 432.72 281.81 432.72 281.82 429.57 280.90 426.42 279.99 425.23 279.58 424.04 279.17 422.24 277.59 420.44 276.02 420.44 276.01 Z" data-drauu_index="2"></path><path fill="#ff595e" d="M 442.70 279.24 Q 442.70 279.24 443.36 280.56 444.01 281.89 443.91 282.92 443.80 283.95 442.73 285.77 441.67 287.59 441.66 287.59 441.66 287.59 441.65 287.59 441.65 287.59 440.76 285.56 439.87 283.53 440.02 282.17 440.17 280.80 441.42 280.02 442.68 279.23 442.69 279.24 Z" data-drauu_index="3"></path><path fill="#ff595e" d="M 449.04 268.61 Q 449.04 268.61 450.33 268.39 451.62 268.18 452.60 267.43 453.58 266.69 454.01 265.46 454.43 264.23 454.08 262.99 453.73 261.75 453.65 260.45 453.57 259.14 453.30 258.74 453.02 258.34 452.96 258.10 452.90 257.87 452.90 257.63 452.90 257.39 452.96 257.15 453.01 256.92 453.12 256.71 453.24 256.49 453.39 256.31 453.55 256.13 453.75 255.99 453.95 255.85 454.17 255.77 454.40 255.68 454.64 255.65 454.88 255.62 455.12 255.65 455.36 255.68 455.58 255.76 455.81 255.84 456.01 255.98 456.21 256.12 456.37 256.30 456.53 256.48 456.64 256.69 456.75 256.90 457.18 258.00 457.60 259.09 458.14 260.47 458.67 261.84 459.03 262.84 459.39 263.84 459.63 264.86 459.87 265.89 460.11 266.96 460.35 268.03 460.96 268.91 461.57 269.78 462.48 271.33 463.39 272.88 463.83 274.41 464.27 275.93 464.57 277.16 464.87 278.40 465.17 279.79 465.48 281.18 465.47 282.27 465.46 283.36 465.03 284.40 464.60 285.44 464.28 286.40 463.96 287.36 463.16 288.09 462.36 288.82 461.00 289.02 459.64 289.21 458.60 290.11 457.55 291.01 456.51 291.24 455.47 291.47 453.74 291.21 452.01 290.95 450.71 290.68 449.42 290.42 448.21 289.97 447.01 289.52 446.64 287.31 446.28 285.10 446.29 285.10 446.29 285.10 446.30 285.10 446.30 285.09 447.63 285.60 448.96 286.10 450.15 286.42 451.33 286.74 452.67 287.04 454.01 287.34 455.04 287.21 456.07 287.09 457.27 286.20 458.48 285.30 459.69 284.60 460.91 283.89 461.23 282.89 461.54 281.89 461.26 280.62 460.98 279.34 460.70 278.17 460.42 277.01 460.09 275.78 459.76 274.56 459.21 273.53 458.65 272.51 457.80 271.49 456.96 270.47 456.60 269.14 456.23 267.81 455.91 266.43 455.58 265.05 455.22 264.05 454.86 263.04 454.27 261.66 453.69 260.27 453.35 259.31 453.02 258.34 452.96 258.11 452.90 257.87 452.90 257.63 452.90 257.39 452.96 257.15 453.01 256.92 453.12 256.71 453.24 256.49 453.39 256.31 453.55 256.13 453.75 255.99 453.95 255.85 454.17 255.77 454.40 255.68 454.64 255.65 454.88 255.62 455.12 255.65 455.36 255.68 455.58 255.76 455.81 255.84 456.01 255.98 456.21 256.12 456.37 256.30 456.53 256.48 456.64 256.69 456.75 256.90 457.07 257.52 457.40 258.13 457.50 259.23 457.61 260.32 457.65 261.56 457.69 262.80 457.96 263.96 458.24 265.11 458.30 266.24 458.36 267.36 457.82 268.39 457.28 269.42 455.92 269.89 454.56 270.37 453.73 271.25 452.90 272.13 451.87 272.24 450.84 272.36 449.95 271.80 449.06 271.25 449.04 269.94 449.03 268.63 449.03 268.62 Z" data-drauu_index="4"></path><path fill="#ff595e" d="M 451.30 268.60 Q 451.30 268.60 449.68 269.07 448.06 269.54 446.98 269.06 445.89 268.57 444.96 267.97 444.02 267.38 443.15 264.95 442.27 262.53 442.28 262.53 442.28 262.53 442.29 262.53 442.29 262.53 443.64 262.99 444.99 263.44 446.13 264.14 447.27 264.84 448.35 265.31 449.43 265.78 450.37 267.18 451.31 268.58 451.31 268.59 Z" data-drauu_index="5"></path><path fill="#ff595e" d="M 423.49 276.91 Q 423.49 276.91 422.35 277.12 421.22 277.33 420.09 276.85 418.96 276.36 417.72 274.91 416.47 273.47 416.47 273.46 416.48 273.46 416.48 273.45 416.48 273.45 418.41 273.10 420.33 272.75 421.28 273.09 422.23 273.43 423.23 274.06 424.22 274.69 423.86 275.79 423.51 276.89 423.50 276.90 Z" data-drauu_index="6"></path><path fill="#ff595e" d="M 338.71 291.66 Q 338.71 291.66 337.68 291.00 336.65 290.34 336.50 289.26 336.36 288.18 336.34 286.63 336.33 285.08 336.45 283.44 336.57 281.80 336.68 280.54 336.79 279.29 336.86 277.99 336.93 276.69 337.08 275.63 337.23 274.57 337.40 272.90 337.57 271.23 337.72 269.99 337.86 268.75 338.00 267.38 338.13 266.01 338.44 264.09 338.74 262.16 339.03 260.72 339.32 259.28 339.66 257.66 340.00 256.03 340.29 254.38 340.58 252.73 341.13 251.12 341.67 249.50 341.99 248.53 342.32 247.56 342.81 246.32 343.31 245.07 343.72 244.00 344.13 242.92 344.72 241.52 345.30 240.12 345.77 239.03 346.23 237.94 347.23 236.37 348.22 234.81 348.79 233.83 349.37 232.85 350.12 231.74 350.88 230.62 351.78 229.40 352.68 228.19 353.73 226.63 354.79 225.08 355.96 223.63 357.13 222.18 358.79 220.29 360.45 218.40 361.87 216.89 363.30 215.38 364.54 214.02 365.79 212.66 367.53 211.12 369.27 209.58 370.73 208.37 372.18 207.15 374.29 205.79 376.39 204.43 378.35 203.17 380.31 201.92 381.30 201.27 382.29 200.63 383.21 200.00 384.13 199.37 385.65 198.50 387.16 197.64 389.39 196.34 391.63 195.03 394.17 193.67 396.72 192.31 399.01 191.31 401.30 190.30 403.46 189.60 405.62 188.89 406.87 188.59 408.11 188.28 409.39 188.14 410.66 187.99 411.75 188.17 412.83 188.34 414.62 188.44 416.40 188.54 417.77 188.79 419.14 189.05 420.86 189.71 422.58 190.37 424.25 191.01 425.92 191.66 427.69 192.42 429.45 193.19 431.29 193.93 433.12 194.67 434.15 195.10 435.17 195.54 436.95 196.20 438.73 196.87 441.02 197.73 443.31 198.58 445.82 199.54 448.34 200.50 450.72 201.48 453.10 202.46 455.06 203.55 457.03 204.64 458.92 205.99 460.81 207.34 462.53 208.65 464.26 209.95 465.86 211.13 467.46 212.30 468.61 213.12 469.76 213.93 471.63 215.23 473.50 216.52 475.52 217.87 477.54 219.22 479.64 220.62 481.74 222.03 482.89 222.87 484.03 223.71 485.11 224.79 486.18 225.86 486.74 226.71 487.30 227.56 488.01 228.59 488.71 229.61 489.88 231.37 491.05 233.12 492.01 234.49 492.96 235.85 493.65 236.97 494.33 238.10 494.93 240.00 495.54 241.91 495.63 243.59 495.73 245.28 495.87 247.91 496.01 250.54 496.24 253.26 496.47 255.97 496.72 258.12 496.97 260.27 497.20 261.93 497.43 263.58 497.54 264.83 497.64 266.07 497.78 267.55 497.92 269.03 497.86 270.62 497.80 272.22 497.50 273.29 497.19 274.37 496.96 275.45 496.74 276.52 496.52 278.22 496.30 279.91 496.13 281.40 495.95 282.89 495.79 284.13 495.63 285.37 495.47 286.60 495.30 287.83 494.79 288.81 494.29 289.79 493.23 290.65 492.17 291.50 491.81 292.57 491.44 293.64 491.17 294.73 490.90 295.83 490.24 296.79 489.59 297.75 487.91 298.44 486.23 299.13 486.22 299.12 486.22 299.12 486.21 299.12 486.21 299.12 486.47 297.14 486.73 295.15 487.09 294.16 487.44 293.17 487.60 292.05 487.76 290.93 488.48 289.87 489.20 288.82 490.29 287.94 491.38 287.05 491.52 285.95 491.66 284.86 491.82 283.64 491.98 282.42 492.16 280.91 492.34 279.40 492.58 277.54 492.82 275.69 493.33 273.66 493.85 271.63 493.89 270.45 493.93 269.27 493.80 267.84 493.66 266.40 493.56 265.27 493.47 264.13 493.23 262.43 493.00 260.73 492.74 258.52 492.48 256.31 492.25 253.57 492.02 250.82 491.88 248.12 491.73 245.42 491.66 243.98 491.59 242.54 491.25 241.36 490.91 240.17 490.30 239.16 489.69 238.14 488.70 236.74 487.72 235.34 486.51 233.52 485.30 231.69 484.45 230.39 483.61 229.08 482.64 228.01 481.66 226.94 480.59 226.15 479.51 225.35 477.41 223.95 475.31 222.54 473.27 221.18 471.22 219.81 469.34 218.50 467.45 217.20 466.27 216.36 465.09 215.53 463.47 214.33 461.84 213.14 460.16 211.86 458.47 210.59 456.78 209.36 455.08 208.13 453.32 207.15 451.57 206.16 449.24 205.20 446.91 204.24 444.41 203.28 441.91 202.33 439.70 201.50 437.48 200.67 435.55 199.95 433.61 199.22 432.62 198.80 431.63 198.38 429.74 197.62 427.86 196.86 426.17 196.12 424.48 195.39 422.80 194.74 421.12 194.09 419.74 193.53 418.37 192.97 417.24 192.75 416.12 192.53 415.00 192.45 413.88 192.37 412.76 192.29 411.64 192.21 410.35 192.19 409.06 192.17 407.95 192.43 406.85 192.70 404.88 193.33 402.90 193.97 400.75 194.90 398.60 195.84 396.12 197.16 393.65 198.48 391.38 199.81 389.11 201.14 387.88 201.80 386.65 202.47 385.56 203.23 384.47 203.98 383.47 204.63 382.47 205.28 380.51 206.54 378.56 207.80 376.65 209.01 374.74 210.23 373.32 211.41 371.91 212.59 370.32 213.97 368.74 215.35 367.47 216.74 366.21 218.13 364.79 219.63 363.37 221.13 361.81 222.91 360.24 224.69 359.49 225.63 358.73 226.56 357.91 227.66 357.08 228.76 356.49 229.66 355.89 230.57 355.04 231.72 354.19 232.87 353.50 233.87 352.82 234.88 352.17 235.98 351.52 237.07 350.68 238.37 349.84 239.66 349.38 240.75 348.91 241.83 348.39 243.08 347.87 244.34 347.45 245.45 347.02 246.57 346.57 247.69 346.11 248.82 345.41 250.72 344.71 252.62 344.46 253.71 344.21 254.80 344.07 255.80 343.93 256.79 343.59 258.43 343.24 260.07 342.97 261.44 342.69 262.80 342.51 263.88 342.34 264.96 342.13 266.43 341.92 267.90 341.78 269.26 341.63 270.62 341.48 271.88 341.33 273.14 341.26 274.14 341.19 275.14 341.04 276.16 340.90 277.19 340.84 278.31 340.79 279.44 340.67 280.72 340.56 281.99 340.44 283.72 340.32 285.44 340.33 286.69 340.35 287.95 340.46 288.99 340.57 290.04 339.65 290.85 338.73 291.66 338.72 291.66 Z" data-drauu_index="7"></path><path fill="#ff595e" d="M 384.28 363.30 Q 384.28 363.30 382.82 363.75 381.35 364.19 379.78 363.37 378.22 362.56 376.77 361.57 375.32 360.57 373.91 359.75 372.49 358.93 371.00 358.16 369.52 357.39 368.14 356.73 366.77 356.07 365.82 355.53 364.87 355.00 363.92 354.50 362.97 354.00 361.84 353.27 360.71 352.53 359.82 351.49 358.94 350.46 357.62 348.89 356.31 347.32 355.12 345.92 353.93 344.52 352.70 343.19 351.46 341.86 350.24 340.74 349.02 339.61 348.28 338.86 347.53 338.11 346.63 336.84 345.72 335.57 345.04 333.83 344.35 332.09 344.08 330.86 343.81 329.64 343.50 328.43 343.19 327.22 342.89 326.16 342.58 325.09 342.24 324.08 341.90 323.06 341.45 321.86 340.99 320.66 340.53 319.20 340.07 317.74 339.94 316.46 339.81 315.18 339.68 313.78 339.55 312.37 339.03 311.15 338.51 309.92 338.06 308.42 337.61 306.93 337.36 305.76 337.12 304.59 336.79 302.89 336.45 301.19 336.20 300.08 335.96 298.97 335.66 297.60 335.37 296.24 334.97 293.98 334.57 291.71 334.33 290.30 334.09 288.89 333.90 287.51 333.72 286.13 333.52 285.04 333.32 283.94 333.00 282.47 332.68 281.01 332.29 279.10 331.89 277.19 331.47 275.38 331.06 273.58 330.78 272.00 330.51 270.41 330.27 268.72 330.03 267.03 329.85 265.55 329.66 264.08 329.50 262.16 329.34 260.24 329.27 258.65 329.20 257.06 329.17 255.76 329.14 254.46 329.13 253.16 329.11 251.85 329.32 250.17 329.53 248.49 329.77 247.40 330.00 246.31 330.57 244.95 331.13 243.60 331.71 242.53 332.29 241.47 333.17 240.22 334.05 238.97 334.82 238.04 335.59 237.10 336.93 236.15 338.28 235.19 339.64 234.48 341.01 233.77 342.28 233.17 343.56 232.58 345.46 231.37 347.35 230.16 349.32 228.68 351.29 227.19 354.01 224.67 356.72 222.14 358.72 220.08 360.72 218.01 361.83 216.78 362.94 215.56 363.73 214.65 364.51 213.74 365.23 212.98 365.95 212.22 366.72 211.25 367.50 210.29 369.35 208.97 371.20 207.64 372.26 206.83 373.31 206.03 374.46 205.26 375.61 204.50 376.71 203.73 377.81 202.97 379.23 202.67 380.66 202.38 382.72 202.67 384.78 202.96 387.02 203.15 389.27 203.34 390.58 203.43 391.88 203.51 393.36 203.56 394.84 203.61 397.38 203.50 399.91 203.39 401.45 203.38 402.99 203.37 405.01 203.52 407.03 203.67 408.36 203.81 409.69 203.96 410.90 204.12 412.11 204.29 413.18 204.20 414.25 204.11 415.53 203.82 416.80 203.52 417.81 203.26 418.81 203.00 419.86 202.79 420.92 202.59 422.35 202.56 423.77 202.54 425.32 202.54 426.87 202.54 428.06 202.62 429.25 202.71 430.94 203.17 432.62 203.63 434.75 204.09 436.88 204.56 440.77 205.82 444.66 207.07 448.07 208.09 451.49 209.11 454.12 209.95 456.75 210.80 459.15 211.56 461.54 212.33 462.85 212.73 464.15 213.13 465.41 213.48 466.66 213.82 467.71 214.14 468.76 214.46 469.76 214.70 470.76 214.94 471.73 215.22 472.70 215.50 474.59 216.27 476.48 217.04 478.41 217.88 480.35 218.72 482.37 219.83 484.40 220.95 485.74 221.75 487.07 222.54 488.25 223.33 489.44 224.11 490.41 224.76 491.37 225.40 493.24 227.08 495.10 228.76 497.16 230.64 499.22 232.52 501.02 234.50 502.82 236.49 504.22 238.21 505.62 239.92 507.06 242.30 508.50 244.69 509.40 246.29 510.30 247.90 511.09 249.32 511.88 250.75 512.46 252.00 513.04 253.26 513.45 254.92 513.87 256.58 513.76 258.10 513.65 259.63 513.38 261.13 513.12 262.63 512.69 264.42 512.26 266.21 511.70 267.66 511.14 269.11 510.43 270.43 509.71 271.76 508.74 273.13 507.77 274.49 506.91 275.78 506.05 277.06 505.53 278.23 505.02 279.40 504.27 280.87 503.53 282.34 503.00 283.20 502.47 284.06 501.61 286.18 500.74 288.30 500.17 289.99 499.60 291.69 498.72 294.02 497.83 296.34 497.12 298.09 496.40 299.83 495.85 301.07 495.30 302.31 494.77 303.65 494.23 304.99 493.74 306.24 493.24 307.49 492.40 309.01 491.56 310.53 490.78 311.38 490.00 312.24 489.08 313.33 488.17 314.43 487.57 315.31 486.97 316.18 486.38 317.05 485.78 317.92 484.92 319.06 484.07 320.21 483.09 321.53 482.11 322.85 480.91 324.51 479.72 326.17 478.91 327.20 478.10 328.23 477.38 329.20 476.65 330.18 475.79 331.25 474.94 332.33 474.06 333.44 473.19 334.55 472.46 335.69 471.73 336.84 471.10 337.74 470.47 338.64 469.63 339.69 468.79 340.73 467.75 341.88 466.71 343.03 465.78 343.92 464.84 344.81 463.74 345.41 462.64 346.01 461.50 346.37 460.36 346.73 459.09 347.59 457.82 348.45 456.66 349.01 455.50 349.56 454.17 350.67 452.83 351.77 451.84 352.72 450.84 353.67 450.06 354.34 449.28 355.02 448.24 355.82 447.19 356.62 445.55 357.82 443.91 359.02 442.84 359.76 441.77 360.51 440.47 361.21 439.18 361.91 438.26 362.34 437.35 362.78 435.97 363.03 434.59 363.28 433.49 363.42 432.39 363.55 430.81 363.81 429.23 364.08 427.95 364.58 426.67 365.07 425.48 365.49 424.30 365.92 423.08 366.10 421.85 366.28 420.51 366.18 419.16 366.07 417.71 366.47 416.25 366.87 414.43 367.13 412.62 367.39 410.60 367.65 408.58 367.91 407.05 368.03 405.52 368.14 403.95 368.21 402.37 368.28 401.36 368.29 400.35 368.31 398.91 368.29 397.47 368.27 395.67 367.15 393.87 366.03 393.87 366.03 393.87 366.02 393.88 366.02 393.88 366.01 395.67 365.18 397.47 364.35 398.65 364.33 399.83 364.31 401.04 364.30 402.24 364.28 403.73 364.22 405.22 364.16 406.65 364.05 408.07 363.95 410.06 363.69 412.06 363.43 413.65 363.22 415.24 363.00 416.29 362.72 417.35 362.44 419.01 362.27 420.67 362.09 421.83 362.11 422.98 362.14 424.03 361.77 425.08 361.40 426.82 360.77 428.57 360.13 430.24 359.85 431.92 359.58 432.95 359.45 433.98 359.33 435.63 358.86 437.29 358.38 438.39 357.80 439.49 357.22 440.52 356.51 441.55 355.79 443.73 354.22 445.91 352.65 447.00 351.71 448.09 350.77 449.20 349.71 450.32 348.65 451.56 347.61 452.79 346.57 454.04 345.90 455.29 345.23 456.36 344.60 457.43 343.97 458.75 343.23 460.07 342.49 461.19 342.09 462.32 341.70 463.05 341.00 463.78 340.31 464.73 339.26 465.68 338.22 466.43 337.28 467.19 336.35 467.78 335.51 468.37 334.67 469.21 333.38 470.05 332.08 470.93 330.96 471.81 329.83 472.62 328.83 473.42 327.82 474.19 326.79 474.95 325.76 475.71 324.79 476.47 323.82 477.68 322.15 478.90 320.47 479.88 319.14 480.87 317.80 481.67 316.74 482.48 315.67 483.08 314.79 483.68 313.91 484.79 312.39 485.90 310.88 487.05 309.62 488.19 308.36 488.88 307.14 489.57 305.91 490.11 304.57 490.65 303.22 491.15 301.95 491.65 300.68 492.17 299.50 492.70 298.31 493.40 296.61 494.10 294.92 494.95 292.67 495.81 290.42 496.40 288.67 496.99 286.92 497.67 285.11 498.34 283.31 499.22 281.79 500.11 280.27 500.67 279.17 501.24 278.07 501.69 276.96 502.13 275.85 502.75 274.84 503.37 273.83 504.01 272.91 504.65 271.99 505.41 270.95 506.16 269.91 506.81 268.72 507.46 267.54 507.94 266.33 508.42 265.12 508.80 263.51 509.18 261.91 509.43 260.59 509.67 259.27 509.79 258.21 509.91 257.15 509.66 256.04 509.41 254.93 508.89 253.81 508.38 252.69 507.59 251.27 506.81 249.85 505.93 248.30 505.06 246.74 503.79 244.59 502.52 242.44 501.19 240.81 499.85 239.17 498.19 237.32 496.52 235.47 494.43 233.56 492.34 231.66 490.74 230.19 489.15 228.73 488.19 228.09 487.23 227.44 486.12 226.71 485.02 225.98 483.74 225.21 482.47 224.45 480.61 223.42 478.75 222.39 476.86 221.56 474.96 220.74 472.39 219.78 469.81 218.83 468.71 218.56 467.60 218.29 466.60 217.98 465.60 217.68 464.28 217.32 462.97 216.96 461.65 216.55 460.32 216.14 457.93 215.37 455.53 214.61 452.94 213.77 450.34 212.94 446.88 211.91 443.43 210.88 439.72 209.67 436.02 208.47 433.78 207.97 431.53 207.47 430.24 207.08 428.94 206.69 427.05 206.62 425.16 206.54 423.48 206.55 421.80 206.55 420.81 206.71 419.81 206.87 418.75 207.15 417.69 207.42 416.26 207.74 414.84 208.06 413.25 208.16 411.66 208.26 410.46 208.10 409.26 207.93 407.99 207.79 406.72 207.65 404.87 207.51 403.02 207.37 401.50 207.38 399.99 207.39 397.37 207.50 394.75 207.61 393.19 207.56 391.63 207.50 390.28 207.42 388.92 207.33 386.55 207.12 384.18 206.91 382.02 206.66 379.86 206.40 378.84 207.11 377.82 207.82 376.78 208.52 375.74 209.21 374.54 210.12 373.34 211.02 372.28 211.68 371.22 212.34 370.42 213.19 369.63 214.04 368.59 215.19 367.54 216.34 366.72 217.30 365.91 218.25 364.75 219.52 363.60 220.79 361.52 222.93 359.44 225.08 356.57 227.73 353.70 230.39 351.65 231.93 349.60 233.47 348.32 234.34 347.03 235.21 346.14 235.71 345.25 236.20 343.43 237.07 341.62 237.93 340.18 238.74 338.74 239.56 338.04 240.41 337.33 241.26 336.57 242.32 335.80 243.39 335.30 244.29 334.80 245.18 334.15 247.10 333.50 249.01 333.31 250.41 333.11 251.82 333.13 253.10 333.14 254.38 333.17 255.63 333.19 256.89 333.26 258.40 333.32 259.90 333.48 261.74 333.63 263.58 333.81 265.02 333.99 266.47 334.23 268.10 334.46 269.74 334.71 271.21 334.95 272.68 335.38 274.53 335.81 276.37 336.20 278.27 336.59 280.16 336.92 281.70 337.26 283.23 337.47 284.41 337.68 285.59 337.86 286.91 338.04 288.22 338.28 289.63 338.51 291.04 338.90 293.26 339.30 295.48 339.58 296.79 339.86 298.09 340.11 299.23 340.37 300.37 340.70 302.08 341.04 303.78 341.25 304.81 341.45 305.83 341.79 307.03 342.14 308.23 342.57 309.22 343.00 310.21 343.36 311.74 343.72 313.27 343.82 314.98 343.93 316.69 344.34 317.99 344.75 319.29 345.22 320.54 345.70 321.79 346.06 322.89 346.43 323.99 346.75 325.11 347.07 326.23 347.40 327.51 347.72 328.79 348.16 330.63 348.59 332.48 349.16 333.45 349.72 334.43 350.73 335.55 351.74 336.68 353.06 337.91 354.39 339.14 355.68 340.53 356.98 341.93 358.17 343.33 359.36 344.73 360.17 345.68 360.98 346.64 362.02 347.97 363.06 349.30 363.95 349.88 364.84 350.46 366.67 351.46 368.50 352.46 369.93 353.15 371.36 353.84 372.94 354.66 374.51 355.48 376.13 356.43 377.74 357.39 378.91 358.21 380.08 359.02 381.52 359.77 382.96 360.53 383.62 361.91 384.29 363.29 384.29 363.30 Z" data-drauu_index="8"></path><path fill="#ff595e" d="M 409.74 291.95 Q 409.74 291.95 411.20 292.51 412.66 293.06 413.39 294.26 414.11 295.46 414.70 296.81 415.29 298.17 415.81 299.82 416.34 301.47 416.86 303.72 417.38 305.98 417.55 307.14 417.72 308.30 417.83 309.38 417.94 310.46 417.96 311.63 417.98 312.80 417.90 313.95 417.82 315.11 417.51 316.36 417.20 317.62 416.59 319.10 415.97 320.58 415.62 321.79 415.26 323.00 414.86 324.55 414.46 326.10 414.31 327.32 414.16 328.54 414.06 329.82 413.96 331.11 413.88 332.44 413.80 333.77 413.69 335.64 413.58 337.52 413.53 338.76 413.48 340.00 413.56 341.00 413.64 342.00 413.65 343.62 413.65 345.24 413.58 346.67 413.52 348.10 413.48 349.45 413.44 350.80 413.44 352.22 413.44 353.64 413.44 354.89 413.44 356.15 412.77 358.29 412.10 360.42 412.10 360.42 412.10 360.43 412.10 360.43 412.10 360.43 412.10 360.43 412.10 360.43 412.10 360.43 412.10 360.43 412.10 360.43 412.10 360.43 412.10 360.43 412.10 360.43 412.09 360.43 412.09 360.43 412.09 360.43 412.09 360.43 412.09 360.43 412.09 360.43 412.09 360.43 412.09 360.43 412.09 360.43 412.09 360.43 412.08 360.43 412.08 360.43 412.08 360.42 412.08 360.42 412.09 360.42 412.09 360.42 412.10 360.42 412.10 360.42 412.10 360.42 412.10 360.43 412.10 360.43 412.10 360.43 412.10 360.43 412.10 360.43 412.10 360.43 412.10 360.43 412.10 360.43 412.10 360.43 412.10 360.43 412.10 360.43 412.09 360.43 412.09 360.43 412.09 360.43 412.09 360.43 412.09 360.43 412.09 360.43 412.09 360.43 412.09 360.43 412.09 360.43 412.09 360.43 412.08 360.43 412.08 360.43 412.08 360.42 412.08 360.42 410.79 358.82 409.49 357.22 409.46 356.12 409.44 355.01 409.44 353.84 409.44 352.67 409.44 351.29 409.45 349.92 409.49 348.79 409.54 347.66 409.59 346.45 409.65 345.24 409.65 343.64 409.64 342.05 409.56 340.96 409.48 339.87 409.54 338.53 409.60 337.19 409.71 335.25 409.83 333.31 409.90 332.08 409.97 330.85 410.08 329.44 410.19 328.03 410.39 326.56 410.59 325.10 411.01 323.47 411.43 321.85 412.20 319.69 412.96 317.54 413.39 316.27 413.82 315.00 413.90 313.91 413.98 312.82 413.96 311.76 413.94 310.69 413.80 309.28 413.66 307.87 413.44 306.25 413.22 304.63 412.87 303.65 412.52 302.66 412.07 301.21 411.62 299.75 411.13 298.60 410.63 297.44 409.99 296.25 409.34 295.06 409.53 293.51 409.73 291.96 409.73 291.96 Z" data-drauu_index="9"></path><path fill="#ff595e" d="M 510.02 294.12 Q 510.02 294.12 510.02 294.11 510.02 294.11 510.02 294.10 510.02 294.10 510.02 294.11 Z" data-drauu_index="10"></path><path fill="#ff595e" d="M 509.63 294.12 Q 509.63 294.12 509.63 294.11 509.63 294.11 509.63 294.10 509.63 294.10 509.63 294.11 Z" data-drauu_index="11"></path><path fill="#ff595e" d="M 508.77 290.26 Q 508.77 290.26 509.35 291.41 509.93 292.56 509.79 293.73 509.65 294.90 510.01 296.13 510.37 297.37 510.97 298.27 511.57 299.18 512.37 299.84 513.16 300.51 514.52 301.15 515.88 301.80 516.88 302.08 517.88 302.35 517.45 301.22 517.02 300.09 517.00 298.37 516.97 296.64 517.26 295.41 517.55 294.19 516.67 293.37 515.80 292.55 515.05 291.70 514.31 290.84 511.80 289.63 509.29 288.43 509.29 288.42 509.29 288.42 509.29 288.41 509.29 288.41 511.60 287.52 513.92 286.64 515.09 286.99 516.26 287.35 517.21 288.21 518.15 289.07 519.04 290.18 519.92 291.30 520.70 293.08 521.47 294.87 521.22 295.86 520.97 296.85 521.00 298.53 521.02 300.22 520.92 301.66 520.81 303.09 519.92 304.52 519.02 305.94 517.54 305.96 516.05 305.98 515.09 305.69 514.13 305.39 513.14 304.94 512.15 304.49 511.21 303.95 510.27 303.42 509.29 302.46 508.32 301.50 507.53 300.29 506.75 299.07 506.25 297.67 505.76 296.27 505.74 295.07 505.72 293.86 506.00 292.43 506.29 291.00 507.52 290.62 508.76 290.25 508.77 290.25 Z" data-drauu_index="12"></path><path fill="#ff595e" d="M 404.42 386.06 Q 404.42 386.06 403.29 387.00 402.15 387.93 400.99 387.90 399.84 387.86 400.72 388.52 401.61 389.18 402.51 389.61 403.42 390.05 404.04 389.01 404.66 387.96 404.73 386.92 404.79 385.88 404.84 385.65 404.89 385.41 404.99 385.19 405.10 384.98 405.25 384.79 405.40 384.60 405.60 384.46 405.79 384.32 406.01 384.22 406.23 384.13 406.47 384.09 406.71 384.05 406.95 384.07 407.19 384.09 407.42 384.17 407.65 384.25 407.85 384.37 408.05 384.50 408.22 384.68 408.39 384.85 408.51 385.06 408.63 385.27 408.69 385.50 408.76 385.73 408.77 385.97 408.78 386.22 409.14 388.26 409.49 390.31 410.03 392.93 410.56 395.55 410.93 398.27 411.30 400.99 411.65 403.96 411.99 406.92 412.60 409.63 413.21 412.34 413.62 413.75 414.03 415.15 413.74 417.06 413.46 418.98 412.28 419.42 411.10 419.86 408.27 419.92 405.45 419.99 401.71 420.20 397.98 420.42 394.29 420.67 390.60 420.92 388.80 421.02 387.00 421.13 385.58 419.98 384.15 418.83 384.15 418.83 384.15 418.83 384.15 418.83 384.15 418.83 384.15 418.83 384.15 418.83 384.15 418.83 384.14 418.83 384.14 418.83 384.14 418.83 384.14 418.83 384.14 418.82 384.14 418.82 384.14 418.82 384.14 418.82 384.14 418.82 384.14 418.82 384.14 418.82 384.15 418.82 384.15 418.82 384.15 418.82 384.15 418.81 384.15 418.81 384.15 418.81 384.15 418.81 384.15 418.81 384.15 418.82 384.15 418.82 384.15 418.83 384.15 418.83 384.15 418.83 384.15 418.83 384.15 418.83 384.15 418.83 384.15 418.83 384.15 418.83 384.15 418.83 384.14 418.83 384.14 418.83 384.14 418.83 384.14 418.83 384.14 418.82 384.14 418.82 384.14 418.82 384.14 418.82 384.14 418.82 384.14 418.82 384.14 418.82 384.15 418.82 384.15 418.82 384.15 418.82 384.15 418.81 384.15 418.81 384.15 418.81 384.15 418.81 384.15 418.81 385.46 417.97 386.77 417.13 388.55 417.03 390.33 416.93 394.04 416.68 397.74 416.43 401.56 416.21 405.37 415.99 407.78 416.13 410.19 416.27 409.75 414.74 409.30 413.21 408.66 410.30 408.02 407.39 407.68 404.46 407.33 401.52 406.99 398.94 406.64 396.35 406.12 393.79 405.60 391.23 405.29 389.91 404.99 388.59 404.89 387.24 404.79 385.88 404.84 385.65 404.89 385.41 404.99 385.20 405.10 384.98 405.25 384.79 405.40 384.60 405.60 384.46 405.79 384.32 406.01 384.22 406.23 384.13 406.47 384.09 406.71 384.05 406.95 384.07 407.19 384.09 407.42 384.17 407.65 384.24 407.85 384.37 408.05 384.50 408.22 384.68 408.39 384.85 408.51 385.06 408.63 385.27 408.69 385.50 408.76 385.73 408.77 385.97 408.78 386.22 408.73 386.73 408.68 387.25 408.26 388.99 407.83 390.74 406.57 391.97 405.31 393.20 404.23 393.55 403.15 393.91 401.93 393.57 400.70 393.22 399.73 392.69 398.77 392.16 397.76 391.33 396.76 390.49 396.27 389.56 395.78 388.64 395.91 387.34 396.03 386.05 396.87 385.16 397.71 384.28 398.81 384.07 399.90 383.86 401.13 383.90 402.36 383.94 403.39 384.99 404.42 386.04 404.42 386.05 Z" data-drauu_index="13"></path><path fill="#ff595e" d="M 422.94 393.53 Q 422.94 393.53 423.09 395.04 423.24 396.55 422.78 397.50 422.32 398.45 422.48 399.55 422.64 400.66 423.75 402.22 424.85 403.78 425.90 405.19 426.95 406.61 427.99 408.11 429.03 409.62 430.17 411.13 431.31 412.64 432.17 413.80 433.04 414.97 433.98 415.31 434.93 415.66 433.94 414.74 432.95 413.82 432.68 412.84 432.41 411.86 432.01 410.47 431.62 409.08 431.22 408.04 430.83 407.01 430.37 405.94 429.91 404.86 429.35 403.91 428.80 402.95 428.59 401.75 428.39 400.55 427.78 399.68 427.16 398.81 426.22 398.35 425.28 397.88 423.76 396.84 422.24 395.80 422.24 395.80 422.24 395.79 422.24 395.79 422.24 395.78 424.81 395.16 427.38 394.54 428.30 394.95 429.23 395.36 430.27 396.11 431.31 396.87 431.76 397.79 432.21 398.72 432.27 399.90 432.33 401.07 432.93 402.11 433.52 403.15 434.05 404.37 434.57 405.59 435.02 406.78 435.47 407.98 435.87 409.40 436.27 410.81 436.80 412.39 437.33 413.96 437.90 415.29 438.48 416.61 437.78 418.04 437.08 419.47 435.84 419.61 434.60 419.75 433.36 419.28 432.13 418.81 430.98 418.06 429.83 417.31 428.97 416.18 428.12 415.05 426.93 413.47 425.73 411.89 424.73 410.44 423.74 408.99 422.71 407.61 421.69 406.23 420.62 404.81 419.54 403.39 419.10 402.39 418.66 401.38 418.41 400.35 418.17 399.31 418.42 398.07 418.66 396.83 419.31 395.54 419.97 394.25 421.45 393.88 422.92 393.52 422.93 393.53 Z" data-drauu_index="14"></path><path fill="#ff595e" d="M 277.61 283.00 Q 277.61 283.00 278.60 283.94 279.59 284.89 279.32 287.37 279.06 289.86 278.96 291.97 278.86 294.09 278.64 296.88 278.42 299.68 278.32 301.45 278.23 303.21 278.25 304.44 278.28 305.67 278.41 307.32 278.55 308.97 277.89 310.70 277.23 312.43 277.23 312.43 277.22 312.43 277.22 312.43 277.21 312.43 275.98 310.94 274.75 309.45 274.51 307.59 274.28 305.73 274.26 304.37 274.24 303.00 274.33 301.18 274.43 299.36 274.65 296.63 274.87 293.89 274.99 291.56 275.11 289.22 275.36 287.05 275.60 284.89 276.60 283.94 277.59 283.00 277.60 283.00 Z" data-drauu_index="15"></path><path fill="#ff595e" d="M 305.67 281.79 Q 305.67 281.79 304.85 282.66 304.02 283.54 302.77 283.30 301.51 283.05 301.09 284.41 300.67 285.76 300.67 287.03 300.67 288.31 301.74 289.77 302.80 291.23 303.97 292.27 305.15 293.30 306.01 294.16 306.88 295.02 307.90 295.88 308.93 296.74 309.86 298.05 310.78 299.35 310.91 300.43 311.03 301.51 310.96 302.99 310.89 304.46 309.97 305.56 309.06 306.67 307.94 307.14 306.83 307.62 305.72 307.94 304.60 308.25 303.60 308.45 302.60 308.64 301.00 308.78 299.40 308.92 296.29 308.57 293.18 308.22 291.11 307.86 289.03 307.49 287.51 307.15 285.98 306.80 284.80 306.46 283.63 306.11 282.95 305.25 282.26 304.39 282.31 303.32 282.36 302.25 282.68 301.05 283.00 299.86 283.72 299.03 284.44 298.20 285.99 297.48 287.55 296.76 288.62 296.29 289.70 295.82 290.83 295.38 291.96 294.93 292.58 293.87 293.21 292.81 294.25 291.64 295.29 290.46 296.16 289.76 297.04 289.06 298.03 288.42 299.01 287.77 299.87 287.14 300.73 286.51 302.90 286.04 305.08 285.57 305.08 285.58 305.08 285.58 305.09 285.58 305.09 285.59 304.19 287.56 303.29 289.53 301.82 290.47 300.34 291.40 299.30 292.27 298.26 293.14 297.43 294.04 296.59 294.95 295.97 296.01 295.34 297.08 294.34 297.88 293.35 298.69 292.09 299.20 290.83 299.71 289.89 300.11 288.94 300.51 287.90 301.71 286.87 302.90 288.30 303.23 289.72 303.55 291.68 303.90 293.64 304.25 296.49 304.58 299.34 304.92 300.91 304.76 302.48 304.61 303.91 304.26 305.34 303.91 306.20 303.14 307.06 302.37 306.99 301.29 306.91 300.21 305.88 299.37 304.84 298.52 303.95 297.69 303.06 296.86 302.25 296.16 301.45 295.47 300.62 294.67 299.80 293.88 298.37 291.79 296.94 289.71 296.81 288.42 296.67 287.14 296.68 285.92 296.68 284.71 296.83 283.65 296.98 282.58 297.42 281.41 297.86 280.23 298.95 279.50 300.05 278.77 301.14 278.94 302.24 279.12 303.45 279.35 304.66 279.59 305.17 280.68 305.68 281.77 305.68 281.78 Z" data-drauu_index="16"></path><path fill="#ff595e" d="M 319.60 281.59 Q 319.60 281.59 318.71 282.53 317.82 283.46 317.59 284.70 317.37 285.94 317.14 287.09 316.91 288.24 316.79 289.30 316.66 290.35 317.42 291.88 318.18 293.41 319.10 294.98 320.03 296.56 321.23 298.18 322.43 299.81 323.19 300.83 323.94 301.86 324.61 302.86 325.29 303.85 326.22 304.53 327.16 305.20 328.09 305.96 329.02 306.71 328.69 304.85 328.35 302.98 328.58 300.68 328.80 298.39 329.25 296.54 329.70 294.68 330.15 293.39 330.60 292.09 331.01 290.75 331.42 289.40 331.32 288.35 331.22 287.30 329.18 283.52 327.15 279.75 326.35 278.27 325.56 276.79 324.91 275.89 324.27 274.98 322.34 273.96 320.41 272.93 320.41 272.93 320.40 272.92 320.40 272.92 320.39 272.92 322.60 271.96 324.80 271.00 325.96 271.60 327.13 272.20 328.11 273.55 329.08 274.90 329.90 276.43 330.73 277.96 332.19 280.91 333.66 283.86 334.39 285.18 335.12 286.49 335.22 288.38 335.33 290.28 334.85 291.84 334.37 293.41 333.98 294.53 333.58 295.65 333.18 297.22 332.78 298.78 332.56 301.01 332.35 303.24 332.16 305.75 331.96 308.26 330.61 309.56 329.25 310.87 328.02 310.45 326.79 310.03 325.79 309.23 324.79 308.43 323.42 307.31 322.04 306.19 321.38 305.21 320.72 304.23 319.96 303.20 319.21 302.18 317.89 300.37 316.57 298.57 315.54 296.78 314.51 294.99 313.65 291.81 312.79 288.62 312.97 287.42 313.15 286.22 313.58 284.63 314.01 283.04 314.41 282.10 314.80 281.15 316.43 280.31 318.05 279.47 318.83 280.52 319.60 281.57 319.60 281.58 Z" data-drauu_index="17"></path><path fill="#ff595e" d="M 410.88 181.37 Q 410.88 181.37 412.22 183.05 413.56 184.73 413.84 186.55 414.13 188.37 414.25 189.38 414.38 190.39 414.43 191.63 414.49 192.87 414.28 195.28 414.07 197.68 414.07 197.69 414.06 197.69 414.06 197.70 414.06 197.70 412.53 196.48 411.00 195.25 410.75 194.15 410.50 193.05 410.34 191.02 410.18 188.99 409.91 187.24 409.63 185.49 410.25 183.43 410.86 181.37 410.87 181.37 Z" data-drauu_index="18"></path><path fill="#ff595e" d="M 406.27 155.19 Q 406.27 155.19 405.54 153.11 404.80 151.02 405.34 148.78 405.88 146.55 406.40 144.84 406.92 143.13 407.18 142.17 407.44 141.20 407.95 140.17 408.45 139.13 409.99 139.38 411.52 139.63 412.15 140.82 412.78 142.01 413.39 143.67 414.00 145.34 414.43 146.59 414.86 147.84 415.35 149.54 415.83 151.24 416.10 152.33 416.36 153.42 416.61 154.45 416.85 155.48 416.83 156.49 416.81 157.51 416.21 158.92 415.61 160.34 414.69 161.33 413.76 162.33 412.92 162.98 412.07 163.63 411.34 164.39 410.61 165.14 410.20 165.50 409.80 165.85 409.58 165.94 409.35 166.03 409.12 166.07 408.88 166.11 408.64 166.09 408.40 166.07 408.17 165.99 407.94 165.91 407.74 165.78 407.54 165.65 407.37 165.47 407.20 165.30 407.09 165.09 406.97 164.88 406.90 164.65 406.84 164.41 406.83 164.17 406.82 163.93 406.87 163.70 406.92 163.46 407.03 163.24 407.13 163.03 407.29 162.84 407.44 162.66 407.63 162.51 407.83 162.37 408.94 162.40 410.04 162.43 411.37 162.71 412.70 162.99 413.78 163.32 414.86 163.64 416.08 164.08 417.31 164.52 420.04 166.02 422.77 167.52 422.77 167.52 422.77 167.53 422.77 167.53 422.77 167.54 419.85 168.01 416.92 168.48 415.54 168.07 414.16 167.66 412.95 167.27 411.75 166.88 410.77 166.36 409.80 165.85 409.58 165.94 409.35 166.03 409.12 166.07 408.88 166.11 408.64 166.09 408.40 166.07 408.17 165.99 407.94 165.91 407.74 165.78 407.54 165.65 407.37 165.47 407.20 165.30 407.09 165.09 406.97 164.88 406.90 164.65 406.84 164.41 406.83 164.17 406.82 163.93 406.87 163.70 406.92 163.46 407.03 163.24 407.13 163.03 407.29 162.84 407.44 162.66 407.63 162.51 407.83 162.37 407.76 162.39 407.70 162.41 408.58 161.51 409.45 160.61 410.62 159.74 411.80 158.87 412.37 157.76 412.95 156.65 412.71 155.50 412.48 154.36 412.23 153.35 411.99 152.34 411.53 150.74 411.08 149.14 410.66 147.93 410.24 146.71 409.71 145.22 409.17 143.74 408.71 142.49 408.26 141.25 409.78 141.75 411.30 142.25 411.02 143.27 410.74 144.30 410.25 145.90 409.76 147.50 409.27 149.51 408.77 151.53 407.53 153.36 406.29 155.20 406.28 155.20 Z" data-drauu_index="19"></path><path fill="#ff595e" d="M 420.00 142.12 Q 420.00 142.12 421.70 141.53 423.40 140.94 424.51 141.08 425.62 141.22 427.57 141.28 429.52 141.34 431.27 141.36 433.01 141.39 434.20 141.41 435.40 141.43 436.57 141.43 437.74 141.43 439.10 141.43 440.46 141.43 442.09 142.83 443.73 144.24 442.44 146.38 441.15 148.53 440.10 149.98 439.05 151.44 438.22 152.75 437.40 154.07 436.88 154.93 436.36 155.79 435.85 156.71 435.35 157.63 434.69 158.66 434.03 159.69 432.38 161.75 430.73 163.81 430.73 163.80 430.72 163.80 430.72 163.79 430.72 163.79 430.40 161.66 430.09 159.54 430.41 158.49 430.73 157.44 431.28 156.58 431.84 155.71 432.39 154.72 432.93 153.72 433.47 152.83 434.01 151.94 434.91 150.52 435.81 149.09 436.87 147.63 437.93 146.17 439.13 144.62 440.34 143.06 440.40 144.25 440.46 145.43 439.10 145.43 437.73 145.43 436.54 145.43 435.35 145.43 434.14 145.41 432.94 145.39 431.17 145.36 429.39 145.33 427.25 145.26 425.10 145.18 423.75 145.00 422.40 144.82 421.20 143.48 420.00 142.14 420.00 142.13 Z" data-drauu_index="20"></path><path fill="#ff595e" d="M 426.65 150.42 Q 426.65 150.42 427.61 149.85 428.57 149.27 429.57 149.51 430.57 149.74 431.75 149.97 432.93 150.20 434.12 150.46 435.31 150.73 436.60 151.16 437.88 151.59 438.93 152.81 439.98 154.02 439.98 154.03 439.98 154.03 439.98 154.04 439.98 154.04 438.14 154.50 436.30 154.96 435.22 154.76 434.14 154.55 432.74 154.25 431.33 153.95 430.23 153.74 429.13 153.53 427.91 153.11 426.68 152.68 426.66 151.56 426.64 150.44 426.65 150.43 Z" data-drauu_index="21"></path><path fill="#ff595e" d="M 461.20 143.36 Q 461.20 143.36 460.47 145.55 459.74 147.73 458.46 148.94 457.19 150.15 456.20 151.17 455.21 152.19 454.54 153.04 453.88 153.89 453.40 155.13 452.93 156.37 452.88 157.82 452.84 159.27 452.83 160.69 452.83 162.11 452.90 163.22 452.97 164.34 453.42 165.41 453.86 166.48 454.39 167.38 454.93 168.28 456.34 168.22 457.75 168.16 458.86 168.03 459.97 167.91 462.04 167.85 464.11 167.79 465.27 167.71 466.42 167.64 467.35 166.61 468.29 165.58 468.78 164.41 469.27 163.24 469.63 160.89 470.00 158.54 470.31 156.99 470.62 155.44 470.97 154.02 471.31 152.59 471.58 151.41 471.85 150.23 470.76 149.60 469.66 148.97 468.61 148.41 467.57 147.85 466.20 147.35 464.84 146.84 463.19 146.09 461.55 145.34 461.54 145.33 461.54 145.33 461.53 145.33 461.53 145.32 463.41 144.12 465.28 142.91 466.26 143.15 467.23 143.40 468.33 143.85 469.43 144.31 470.69 144.95 471.95 145.60 472.95 146.10 473.94 146.59 474.65 147.31 475.35 148.04 475.56 149.54 475.77 151.05 475.48 152.29 475.20 153.53 474.87 154.88 474.54 156.24 474.25 157.69 473.95 159.15 473.73 160.60 473.50 162.05 473.32 163.14 473.14 164.23 472.72 165.43 472.30 166.62 471.72 167.69 471.14 168.75 470.13 169.95 469.12 171.15 467.90 171.39 466.68 171.63 465.45 171.71 464.22 171.79 462.32 171.83 460.42 171.88 459.36 172.00 458.30 172.12 457.06 172.28 455.81 172.44 454.67 172.36 453.52 172.28 452.71 171.60 451.90 170.92 451.20 169.79 450.51 168.66 449.85 167.27 449.19 165.88 449.06 164.80 448.94 163.73 448.88 162.24 448.83 160.75 448.85 159.30 448.86 157.85 449.13 156.06 449.40 154.26 449.92 153.05 450.44 151.85 451.39 150.62 452.34 149.39 453.39 148.32 454.44 147.25 455.65 146.10 456.86 144.95 459.03 144.15 461.19 143.35 461.20 143.36 Z" data-drauu_index="22"></path><path fill="#ff595e" d="M 466.01 319.64 Q 466.01 319.64 466.53 321.82 467.05 324.01 466.32 326.95 465.59 329.89 465.03 332.15 464.47 334.41 464.25 335.89 464.03 337.38 463.93 338.70 463.84 340.02 463.78 341.06 463.72 342.09 463.38 343.10 463.04 344.11 462.99 345.30 462.94 346.48 461.83 346.64 460.72 346.80 461.65 345.76 462.57 344.72 464.10 344.18 465.64 343.65 466.76 343.37 467.88 343.10 468.88 342.85 469.87 342.61 471.21 342.30 472.55 342.00 474.79 341.62 477.03 341.25 478.62 341.04 480.20 340.83 481.25 340.75 482.29 340.66 484.53 341.25 486.78 341.84 486.78 341.85 486.78 341.85 486.79 341.86 486.79 341.86 485.16 343.10 483.53 344.33 482.19 344.55 480.85 344.78 479.25 344.99 477.66 345.20 476.32 345.41 474.97 345.63 473.56 345.91 472.14 346.20 470.48 346.59 468.82 346.99 466.84 347.49 464.86 347.99 464.12 348.78 463.38 349.57 462.07 350.00 460.75 350.42 459.84 348.97 458.93 347.52 458.94 346.19 458.95 344.87 459.34 343.38 459.72 341.89 459.79 340.81 459.85 339.73 459.96 338.25 460.07 336.78 460.33 335.11 460.59 333.44 461.15 331.19 461.71 328.94 462.43 326.02 463.15 323.11 464.57 321.37 465.99 319.63 466.00 319.63 Z" data-drauu_index="23"></path><path fill="#ff595e" d="M 333.41 293.85 Q 333.41 293.85 334.55 293.00 335.68 292.15 336.78 292.30 337.88 292.46 339.60 292.68 341.32 292.91 342.47 293.13 343.63 293.35 344.63 293.48 345.63 293.60 347.91 293.12 350.20 292.63 352.68 292.33 355.15 292.04 357.80 291.91 360.45 291.78 363.23 291.73 366.02 291.68 368.28 291.78 370.53 291.89 371.67 291.93 372.81 291.98 373.97 292.10 375.13 292.22 376.31 292.07 377.50 291.93 378.54 291.84 379.58 291.74 380.75 291.96 381.91 292.19 383.10 292.30 384.29 292.40 385.49 292.42 386.68 292.44 387.74 292.51 388.80 292.59 391.03 292.60 393.25 292.62 394.43 292.62 395.61 292.63 396.86 292.63 398.11 292.63 399.34 292.63 400.58 292.63 401.60 292.71 402.62 292.79 404.63 292.91 406.63 293.04 407.83 293.08 409.04 293.13 410.77 294.20 412.51 295.28 412.51 295.28 412.51 295.28 412.51 295.28 412.52 295.28 412.52 295.28 412.52 295.28 412.52 295.28 412.52 295.28 412.52 295.28 412.52 295.29 412.52 295.29 412.52 295.29 412.52 295.29 412.52 295.29 412.52 295.29 412.52 295.29 412.52 295.29 412.52 295.29 412.52 295.30 412.52 295.30 412.52 295.30 412.51 295.30 412.51 295.30 412.51 295.30 412.51 295.30 412.51 295.30 412.51 295.29 412.51 295.29 412.51 295.28 412.51 295.28 412.51 295.28 412.51 295.28 412.51 295.28 412.52 295.28 412.52 295.28 412.52 295.28 412.52 295.28 412.52 295.28 412.52 295.28 412.52 295.29 412.52 295.29 412.52 295.29 412.52 295.29 412.52 295.29 412.52 295.29 412.52 295.29 412.52 295.29 412.52 295.29 412.52 295.30 412.52 295.30 412.52 295.30 412.51 295.30 412.51 295.30 412.51 295.30 412.51 295.30 412.51 295.30 410.74 296.17 408.98 297.03 407.75 297.04 406.53 297.04 404.62 296.97 402.71 296.91 401.64 296.77 400.57 296.63 399.34 296.63 398.11 296.63 396.85 296.63 395.60 296.63 394.41 296.62 393.23 296.62 391.55 296.61 389.87 296.60 388.86 296.52 387.85 296.45 386.75 296.44 385.65 296.43 384.08 296.37 382.50 296.31 381.37 296.00 380.23 295.70 379.13 295.80 378.02 295.90 376.46 296.05 374.90 296.21 373.78 296.09 372.65 295.97 371.49 295.93 370.34 295.88 368.22 295.78 366.10 295.68 363.37 295.73 360.63 295.78 358.13 295.90 355.62 296.01 353.28 296.29 350.94 296.56 349.57 296.82 348.21 297.07 345.96 297.23 343.70 297.38 342.27 297.13 340.85 296.88 339.17 296.66 337.49 296.44 336.32 296.28 335.15 296.11 334.28 294.99 333.41 293.87 333.41 293.86 Z" data-drauu_index="24"></path><path fill="#8ac926" d="M 343.57 298.09 Q 343.57 298.09 343.91 299.97 344.25 301.85 343.37 304.06 342.49 306.27 341.89 308.16 341.29 310.05 340.76 311.73 340.23 313.41 339.86 314.50 339.50 315.58 338.33 315.72 337.16 315.86 337.44 314.81 337.71 313.76 338.17 312.67 338.63 311.58 339.77 310.20 340.91 308.82 342.27 307.27 343.62 305.72 345.47 303.79 347.31 301.85 350.50 298.83 353.68 295.82 356.13 293.44 358.57 291.07 359.73 289.99 360.90 288.91 361.83 288.16 362.75 287.41 364.15 287.93 365.55 288.46 365.49 290.47 365.44 292.48 364.46 296.21 363.48 299.93 361.60 305.24 359.72 310.55 358.02 315.15 356.32 319.75 355.17 322.97 354.02 326.19 353.38 328.04 352.73 329.89 352.44 331.02 352.14 332.16 352.17 332.35 352.20 332.55 352.14 332.78 352.08 333.02 351.96 333.23 351.84 333.44 351.68 333.62 351.52 333.79 351.31 333.93 351.11 334.06 350.89 334.14 350.66 334.22 350.42 334.24 350.18 334.27 349.94 334.23 349.70 334.20 349.48 334.11 349.25 334.02 349.06 333.88 348.86 333.74 348.71 333.55 348.55 333.37 348.44 333.15 348.34 332.94 348.28 332.70 348.23 332.47 348.24 332.23 348.24 331.99 348.79 330.80 349.33 329.62 350.00 328.70 350.68 327.79 351.67 326.63 352.67 325.46 354.31 323.84 355.94 322.21 358.88 319.75 361.82 317.28 365.33 314.55 368.84 311.82 370.88 310.09 372.93 308.36 373.76 307.55 374.59 306.74 375.15 305.91 375.71 305.07 376.49 303.48 377.28 301.89 378.46 300.29 379.65 298.68 380.37 297.77 381.10 296.85 381.26 296.68 381.42 296.50 381.62 296.36 381.82 296.23 382.05 296.15 382.28 296.06 382.52 296.04 382.76 296.01 382.99 296.04 383.23 296.08 383.46 296.17 383.68 296.25 383.88 296.39 384.07 296.53 384.23 296.72 384.39 296.90 384.50 297.11 384.61 297.33 384.66 297.56 384.72 297.80 384.71 298.04 384.71 298.28 384.65 298.51 384.59 298.75 384.47 298.96 384.36 299.17 383.43 301.38 382.50 303.60 380.43 308.74 378.37 313.87 376.52 318.68 374.67 323.50 373.13 328.38 371.60 333.26 370.72 336.48 369.84 339.70 369.48 341.63 369.12 343.55 368.90 344.85 368.68 346.15 368.70 346.35 368.73 346.55 368.66 346.79 368.60 347.02 368.48 347.23 368.36 347.44 368.19 347.61 368.03 347.79 367.82 347.92 367.62 348.05 367.39 348.13 367.17 348.20 366.93 348.23 366.69 348.25 366.45 348.21 366.21 348.17 365.99 348.08 365.76 347.99 365.57 347.84 365.38 347.70 365.22 347.51 365.07 347.33 364.96 347.11 364.86 346.89 364.81 346.66 364.76 346.42 364.77 346.18 364.78 345.94 365.21 344.94 365.64 343.93 366.43 342.31 367.23 340.68 368.09 339.36 368.95 338.04 369.68 336.82 370.41 335.59 371.70 333.41 373.00 331.24 373.95 329.58 374.91 327.91 375.43 326.90 375.95 325.88 376.68 324.05 377.40 322.22 377.97 320.62 378.53 319.02 379.03 317.94 379.53 316.85 380.25 315.37 380.98 313.89 381.67 312.59 382.37 311.29 382.83 310.24 383.30 309.19 384.04 308.22 384.78 307.25 385.60 306.36 386.41 305.48 387.24 304.59 388.06 303.70 389.04 302.77 390.03 301.84 390.94 301.31 391.85 300.78 393.35 299.50 394.86 298.23 397.00 296.83 399.15 295.44 400.13 294.82 401.11 294.20 402.18 293.82 403.25 293.44 404.48 294.14 405.71 294.85 405.70 296.90 405.69 298.96 404.67 301.85 403.65 304.74 401.27 310.24 398.89 315.73 396.56 320.69 394.24 325.66 391.60 331.25 388.96 336.84 387.25 340.50 385.53 344.16 384.73 346.03 383.94 347.90 383.62 348.89 383.31 349.88 383.31 350.90 383.30 351.91 383.32 353.01 383.33 354.11 383.26 355.49 383.19 356.86 383.15 357.95 383.11 359.04 383.10 359.51 383.09 359.98 383.06 360.22 383.02 360.45 382.93 360.68 382.84 360.90 382.70 361.10 382.56 361.29 382.38 361.45 382.20 361.61 381.98 361.71 381.77 361.82 381.53 361.88 381.30 361.93 381.05 361.93 380.81 361.92 380.58 361.86 380.35 361.80 380.14 361.68 379.93 361.56 379.75 361.40 379.57 361.24 379.44 361.04 379.30 360.84 379.22 360.61 379.14 360.38 379.12 360.14 379.09 359.90 379.61 357.36 380.13 354.83 380.62 351.44 381.11 348.05 381.49 345.06 381.87 342.08 382.37 339.48 382.88 336.88 383.54 334.92 384.20 332.97 384.72 331.66 385.25 330.35 385.72 329.30 386.19 328.24 386.75 327.25 387.30 326.26 387.95 324.82 388.59 323.37 389.45 321.67 390.31 319.97 391.40 317.95 392.48 315.93 393.43 314.51 394.37 313.09 395.60 311.64 396.84 310.19 397.87 308.99 398.91 307.78 399.76 306.83 400.61 305.88 402.66 304.29 404.72 302.69 405.54 302.12 406.36 301.54 408.23 301.32 410.11 301.11 410.94 302.39 411.76 303.68 412.00 305.11 412.23 306.54 412.31 308.70 412.39 310.87 412.34 313.09 412.29 315.31 411.91 318.67 411.53 322.04 410.82 325.61 410.11 329.17 409.27 332.37 408.43 335.58 407.94 337.28 407.45 338.99 407.17 340.14 406.89 341.30 406.65 342.67 406.41 344.04 406.28 345.05 406.15 346.05 406.07 347.44 406.00 348.82 405.97 349.82 405.94 350.82 405.86 352.45 405.77 354.07 405.84 355.12 405.90 356.18 406.28 358.17 406.67 360.15 406.99 362.89 407.32 365.62 407.53 367.19 407.74 368.77 407.75 369.78 407.76 370.80 407.66 370.72 407.57 370.65 407.57 370.89 407.57 371.13 407.51 371.37 407.46 371.60 407.35 371.81 407.23 372.03 407.08 372.21 406.92 372.39 406.72 372.53 406.52 372.66 406.29 372.75 406.07 372.84 405.83 372.87 405.59 372.90 405.35 372.87 405.11 372.84 404.89 372.76 404.66 372.67 404.46 372.53 404.26 372.40 404.10 372.22 403.94 372.04 403.83 371.82 403.72 371.61 403.66 371.38 403.60 371.14 402.97 370.25 402.34 369.35 401.89 367.89 401.44 366.43 400.84 364.69 400.24 362.95 399.51 361.64 398.78 360.32 397.65 358.13 396.53 355.93 395.81 354.52 395.09 353.11 394.53 351.98 393.97 350.86 393.24 349.61 392.51 348.35 390.42 346.56 388.33 344.77 386.04 343.05 383.74 341.33 382.27 340.27 380.80 339.20 379.46 338.31 378.12 337.41 377.26 336.71 376.41 336.01 374.96 334.91 373.51 333.82 370.88 331.89 368.25 329.97 364.75 327.91 361.25 325.85 356.94 323.82 352.63 321.80 350.43 320.79 348.22 319.78 347.12 319.22 346.03 318.66 344.87 317.84 343.72 317.03 342.89 315.71 342.07 314.38 341.66 313.68 341.25 312.97 341.12 312.77 340.98 312.58 340.90 312.35 340.81 312.13 340.78 311.89 340.75 311.65 340.78 311.41 340.81 311.17 340.90 310.94 340.98 310.72 341.12 310.52 341.26 310.32 341.44 310.16 341.62 310.00 341.83 309.89 342.04 309.78 342.28 309.72 342.51 309.66 342.75 309.66 342.99 309.66 343.23 309.72 343.46 309.78 343.68 309.89 343.89 310.00 344.07 310.16 344.25 310.32 346.10 310.78 347.94 311.23 349.25 311.85 350.55 312.46 351.74 313.14 352.93 313.82 354.18 314.88 355.43 315.94 357.07 317.57 358.70 319.20 361.39 321.53 364.08 323.87 367.71 327.15 371.33 330.44 374.59 333.21 377.85 335.98 380.60 338.07 383.35 340.15 384.81 341.20 386.27 342.24 387.47 342.95 388.66 343.65 389.66 344.20 390.65 344.75 389.11 339.80 387.57 334.85 386.80 329.26 386.02 323.67 385.69 318.61 385.35 313.55 385.22 310.66 385.08 307.77 385.02 306.37 384.96 304.98 384.81 304.07 384.67 303.17 384.64 302.93 384.61 302.69 384.65 302.45 384.68 302.21 384.77 301.98 384.86 301.76 385.00 301.56 385.14 301.37 385.32 301.21 385.50 301.05 385.72 300.94 385.93 300.83 386.17 300.78 386.40 300.73 386.64 300.73 386.88 300.73 387.12 300.79 387.35 300.85 387.56 300.97 387.77 301.08 387.95 301.25 388.13 301.41 388.26 301.61 388.40 301.81 388.48 302.04 388.56 302.26 391.18 304.38 393.80 306.51 396.22 308.84 398.64 311.18 400.94 313.28 403.25 315.37 404.53 316.65 405.82 317.93 406.82 318.95 407.81 319.96 408.03 320.22 408.25 320.48 408.40 320.66 408.56 320.84 408.67 321.06 408.78 321.27 408.83 321.51 408.88 321.74 408.88 321.98 408.88 322.23 408.81 322.46 408.75 322.69 408.64 322.90 408.52 323.11 408.36 323.29 408.19 323.47 407.99 323.60 407.79 323.74 407.57 323.82 407.34 323.90 407.10 323.92 406.86 323.95 406.62 323.91 406.38 323.88 406.16 323.79 405.93 323.70 405.74 323.56 405.54 323.42 404.19 322.66 402.84 321.90 400.45 319.93 398.06 317.96 396.33 316.39 394.60 314.83 393.30 312.50 392.01 310.18 392.01 310.17 392.01 310.17 392.02 310.17 392.02 310.16 394.65 311.01 397.28 311.86 398.95 313.37 400.62 314.88 402.78 316.69 404.94 318.50 406.60 319.49 408.25 320.48 408.40 320.66 408.56 320.84 408.67 321.06 408.78 321.27 408.83 321.51 408.88 321.74 408.88 321.98 408.88 322.22 408.81 322.46 408.75 322.69 408.64 322.90 408.52 323.11 408.36 323.29 408.19 323.47 407.99 323.60 407.79 323.74 407.57 323.82 407.34 323.90 407.10 323.92 406.86 323.95 406.62 323.91 406.38 323.88 406.16 323.79 405.93 323.70 405.74 323.56 405.54 323.42 405.32 323.16 405.11 322.91 404.06 321.84 403.00 320.77 401.78 319.55 400.55 318.33 398.21 316.19 395.86 314.05 393.49 311.77 391.12 309.48 389.16 307.70 387.19 305.93 385.93 304.55 384.67 303.17 384.64 302.93 384.61 302.69 384.65 302.45 384.68 302.21 384.77 301.98 384.86 301.76 385.00 301.56 385.14 301.37 385.32 301.21 385.50 301.05 385.72 300.94 385.93 300.83 386.17 300.78 386.40 300.73 386.64 300.73 386.88 300.73 387.12 300.79 387.35 300.85 387.56 300.97 387.77 301.08 387.95 301.25 388.13 301.41 388.26 301.61 388.40 301.81 388.48 302.04 388.56 302.26 388.64 302.43 388.72 302.60 388.84 303.70 388.95 304.81 389.01 306.19 389.07 307.57 389.21 310.43 389.35 313.28 389.67 318.20 389.99 323.12 390.75 328.65 391.51 334.18 392.37 339.23 393.22 344.28 393.12 346.19 393.02 348.11 391.79 348.62 390.55 349.13 389.64 348.70 388.73 348.26 387.79 347.74 386.84 347.21 385.39 346.35 383.94 345.49 382.44 344.41 380.93 343.34 378.09 341.18 375.26 339.03 371.95 336.22 368.65 333.40 365.05 330.15 361.45 326.89 358.66 324.46 355.87 322.03 354.29 320.45 352.71 318.87 351.72 318.01 350.73 317.16 349.78 316.62 348.83 316.07 347.72 315.54 346.61 315.00 345.28 314.53 343.96 314.06 342.61 313.52 341.25 312.97 341.12 312.78 340.98 312.58 340.90 312.35 340.81 312.13 340.78 311.89 340.75 311.65 340.78 311.41 340.81 311.17 340.90 310.94 340.98 310.72 341.12 310.52 341.26 310.32 341.44 310.16 341.62 310.00 341.83 309.89 342.04 309.78 342.28 309.72 342.51 309.66 342.75 309.66 342.99 309.66 343.23 309.72 343.46 309.78 343.68 309.89 343.89 310.00 344.07 310.16 344.25 310.32 344.35 310.55 344.44 310.77 345.25 312.04 346.05 313.31 346.96 314.20 347.87 315.10 348.87 315.62 349.88 316.15 352.11 317.16 354.34 318.18 358.81 320.29 363.29 322.40 366.95 324.57 370.61 326.74 373.27 328.68 375.92 330.63 377.44 331.78 378.97 332.93 380.18 333.86 381.39 334.79 382.27 335.38 383.15 335.96 384.65 337.05 386.14 338.13 388.56 339.95 390.97 341.76 393.66 344.30 396.35 346.85 396.92 347.91 397.49 348.96 398.07 350.13 398.65 351.29 399.37 352.70 400.08 354.10 401.19 356.26 402.30 358.42 403.16 360.04 404.02 361.66 404.49 362.98 404.95 364.31 405.31 365.39 405.67 366.48 406.08 367.72 406.48 368.97 407.02 369.81 407.57 370.65 407.57 370.89 407.57 371.13 407.51 371.37 407.46 371.60 407.35 371.81 407.23 372.03 407.08 372.21 406.92 372.39 406.72 372.53 406.52 372.66 406.29 372.75 406.07 372.84 405.83 372.87 405.59 372.90 405.35 372.87 405.11 372.84 404.89 372.76 404.66 372.67 404.46 372.53 404.26 372.40 404.10 372.22 403.94 372.04 403.83 371.82 403.72 371.61 403.66 371.38 403.60 371.14 403.69 370.22 403.78 369.30 403.56 367.70 403.35 366.09 403.04 363.50 402.74 360.91 402.28 358.52 401.82 356.14 401.82 354.77 401.82 353.41 401.96 352.31 402.09 351.22 402.05 349.95 402.00 348.68 402.09 347.11 402.18 345.53 402.33 344.44 402.47 343.36 402.74 341.86 403.01 340.36 403.31 339.12 403.61 337.88 404.09 336.22 404.56 334.56 405.38 331.47 406.19 328.39 406.87 324.99 407.55 321.58 407.92 318.40 408.29 315.21 408.34 313.11 408.39 311.00 408.33 309.05 408.27 307.09 408.46 305.96 408.66 304.82 407.84 305.39 407.02 305.97 405.30 307.26 403.58 308.55 402.76 309.47 401.94 310.39 400.91 311.59 399.87 312.79 398.78 314.05 397.70 315.31 396.85 316.57 396.00 317.83 394.94 319.80 393.88 321.77 393.06 323.40 392.24 325.02 391.04 327.45 389.84 329.88 389.40 330.86 388.96 331.84 388.47 333.05 387.98 334.26 387.39 335.96 386.80 337.65 386.32 340.12 385.84 342.58 385.45 345.60 385.06 348.62 384.57 352.02 384.08 355.43 383.59 357.70 383.09 359.98 383.06 360.22 383.02 360.45 382.93 360.68 382.85 360.90 382.70 361.10 382.56 361.29 382.38 361.45 382.20 361.61 381.98 361.71 381.77 361.82 381.53 361.88 381.30 361.93 381.06 361.93 380.81 361.92 380.58 361.86 380.35 361.80 380.14 361.68 379.93 361.57 379.75 361.40 379.57 361.24 379.44 361.04 379.30 360.84 379.22 360.61 379.14 360.38 379.12 360.14 379.09 359.90 379.10 359.41 379.11 358.92 379.15 357.78 379.20 356.65 379.27 355.41 379.33 354.17 379.32 353.14 379.30 352.12 379.40 350.40 379.50 348.68 379.88 347.51 380.26 346.33 381.08 344.40 381.91 342.46 383.63 338.80 385.34 335.13 387.98 329.55 390.61 323.96 392.92 319.05 395.22 314.14 397.55 308.77 399.88 303.40 401.56 300.49 403.24 297.58 402.28 298.19 401.32 298.80 399.39 300.03 397.46 301.27 396.51 302.08 395.55 302.90 394.04 303.93 392.53 304.96 391.70 305.76 390.87 306.56 389.73 307.73 388.59 308.91 387.65 310.13 386.70 311.36 386.22 312.40 385.74 313.44 385.15 314.54 384.57 315.64 383.87 317.08 383.17 318.52 382.71 319.52 382.25 320.51 381.69 322.08 381.14 323.66 380.75 324.67 380.36 325.69 379.93 326.69 379.51 327.70 378.95 328.80 378.38 329.91 377.41 331.60 376.44 333.28 375.14 335.46 373.85 337.64 373.07 338.94 372.29 340.24 371.15 342.16 370.01 344.08 369.37 345.32 368.73 346.55 368.66 346.79 368.60 347.02 368.48 347.23 368.36 347.44 368.19 347.61 368.03 347.79 367.83 347.92 367.62 348.05 367.39 348.13 367.17 348.20 366.93 348.23 366.69 348.25 366.45 348.21 366.21 348.17 365.99 348.08 365.76 347.99 365.57 347.84 365.38 347.70 365.22 347.51 365.07 347.33 364.96 347.11 364.86 346.89 364.81 346.66 364.76 346.42 364.77 346.18 364.78 345.94 364.75 345.77 364.72 345.59 364.96 344.20 365.19 342.81 365.59 340.73 365.99 338.65 366.89 335.36 367.79 332.07 369.36 327.06 370.93 322.06 372.80 317.22 374.66 312.38 376.75 307.18 378.84 301.98 379.97 299.42 381.10 296.86 381.26 296.68 381.42 296.50 381.62 296.36 381.82 296.23 382.05 296.15 382.28 296.06 382.52 296.04 382.76 296.01 382.99 296.04 383.23 296.08 383.46 296.17 383.68 296.25 383.88 296.39 384.07 296.53 384.23 296.72 384.39 296.90 384.50 297.11 384.61 297.33 384.66 297.56 384.72 297.80 384.71 298.04 384.71 298.28 384.65 298.51 384.59 298.75 384.47 298.96 384.36 299.17 383.60 300.13 382.85 301.08 381.85 302.39 380.85 303.70 379.92 305.52 379.00 307.34 378.19 308.47 377.38 309.61 376.45 310.51 375.51 311.41 373.40 313.19 371.30 314.97 367.84 317.66 364.39 320.35 361.57 322.70 358.76 325.05 357.23 326.56 355.70 328.07 354.79 329.13 353.87 330.20 353.04 331.37 352.20 332.55 352.14 332.78 352.08 333.02 351.96 333.23 351.84 333.44 351.68 333.62 351.52 333.79 351.31 333.93 351.11 334.06 350.89 334.14 350.66 334.22 350.42 334.24 350.18 334.27 349.94 334.23 349.70 334.20 349.48 334.11 349.25 334.02 349.06 333.88 348.86 333.74 348.71 333.55 348.55 333.37 348.44 333.15 348.34 332.94 348.28 332.70 348.23 332.47 348.24 332.23 348.24 331.99 348.21 331.81 348.18 331.64 348.57 330.11 348.95 328.57 349.60 326.71 350.26 324.85 351.41 321.60 352.57 318.36 354.26 313.79 355.95 309.22 357.78 304.06 359.61 298.91 360.76 294.50 361.92 290.09 362.77 290.96 363.62 291.84 362.49 292.89 361.35 293.94 358.89 296.33 356.43 298.72 353.32 301.67 350.21 304.62 348.42 306.49 346.63 308.35 345.28 309.90 343.93 311.44 343.10 312.33 342.27 313.22 341.87 314.19 341.46 315.15 340.98 316.35 340.51 317.55 339.74 318.44 338.97 319.32 337.43 319.13 335.89 318.94 335.55 317.67 335.21 316.40 335.46 315.35 335.71 314.30 336.06 313.26 336.42 312.22 336.95 310.52 337.48 308.83 338.13 306.82 338.78 304.80 339.65 302.60 340.52 300.41 342.03 299.25 343.55 298.08 343.56 298.09 Z" data-drauu_index="25"></path><path fill="#8ac926" d="M 547.01 521.70 Q 547.01 521.70 547.01 521.70 547.00 521.71 547.00 521.71 547.00 521.72 547.00 521.71 Z" data-drauu_index="26"></path><path fill="#8ac926" d="M 456.41 434.32 Q 456.41 434.32 456.42 434.32 456.42 434.32 456.43 434.32 456.43 434.32 456.42 434.32 Z" data-drauu_index="27"></path><path fill="#8ac926" d="M 878.40 335.36 Q 878.40 335.36 878.39 335.36 878.39 335.36 878.39 335.37 878.38 335.37 878.39 335.36 Z" data-drauu_index="28"></path>
</svg>