<svg xmlns="http://www.w3.org/2000/svg" xmlns:xlink="http://www.w3.org/1999/xlink" width="980" height="551"><path fill="#ff595e" d="M 247.86 43.23 Q 247.86 43.23 248.62 47.04 249.38 50.85 249.04 54.35 248.71 57.86 248.57 61.85 248.43 65.84 248.37 68.72 248.31 71.60 248.29 74.46 248.26 77.32 248.25 79.71 248.24 82.09 248.23 84.51 248.23 86.93 248.46 89.27 248.69 91.61 248.79 93.63 248.89 95.65 248.93 98.63 248.98 101.62 248.99 104.05 249.01 106.48 249.02 108.45 249.03 110.42 249.03 111.73 249.03 113.04 249.03 116.17 249.04 119.31 249.04 122.05 249.04 124.78 249.04 126.18 249.04 127.58 249.04 128.66 249.04 129.74 249.27 132.75 249.50 135.76 249.82 137.37 250.14 138.98 250.30 141.48 250.46 143.97 250.52 145.46 250.58 146.96 250.62 148.68 250.65 150.40 251.11 152.94 251.57 155.48 252.22 157.95 252.87 160.42 253.87 164.82 254.87 169.22 255.52 172.01 256.17 174.80 256.70 178.17 257.23 181.54 257.45 183.45 257.67 185.35 257.77 186.91 257.87 188.46 258.13 189.92 258.39 191.39 258.51 192.59 258.64 193.80 258.69 195.05 258.75 196.29 259.22 198.77 259.69 201.24 260.36 203.94 261.02 206.63 261.55 209.00 262.08 211.36 262.32 213.14 262.55 214.93 263.11 218.44 263.67 221.94 263.92 223.95 264.16 225.96 264.27 227.31 264.37 228.66 264.44 230.06 264.50 231.47 264.51 232.88 264.52 234.29 264.53 235.74 264.53 237.20 264.53 239.44 264.53 241.67 264.53 242.99 264.53 244.30 264.29 246.16 264.04 248.02 263.95 249.40 263.86 250.77 263.82 252.05 263.78 253.33 263.72 254.46 263.66 255.60 264.81 256.60 265.96 257.60 266.93 258.30 267.89 259.00 268.87 259.85 269.85 260.70 270.74 261.85 271.63 263.00 272.37 264.13 273.10 265.26 274.54 266.66 275.98 268.06 277.18 269.27 278.37 270.47 279.34 270.83 280.31 271.19 281.34 271.57 282.37 271.96 284.82 272.20 287.27 272.44 289.75 272.53 292.22 272.63 294.47 272.67 296.72 272.71 299.78 272.73 302.84 272.75 306.02 272.75 309.20 272.76 311.25 272.76 313.30 272.77 314.88 272.77 316.46 272.77 318.30 272.77 320.14 272.77 321.16 272.77 322.17 272.77 323.26 272.77 324.34 272.77 325.45 272.77 326.56 272.77 329.08 272.32 331.59 271.86 333.64 271.44 335.69 271.01 338.58 270.81 341.48 270.60 343.38 270.52 345.28 270.44 347.04 270.41 348.79 270.38 350.01 270.36 351.22 270.35 353.85 270.34 356.49 270.34 358.54 270.33 360.59 270.33 362.87 270.33 365.15 270.33 366.59 270.33 368.02 270.33 369.57 270.33 371.12 270.33 372.72 270.33 374.31 270.33 375.69 270.33 377.08 270.33 378.84 270.33 380.59 270.33 382.05 270.33 383.50 270.33 385.18 270.33 386.86 270.33 388.15 270.33 389.44 270.33 390.69 270.33 391.94 270.33 394.35 270.33 396.76 270.33 402.74 270.56 408.73 270.80 411.95 270.90 415.17 271.00 418.93 271.27 422.69 271.55 424.95 271.67 427.21 271.79 428.86 271.83 430.51 271.88 432.15 271.90 433.78 271.93 436.11 271.93 438.44 271.94 439.91 271.95 441.37 271.95 442.87 272.20 444.36 272.45 445.98 272.54 447.60 272.63 449.71 272.67 451.81 272.71 452.95 272.73 454.10 272.75 457.32 272.76 460.54 272.77 461.74 272.77 462.94 272.77 463.97 272.55 465.00 272.34 466.33 272.18 467.66 272.02 468.99 272.01 470.31 271.99 471.33 271.38 472.34 270.77 473.28 270.08 474.21 269.39 474.94 268.64 475.67 267.88 476.59 266.54 477.52 265.19 479.65 261.69 481.78 258.19 483.24 256.25 484.70 254.30 485.96 252.39 487.23 250.48 487.99 249.21 488.76 247.95 489.27 246.79 489.78 245.64 490.76 243.86 491.74 242.09 492.32 240.55 492.90 239.01 493.84 235.36 494.78 231.72 495.42 228.97 496.06 226.23 496.32 223.32 496.57 220.40 496.68 217.28 496.80 214.16 496.85 211.19 496.90 208.23 496.92 205.09 496.94 201.96 496.48 196.25 496.02 190.55 495.83 186.18 495.63 181.80 495.54 176.89 495.46 171.97 495.66 168.64 495.86 165.31 496.66 160.77 497.47 156.23 498.27 152.21 499.08 148.20 499.41 144.50 499.73 140.80 499.87 134.10 500.02 127.39 500.31 120.74 500.61 114.08 500.73 109.87 500.86 105.67 501.15 102.18 501.44 98.69 501.56 96.78 501.68 94.87 501.73 93.14 501.78 91.42 501.81 89.75 501.83 88.09 501.37 83.02 500.92 77.95 500.49 74.38 500.06 70.80 499.19 66.54 498.32 62.28 497.71 59.76 497.11 57.24 496.83 54.87 496.55 52.50 496.23 51.19 495.90 49.88 494.63 46.59 493.35 43.30 491.94 41.08 490.52 38.86 487.90 36.12 485.27 33.39 483.22 31.50 481.16 29.62 478.93 27.92 476.70 26.22 475.22 24.97 473.73 23.73 472.56 23.08 471.39 22.43 470.10 21.62 468.80 20.82 467.50 20.33 466.19 19.84 463.86 19.42 461.53 18.99 458.94 18.80 456.35 18.61 450.21 19.23 444.08 19.84 439.01 20.11 433.94 20.38 429.43 20.49 424.92 20.60 419.02 20.65 413.11 20.70 408.63 20.24 404.14 19.79 400.84 19.36 397.55 18.93 392.51 18.76 387.46 18.59 382.95 18.51 378.44 18.43 375.12 18.40 371.79 18.37 368.10 18.59 364.41 18.81 359.88 19.59 355.34 20.37 353.11 20.72 350.89 21.06 348.94 21.21 346.99 21.36 345.21 21.43 343.43 21.49 341.98 21.52 340.52 21.54 338.72 21.55 336.93 21.56 334.87 21.80 332.80 22.03 328.14 22.60 323.49 23.17 320.11 23.64 316.74 24.12 313.98 24.77 311.22 25.43 309.23 25.73 307.23 26.03 305.80 26.37 304.36 26.71 301.85 27.33 299.34 27.94 296.40 28.68 293.46 29.41 291.27 29.95 289.08 30.50 287.60 30.75 286.12 30.99 284.65 31.31 283.18 31.63 282.09 32.15 281.00 32.67 279.59 33.21 278.18 33.75 277.23 34.17 276.28 34.58 274.81 35.89 273.35 37.19 272.00 38.09 270.64 38.99 268.29 40.15 265.94 41.31 264.52 42.35 263.11 43.38 262.25 44.64 261.40 45.90 260.25 46.69 259.10 47.48 257.84 48.36 256.57 49.25 255.77 49.87 254.96 50.49 253.88 51.53 252.80 52.56 251.41 53.66 250.03 54.76 249.28 55.74 248.53 56.72 248.53 56.72 248.52 56.73 248.52 56.73 248.51 56.73 248.13 54.12 247.76 51.51 248.89 50.60 250.02 49.68 251.30 48.58 252.57 47.48 253.64 46.61 254.71 45.74 255.88 44.90 257.04 44.07 257.98 43.42 258.92 42.78 259.62 41.59 260.32 40.41 261.32 39.79 262.33 39.17 263.23 38.46 264.14 37.75 266.56 36.55 268.97 35.35 269.95 34.68 270.93 34.00 271.81 33.34 272.70 32.68 273.64 31.83 274.58 30.98 275.65 30.50 276.71 30.03 278.57 29.37 280.44 28.70 281.36 28.22 282.28 27.74 283.87 27.40 285.47 27.05 286.79 26.83 288.11 26.62 290.30 26.07 292.49 25.53 295.44 24.79 298.39 24.06 300.92 23.44 303.45 22.82 305.05 22.44 306.64 22.07 308.47 21.80 310.31 21.53 313.24 20.85 316.18 20.16 319.59 19.68 323.00 19.20 327.68 18.63 332.36 18.05 334.63 17.81 336.90 17.56 338.67 17.55 340.45 17.54 341.87 17.52 343.29 17.49 344.99 17.43 346.68 17.37 348.48 17.24 350.28 17.10 352.47 16.77 354.66 16.43 359.42 15.62 364.17 14.81 368.00 14.59 371.83 14.37 375.17 14.40 378.51 14.43 383.05 14.51 387.60 14.59 392.83 14.78 398.07 14.96 401.31 15.39 404.55 15.81 408.81 16.25 413.08 16.70 418.95 16.65 424.82 16.60 429.28 16.49 433.73 16.38 438.71 16.12 443.69 15.86 450.16 15.24 456.64 14.62 459.46 14.84 462.27 15.06 464.95 15.58 467.62 16.11 469.26 16.76 470.91 17.42 472.14 18.18 473.37 18.95 474.84 19.81 476.30 20.66 477.71 21.85 479.13 23.04 481.49 24.85 483.86 26.67 486.02 28.65 488.17 30.63 491.04 33.68 493.90 36.72 495.49 39.28 497.07 41.85 498.43 45.39 499.79 48.94 500.16 50.49 500.52 52.04 500.76 54.17 501.00 56.31 501.62 58.90 502.24 61.48 503.14 65.90 504.04 70.33 504.47 73.96 504.90 77.59 505.36 82.87 505.83 88.14 505.80 89.84 505.78 91.54 505.73 93.33 505.68 95.12 505.55 97.07 505.43 99.02 505.14 102.40 504.86 105.78 504.73 110.02 504.61 114.26 504.31 120.87 504.01 127.48 503.87 134.32 503.72 141.16 503.36 145.07 503.00 148.99 502.20 152.96 501.40 156.93 500.63 161.24 499.85 165.56 499.66 168.73 499.46 171.90 499.54 176.76 499.62 181.62 499.82 185.93 500.01 190.23 500.47 196.10 500.94 201.98 500.92 205.14 500.89 208.29 500.84 211.30 500.79 214.31 500.67 217.54 500.55 220.76 500.26 223.95 499.96 227.14 499.30 229.93 498.65 232.72 497.64 236.58 496.64 240.44 495.94 242.23 495.25 244.02 494.34 245.65 493.43 247.29 492.80 248.65 492.18 250.01 491.37 251.35 490.56 252.69 489.23 254.70 487.89 256.71 486.55 258.48 485.21 260.26 483.55 262.99 481.90 265.73 481.29 266.69 480.68 267.65 479.82 269.21 478.95 270.76 477.75 271.70 476.54 272.64 475.34 273.49 474.14 274.34 472.34 275.14 470.54 275.95 469.22 275.98 467.91 276.02 466.83 276.14 465.75 276.27 464.35 276.52 462.95 276.77 461.74 276.77 460.53 276.77 457.28 276.76 454.03 276.75 452.88 276.73 451.73 276.71 449.55 276.66 447.37 276.62 445.52 276.51 443.67 276.39 442.51 276.17 441.35 275.95 439.89 275.95 438.43 275.94 436.08 275.93 433.73 275.93 432.06 275.90 430.40 275.88 428.70 275.83 427.01 275.78 424.70 275.66 422.39 275.54 418.72 275.27 415.05 274.99 411.81 274.89 408.57 274.79 402.66 274.56 396.76 274.33 394.35 274.33 391.94 274.33 390.69 274.33 389.44 274.33 388.15 274.33 386.86 274.33 385.18 274.33 383.50 274.33 382.05 274.33 380.59 274.33 378.84 274.33 377.08 274.33 375.69 274.33 374.31 274.33 372.72 274.33 371.12 274.33 369.57 274.33 368.03 274.33 366.59 274.33 365.15 274.33 362.87 274.33 360.60 274.33 358.55 274.33 356.49 274.34 353.88 274.34 351.27 274.35 350.07 274.36 348.87 274.38 347.16 274.41 345.45 274.44 343.60 274.52 341.75 274.59 339.12 274.76 336.50 274.93 334.39 275.37 332.28 275.80 329.43 276.29 326.57 276.77 325.46 276.77 324.34 276.77 323.26 276.77 322.17 276.77 321.16 276.77 320.14 276.77 318.30 276.77 316.45 276.77 314.88 276.77 313.30 276.77 311.24 276.76 309.19 276.76 306.00 276.75 302.82 276.75 299.73 276.73 296.64 276.71 294.36 276.67 292.07 276.62 289.39 276.51 286.71 276.40 285.19 276.18 283.67 275.95 282.35 275.85 281.02 275.74 279.94 275.37 278.85 274.99 277.93 274.55 277.00 274.11 275.89 273.12 274.78 272.14 273.27 270.64 271.75 269.13 270.90 268.48 270.04 267.82 269.30 266.70 268.56 265.57 267.88 264.63 267.20 263.69 266.37 262.96 265.54 262.24 264.44 261.44 263.35 260.63 262.42 259.79 261.50 258.95 260.64 257.47 259.79 255.99 259.78 254.59 259.78 253.20 259.82 251.85 259.87 250.49 259.97 248.99 260.08 247.49 260.30 245.89 260.53 244.29 260.53 242.98 260.53 241.67 260.53 239.44 260.53 237.20 260.53 235.75 260.52 234.31 260.51 232.95 260.50 231.60 260.44 230.28 260.38 228.97 260.29 227.71 260.19 226.44 259.96 224.51 259.72 222.57 259.15 219.01 258.59 215.45 258.38 213.84 258.17 212.23 257.66 209.91 257.14 207.59 256.45 204.78 255.76 201.98 255.26 199.22 254.75 196.47 254.71 195.34 254.66 194.21 254.55 193.14 254.45 192.07 254.16 190.39 253.87 188.71 253.79 187.26 253.70 185.82 253.49 183.98 253.27 182.15 252.77 178.93 252.28 175.71 251.62 172.91 250.96 170.11 249.99 165.77 249.01 161.44 248.32 158.80 247.63 156.17 247.14 153.31 246.65 150.46 246.62 148.79 246.58 147.12 246.52 145.66 246.46 144.21 246.34 141.98 246.21 139.75 245.86 137.95 245.52 136.16 245.28 132.95 245.04 129.74 245.04 128.66 245.04 127.58 245.04 126.18 245.04 124.79 245.04 122.05 245.04 119.31 245.03 116.18 245.03 113.05 245.03 111.74 245.03 110.44 245.02 108.47 245.01 106.51 244.99 104.09 244.98 101.67 244.94 98.76 244.89 95.85 244.80 93.92 244.70 91.99 244.47 89.46 244.23 86.93 244.23 84.50 244.24 82.08 244.25 79.68 244.26 77.28 244.29 74.40 244.31 71.52 244.37 68.61 244.43 65.70 244.58 61.59 244.73 57.47 245.06 54.04 245.39 50.60 246.62 46.91 247.84 43.22 247.85 43.22 Z" data-drauu_index="0"/></svg>