<svg xmlns="http://www.w3.org/2000/svg" xmlns:xlink="http://www.w3.org/1999/xlink" viewBox="0,0,256,256" width="480px" height="480px" fill-rule="nonzero"><g fill="#ffffff" fill-rule="nonzero" stroke="none" stroke-width="1" stroke-linecap="butt" stroke-linejoin="miter" stroke-miterlimit="10" stroke-dasharray="" stroke-dashoffset="0" font-family="none" font-weight="none" font-size="none" text-anchor="none" style="mix-blend-mode: normal"><path d="M64,256c-35.34622,0 -64,-28.65378 -64,-64v-128c0,-35.34622 28.65378,-64 64,-64h128c35.34622,0 64,28.65378 64,64v128c0,35.34622 -28.65378,64 -64,64z" id="shape"></path></g><g fill="none" fill-rule="nonzero" stroke="none" stroke-width="1" stroke-linecap="butt" stroke-linejoin="miter" stroke-miterlimit="10" stroke-dasharray="" stroke-dashoffset="0" font-family="none" font-weight="none" font-size="none" text-anchor="none" style="mix-blend-mode: normal"><g transform="scale(5.33333,5.33333)"><path d="M16,39.609l7,4v-39.609l-7,4z" fill="#ffa000"></path><path d="M23,12.433l-17,9.817v-8.5l17,-9.817z" fill="#ffa000"></path><path d="M32,39.609l-7,4v-39.609l7,4z" fill="#ffb300"></path><path d="M25,12.433l17,9.817v-8.5l-17,-9.817z" fill="#ffb300"></path><path d="M29,19.732v7.633l7,4.042v-7.632z" fill="#ffb300"></path></g></g></svg>