<svg width="980" height="551" xmlns="http://www.w3.org/2000/svg" xmlns:xlink="http://www.w3.org/1999/xlink">
<path fill="#8ac926" d="M 671.46 431.17 Q 671.46 431.17 668.72 432.85 665.98 434.53 663.88 434.25 661.77 433.97 658.36 433.52 654.95 433.08 652.48 432.73 650.00 432.39 645.16 431.38 640.31 430.37 635.71 429.67 631.11 428.97 623.50 428.06 615.89 427.15 609.08 426.34 602.27 425.53 591.14 424.01 580.02 422.49 572.51 421.62 565.00 420.76 556.27 419.85 547.54 418.95 541.15 418.42 534.77 417.89 528.45 417.55 522.14 417.20 517.59 416.99 513.03 416.78 507.47 416.69 501.90 416.61 497.77 416.57 493.63 416.53 488.83 416.40 484.03 416.26 480.02 416.14 476.02 416.02 470.89 415.84 465.77 415.66 462.04 415.53 458.32 415.39 454.63 415.28 450.94 415.17 447.74 415.12 444.55 415.08 439.76 414.99 434.98 414.91 431.11 414.68 427.24 414.46 421.37 414.23 415.51 414.00 411.32 413.78 407.13 413.56 403.95 413.29 400.76 413.02 395.91 412.85 391.05 412.68 385.72 412.43 380.39 412.17 376.66 411.94 372.93 411.72 370.05 411.63 367.17 411.53 362.65 411.31 358.13 411.10 354.55 410.88 350.97 410.67 345.87 410.45 340.76 410.23 336.61 410.07 332.46 409.92 328.00 409.40 323.54 408.88 320.37 408.38 317.20 407.88 313.60 407.47 310.00 407.05 307.07 406.70 304.14 406.34 300.02 405.91 295.90 405.47 292.69 404.99 289.48 404.51 285.20 403.96 280.91 403.41 277.27 403.05 273.62 402.70 269.41 402.38 265.20 402.07 262.23 401.89 259.27 401.70 255.28 401.45 251.29 401.21 248.13 400.98 244.96 400.76 241.39 400.56 237.81 400.37 234.97 400.29 232.14 400.20 227.94 400.17 223.74 400.13 220.23 399.99 216.71 399.86 209.88 399.80 203.06 399.74 197.56 399.72 192.07 399.69 183.55 399.84 175.03 400.00 169.17 400.06 163.31 400.13 155.00 400.15 146.69 400.18 140.46 400.19 134.22 400.20 128.71 400.13 123.20 400.06 115.32 399.96 107.45 399.85 101.26 399.73 95.06 399.61 87.47 399.34 79.89 399.06 73.88 398.95 67.86 398.83 59.66 398.87 51.46 398.90 45.21 399.22 38.96 399.54 32.92 400.04 26.89 400.55 23.02 401.04 19.15 401.53 15.99 402.05 12.82 402.58 10.59 403.04 8.36 403.50 6.46 404.20 4.56 404.90 4.30 408.19 4.04 411.48 4.03 414.42 4.02 417.36 4.01 419.98 4.01 422.59 4.01 426.23 4.00 429.88 4.00 432.28 4.00 434.68 4.00 438.05 4.00 441.43 4.00 443.87 4.00 446.31 4.05 449.85 4.11 453.39 4.13 456.79 4.16 460.19 4.23 464.82 4.30 469.44 4.40 473.49 4.50 477.53 4.97 482.53 5.44 487.53 6.06 491.33 6.69 495.14 7.54 498.69 8.39 502.24 10.06 506.45 11.74 510.66 13.26 513.80 14.78 516.93 16.99 520.12 19.19 523.31 21.18 525.99 23.18 528.67 26.23 531.63 29.28 534.60 31.84 536.83 34.39 539.07 38.04 541.66 41.68 544.25 44.70 546.21 47.72 548.17 51.53 550.44 55.34 552.70 59.17 554.63 63.00 556.55 70.87 559.35 78.74 562.15 85.88 564.41 93.02 566.67 100.08 568.40 107.14 570.13 111.79 571.12 116.43 572.10 122.90 573.20 129.37 574.29 134.13 574.82 138.89 575.34 143.81 575.68 148.73 576.02 152.77 576.16 156.80 576.31 162.06 576.37 167.32 576.43 171.88 576.46 176.45 576.48 182.77 576.57 189.09 576.65 194.20 576.69 199.32 576.73 206.14 576.67 212.97 576.61 218.70 576.51 224.44 576.41 232.24 576.07 240.05 575.73 245.18 575.33 250.32 574.93 255.87 574.35 261.43 573.77 271.06 573.07 280.68 572.37 289.24 571.70 297.80 571.03 308.07 570.24 318.33 569.45 326.34 568.60 334.35 567.75 343.74 566.84 353.13 565.93 359.08 565.34 365.04 564.76 373.19 564.13 381.35 563.51 387.26 563.10 393.17 562.69 401.94 562.27 410.72 561.86 415.92 561.45 421.12 561.04 425.40 560.56 429.67 560.08 432.59 559.72 435.50 559.36 438.78 559.10 442.07 558.84 444.17 558.64 446.28 558.45 448.89 558.12 451.49 557.78 453.52 557.59 455.55 557.41 458.13 557.16 460.71 556.91 463.20 556.60 465.69 556.30 470.41 555.40 475.14 554.50 477.42 554.18 479.70 553.86 481.99 553.63 484.28 553.40 489.68 552.23 495.09 551.06 498.02 550.38 500.96 549.70 505.37 548.80 509.78 547.89 512.88 547.24 515.99 546.59 518.81 545.91 521.63 545.22 525.32 544.38 529.00 543.54 531.94 542.67 534.87 541.81 539.85 540.28 544.82 538.74 547.76 537.89 550.70 537.05 553.21 536.45 555.72 535.85 558.21 535.52 560.70 535.19 564.89 534.87 569.07 534.54 572.09 534.19 575.10 533.84 578.89 533.47 582.68 533.09 585.63 532.93 588.58 532.77 591.96 532.39 595.34 532.01 598.11 531.73 600.88 531.45 603.44 531.20 606.00 530.95 609.01 530.79 612.02 530.62 614.59 530.76 617.16 530.90 619.34 531.62 621.51 532.35 624.04 532.58 626.56 532.82 629.40 532.65 632.24 532.48 635.16 531.92 638.08 531.35 639.99 530.49 641.91 529.63 645.58 527.66 649.25 525.68 654.10 523.09 658.95 520.50 661.54 519.25 664.12 517.99 667.12 516.35 670.12 514.70 672.30 513.34 674.48 511.99 677.02 510.14 679.56 508.29 681.16 507.07 682.77 505.85 684.17 504.18 685.57 502.50 686.99 500.04 688.42 497.58 688.82 495.33 689.23 493.09 689.44 489.16 689.65 485.24 689.76 483.09 689.87 480.95 689.96 477.97 690.06 475.00 690.00 472.98 689.95 470.96 689.29 467.79 688.63 464.62 686.97 461.34 685.31 458.06 683.62 456.25 681.94 454.45 680.42 452.89 678.89 451.33 677.15 449.87 675.40 448.41 673.46 444.39 671.53 440.37 671.53 440.36 671.53 440.36 671.54 440.35 671.54 440.35 676.05 441.32 680.55 442.29 682.59 444.02 684.62 445.74 686.25 447.42 687.89 449.10 690.07 451.59 692.25 454.09 693.33 456.03 694.42 457.97 695.81 462.01 697.19 466.05 697.57 468.40 697.95 470.75 698.00 473.00 698.05 475.25 697.96 478.30 697.86 481.35 697.75 483.50 697.64 485.65 697.41 489.84 697.17 494.02 696.41 497.51 695.65 500.99 693.63 504.37 691.61 507.74 689.62 509.97 687.63 512.20 685.95 513.48 684.26 514.76 681.48 516.77 678.71 518.78 676.33 520.25 673.96 521.72 670.79 523.45 667.61 525.19 665.12 526.40 662.62 527.61 657.91 530.13 653.20 532.64 649.14 534.81 645.09 536.97 642.55 538.04 640.01 539.11 636.57 539.77 633.12 540.43 629.66 540.62 626.21 540.81 624.04 540.69 621.87 540.57 619.57 539.97 617.27 539.38 614.78 539.00 612.28 538.62 609.53 538.76 606.78 538.91 604.23 539.16 601.68 539.41 598.95 539.69 596.22 539.96 592.62 540.36 589.02 540.75 586.24 540.91 583.46 541.06 579.74 541.42 576.02 541.79 572.85 542.16 569.68 542.52 565.71 542.82 561.73 543.12 559.65 543.38 557.56 543.64 555.24 544.19 552.92 544.73 550.05 545.56 547.18 546.39 542.15 547.94 537.12 549.49 533.95 550.41 530.79 551.33 527.15 552.17 523.51 553.00 520.57 553.71 517.64 554.42 514.51 555.08 511.38 555.73 507.07 556.61 502.76 557.50 499.80 558.18 496.84 558.87 493.26 559.67 489.68 560.47 487.38 560.91 485.08 561.36 482.94 561.57 480.81 561.78 478.78 562.06 476.76 562.34 473.79 562.95 470.83 563.56 468.75 563.90 466.66 564.24 462.69 564.70 458.72 565.16 455.67 565.43 452.61 565.71 449.82 566.06 447.02 566.42 444.85 566.62 442.69 566.82 439.59 567.06 436.48 567.30 433.52 567.66 430.56 568.03 426.16 568.52 421.75 569.01 416.42 569.43 411.10 569.85 402.41 570.26 393.72 570.67 387.84 571.07 381.96 571.48 373.89 572.10 365.82 572.72 359.86 573.30 353.90 573.89 344.54 574.80 335.19 575.71 327.07 576.56 318.95 577.42 308.69 578.21 298.42 579.01 289.84 579.68 281.26 580.35 271.76 581.04 262.26 581.73 256.60 582.32 250.93 582.91 245.66 583.31 240.39 583.72 232.49 584.06 224.58 584.40 218.81 584.51 213.04 584.61 206.15 584.67 199.26 584.73 194.12 584.69 188.98 584.65 182.69 584.57 176.41 584.48 171.81 584.46 167.22 584.43 161.87 584.36 156.51 584.30 152.35 584.15 148.18 584.00 143.09 583.65 138.01 583.29 133.02 582.74 128.03 582.18 121.40 581.05 114.77 579.93 110.00 578.91 105.23 577.90 97.92 576.10 90.60 574.29 83.32 571.99 76.05 569.68 67.73 566.69 59.41 563.70 55.33 561.64 51.25 559.58 47.30 557.23 43.35 554.87 40.19 552.82 37.04 550.76 33.08 547.92 29.12 545.09 26.40 542.70 23.68 540.31 20.22 536.88 16.76 533.45 14.67 530.64 12.59 527.82 10.09 524.12 7.59 520.43 5.94 517.01 4.30 513.59 2.45 508.85 0.61 504.10 -0.30 500.26 -1.21 496.42 -1.87 492.35 -2.53 488.27 -3.01 483.00 -3.50 477.73 -3.60 473.65 -3.70 469.57 -3.77 464.91 -3.84 460.24 -3.87 456.88 -3.89 453.51 -3.94 449.91 -4.00 446.31 -4.00 443.87 -4.00 441.43 -4.00 438.05 -4.00 434.67 -4.00 432.27 -4.00 429.87 -3.99 426.22 -3.99 422.57 -3.99 419.95 -3.98 417.33 -3.94 412.65 -3.89 407.97 -3.46 404.97 -3.03 401.97 -0.58 399.67 1.86 397.37 4.30 396.51 6.74 395.66 9.13 395.18 11.51 394.69 14.83 394.14 18.15 393.59 22.18 393.08 26.22 392.57 32.39 392.06 38.56 391.55 44.99 391.22 51.43 390.90 59.72 390.87 68.02 390.84 74.10 390.95 80.18 391.07 87.70 391.34 95.22 391.61 101.39 391.73 107.56 391.85 115.43 391.96 123.30 392.06 128.76 392.13 134.21 392.20 140.44 392.19 146.66 392.18 154.94 392.15 163.22 392.13 169.05 392.06 174.88 392.00 183.49 391.84 192.10 391.69 197.62 391.72 203.13 391.74 210.08 391.80 217.03 391.86 220.42 392.00 223.81 392.13 228.09 392.17 232.37 392.21 235.31 392.29 238.25 392.38 241.89 392.58 245.53 392.78 248.66 393.00 251.79 393.22 255.78 393.47 259.77 393.72 262.78 393.91 265.79 394.09 270.09 394.41 274.40 394.73 278.16 395.10 281.93 395.48 286.30 396.04 290.67 396.60 293.71 397.06 296.74 397.51 300.92 397.96 305.09 398.40 308.01 398.75 310.92 399.10 314.68 399.54 318.45 399.98 321.46 400.46 324.48 400.94 328.62 401.43 332.77 401.92 336.93 402.08 341.10 402.24 346.28 402.46 351.45 402.68 354.99 402.89 358.52 403.11 362.98 403.32 367.43 403.54 370.42 403.63 373.41 403.73 377.09 403.96 380.78 404.18 386.06 404.43 391.34 404.69 396.38 404.87 401.43 405.05 404.49 405.31 407.56 405.57 411.69 405.79 415.82 406.01 421.77 406.24 427.71 406.47 431.41 406.69 435.12 406.91 439.89 406.99 444.67 407.08 447.92 407.13 451.18 407.17 454.89 407.29 458.60 407.40 462.33 407.53 466.05 407.67 471.15 407.84 476.26 408.02 480.26 408.14 484.25 408.26 488.98 408.40 493.71 408.53 497.87 408.57 502.03 408.61 507.72 408.70 513.40 408.79 517.99 409.00 522.58 409.22 529.00 409.57 535.43 409.92 541.90 410.46 548.36 410.99 557.14 411.90 565.92 412.81 573.51 413.69 581.10 414.56 592.16 416.07 603.22 417.58 610.03 418.40 616.84 419.21 624.58 420.14 632.32 421.06 637.14 421.80 641.95 422.54 646.53 423.50 651.10 424.47 653.55 424.81 655.99 425.14 659.41 425.59 662.84 426.04 664.88 426.32 666.92 426.59 669.19 428.87 671.46 431.15 671.46 431.16 Z"></path>
</svg>