<svg width="980" height="551" xmlns="http://www.w3.org/2000/svg" xmlns:xlink="http://www.w3.org/1999/xlink">
<g><defs><marker id="582a8e35-8f4c-5f39-a055-07444d7c888e" viewBox="0 -5 10 10" refX="5" refY="0" markerWidth="4" markerHeight="4" orient="auto"><path fill="#8ac926" d="M0,-5L10,0L0,5"></path></marker></defs><line fill="transparent" stroke="#8ac926" stroke-width="4" stroke-linecap="round" x1="31.80" y1="28.59" x2="80.19" y2="53.75" marker-end="url(#582a8e35-8f4c-5f39-a055-07444d7c888e)"></line></g><g><defs><marker id="05170319-4290-c9a5-a908-a993b13e05a3" viewBox="0 -5 10 10" refX="5" refY="0" markerWidth="4" markerHeight="4" orient="auto"><path fill="#8ac926" d="M0,-5L10,0L0,5"></path></marker></defs><line fill="transparent" stroke="#8ac926" stroke-width="4" stroke-linecap="round" x1="274.14" y1="105.25" x2="167.26" y2="120.04" marker-end="url(#05170319-4290-c9a5-a908-a993b13e05a3)"></line></g><g><defs><marker id="9ffd1745-e294-0169-18e8-1c68ddc3cbef" viewBox="0 -5 10 10" refX="5" refY="0" markerWidth="4" markerHeight="4" orient="auto"><path fill="#8ac926" d="M0,-5L10,0L0,5"></path></marker></defs><line fill="transparent" stroke="#8ac926" stroke-width="4" stroke-linecap="round" x1="408.10" y1="119.11" x2="307.63" y2="154.26" marker-end="url(#9ffd1745-e294-0169-18e8-1c68ddc3cbef)"></line></g><g><defs><marker id="ea48aabd-ed1d-c5c4-af34-9a9354ff7ea9" viewBox="0 -5 10 10" refX="5" refY="0" markerWidth="4" markerHeight="4" orient="auto"><path fill="#8ac926" d="M0,-5L10,0L0,5"></path></marker></defs><line fill="transparent" stroke="#8ac926" stroke-width="4" stroke-linecap="round" x1="451.17" y1="152.46" x2="433.95" y2="177.05" marker-end="url(#ea48aabd-ed1d-c5c4-af34-9a9354ff7ea9)"></line></g><g><defs><marker id="bca611f6-187a-8100-56dc-9dc5e0ab1a2c" viewBox="0 -5 10 10" refX="5" refY="0" markerWidth="4" markerHeight="4" orient="auto"><path fill="#8ac926" d="M0,-5L10,0L0,5"></path></marker></defs><line fill="transparent" stroke="#8ac926" stroke-width="4" stroke-linecap="round" x1="476.36" y1="204.26" x2="461.83" y2="219.58" marker-end="url(#bca611f6-187a-8100-56dc-9dc5e0ab1a2c)"></line></g><g><defs><marker id="f13196c2-8e99-89d9-0683-9da10aba36b9" viewBox="0 -5 10 10" refX="5" refY="0" markerWidth="4" markerHeight="4" orient="auto"><path fill="#8ac926" d="M0,-5L10,0L0,5"></path></marker></defs><line fill="transparent" stroke="#8ac926" stroke-width="4" stroke-linecap="round" x1="480.35" y1="273.10" x2="453.96" y2="256.92" marker-end="url(#f13196c2-8e99-89d9-0683-9da10aba36b9)"></line></g><g><defs><marker id="3c1ae116-6b9c-d401-332b-4c1123e76935" viewBox="0 -5 10 10" refX="5" refY="0" markerWidth="4" markerHeight="4" orient="auto"><path fill="#8ac926" d="M0,-5L10,0L0,5"></path></marker></defs><line fill="transparent" stroke="#8ac926" stroke-width="4" stroke-linecap="round" x1="272.52" y1="305.67" x2="179.60" y2="283.75" marker-end="url(#3c1ae116-6b9c-d401-332b-4c1123e76935)"></line></g><g><defs><marker id="3302d80e-e9cc-5661-a8d5-94e032007298" viewBox="0 -5 10 10" refX="5" refY="0" markerWidth="4" markerHeight="4" orient="auto"><path fill="#8ac926" d="M0,-5L10,0L0,5"></path></marker></defs><line fill="transparent" stroke="#8ac926" stroke-width="4" stroke-linecap="round" x1="780.55" y1="83.78" x2="684.85" y2="88.76" marker-end="url(#3302d80e-e9cc-5661-a8d5-94e032007298)"></line></g><g><defs><marker id="6064281e-ea29-20ba-39ce-e4433e8ff480" viewBox="0 -5 10 10" refX="5" refY="0" markerWidth="4" markerHeight="4" orient="auto"><path fill="#8ac926" d="M0,-5L10,0L0,5"></path></marker></defs><line fill="transparent" stroke="#8ac926" stroke-width="4" stroke-linecap="round" x1="835.45" y1="96.09" x2="756.49" y2="120.26" marker-end="url(#6064281e-ea29-20ba-39ce-e4433e8ff480)"></line></g><g><defs><marker id="26a4f4c8-3910-aa30-c4cb-f89dcd7679f1" viewBox="0 -5 10 10" refX="5" refY="0" markerWidth="4" markerHeight="4" orient="auto"><path fill="#8ac926" d="M0,-5L10,0L0,5"></path></marker></defs><line fill="transparent" stroke="#8ac926" stroke-width="4" stroke-linecap="round" x1="870.94" y1="155.43" x2="648.97" y2="154.66" marker-end="url(#26a4f4c8-3910-aa30-c4cb-f89dcd7679f1)"></line></g><g><defs><marker id="ec405853-ca89-84b8-be58-37af06d88a21" viewBox="0 -5 10 10" refX="5" refY="0" markerWidth="4" markerHeight="4" orient="auto"><path fill="#8ac926" d="M0,-5L10,0L0,5"></path></marker></defs><line fill="transparent" stroke="#8ac926" stroke-width="4" stroke-linecap="round" x1="893.64" y1="172.27" x2="747.88" y2="184.43" marker-end="url(#ec405853-ca89-84b8-be58-37af06d88a21)"></line></g><g><defs><marker id="7c66b2ea-8911-3030-54b1-d8dd2ab28384" viewBox="0 -5 10 10" refX="5" refY="0" markerWidth="4" markerHeight="4" orient="auto"><path fill="#8ac926" d="M0,-5L10,0L0,5"></path></marker></defs><line fill="transparent" stroke="#8ac926" stroke-width="4" stroke-linecap="round" x1="961.74" y1="163.43" x2="920.04" y2="204.24" marker-end="url(#7c66b2ea-8911-3030-54b1-d8dd2ab28384)"></line></g><g><defs><marker id="19ff0f4e-86a1-8da1-44bd-5036794a507f" viewBox="0 -5 10 10" refX="5" refY="0" markerWidth="4" markerHeight="4" orient="auto"><path fill="#8ac926" d="M0,-5L10,0L0,5"></path></marker></defs><line fill="transparent" stroke="#8ac926" stroke-width="4" stroke-linecap="round" x1="894.58" y1="274.91" x2="696.41" y2="280.73" marker-end="url(#19ff0f4e-86a1-8da1-44bd-5036794a507f)"></line></g><g><defs><marker id="569f19c3-d797-91f2-bfb2-90f26d876696" viewBox="0 -5 10 10" refX="5" refY="0" markerWidth="4" markerHeight="4" orient="auto"><path fill="#8ac926" d="M0,-5L10,0L0,5"></path></marker></defs><line fill="transparent" stroke="#8ac926" stroke-width="4" stroke-linecap="round" x1="903.29" y1="305.19" x2="731.57" y2="313.71" marker-end="url(#569f19c3-d797-91f2-bfb2-90f26d876696)"></line></g><path fill="#8ac926" d="M 472.56 21.90 Q 472.56 21.90 466.30 22.49 460.04 23.07 454.41 22.03 448.78 20.98 439.55 19.96 430.31 18.94 421.59 18.51 412.87 18.08 400.97 17.71 389.06 17.34 379.84 17.19 370.61 17.03 356.89 16.76 343.16 16.48 332.01 16.67 320.86 16.86 306.68 17.99 292.51 19.12 283.22 20.09 273.94 21.05 265.51 22.12 257.08 23.18 246.13 24.77 235.18 26.36 226.16 27.60 217.13 28.83 205.51 30.85 193.88 32.86 186.22 34.47 178.56 36.09 168.09 39.35 157.62 42.62 151.06 45.14 144.49 47.66 136.74 51.96 128.99 56.25 124.23 59.03 119.46 61.80 112.75 66.62 106.05 71.45 100.13 75.77 94.21 80.09 86.57 86.35 78.92 92.61 72.30 98.94 65.68 105.27 59.43 113.68 53.17 122.09 49.22 129.50 45.27 136.91 42.72 146.39 40.17 155.87 39.34 163.77 38.51 171.67 38.88 181.60 39.25 191.53 39.87 200.48 40.50 209.43 41.14 222.48 41.79 235.54 42.07 244.37 42.34 253.19 43.22 266.21 44.10 279.23 45.21 287.99 46.31 296.74 50.89 310.10 55.46 323.45 61.78 333.99 68.10 344.53 80.99 357.23 93.88 369.93 105.88 379.85 117.88 389.76 126.51 396.34 135.15 402.91 148.24 410.72 161.34 418.53 171.59 423.60 181.83 428.67 197.34 433.81 212.84 438.94 238.16 444.70 263.47 450.46 288.31 455.15 313.14 459.85 335.30 463.58 357.45 467.32 379.37 470.87 401.28 474.43 422.49 477.42 443.71 480.42 456.28 482.12 468.85 483.81 480.47 484.85 492.10 485.89 516.81 486.98 541.53 488.06 559.23 488.53 576.94 488.99 606.19 487.50 635.45 486.01 654.06 484.62 672.68 483.23 690.76 480.98 708.85 478.74 718.50 477.32 728.16 475.91 737.49 473.36 746.83 470.82 753.93 468.16 761.03 465.51 770.20 461.22 779.37 456.93 786.37 453.51 793.37 450.10 798.98 446.82 804.59 443.54 807.94 441.28 811.28 439.02 814.00 436.65 816.72 434.28 818.52 432.32 820.31 430.37 823.73 426.06 827.15 421.76 831.96 416.36 836.78 410.96 844.06 402.91 851.35 394.86 855.55 390.09 859.75 385.31 863.32 380.61 866.89 375.92 868.75 373.22 870.62 370.51 872.46 366.81 874.29 363.11 876.23 358.34 878.17 353.57 879.73 348.97 881.29 344.36 883.96 334.16 886.62 323.96 888.05 317.10 889.47 310.23 889.97 301.75 890.48 293.26 889.63 286.53 888.77 279.80 885.04 270.68 881.30 261.56 877.37 253.68 873.45 245.80 868.13 235.41 862.82 225.03 857.88 216.16 852.94 207.29 843.84 194.99 834.74 182.69 824.03 171.77 813.32 160.86 795.21 147.26 777.10 133.66 763.32 124.30 749.53 114.94 733.92 106.45 718.31 97.95 708.59 93.11 698.86 88.27 684.31 83.11 669.75 77.94 659.44 74.54 649.12 71.14 631.92 66.61 614.72 62.08 603.74 59.19 592.77 56.30 579.61 53.52 566.46 50.74 556.73 49.11 547.01 47.48 535.21 46.28 523.40 45.07 513.48 44.06 503.56 43.06 489.38 41.53 475.21 40.00 464.15 38.76 453.09 37.52 441.90 35.94 430.72 34.35 424.12 33.16 417.52 31.96 413.59 31.13 409.67 30.31 405.69 29.17 401.71 28.03 398.04 26.95 394.37 25.87 389.64 24.69 384.90 23.52 381.05 22.91 377.19 22.31 372.32 21.73 367.45 21.15 363.86 20.85 360.27 20.54 357.57 18.37 354.86 16.19 354.86 16.19 354.86 16.18 354.86 16.18 354.86 16.17 357.91 14.37 360.95 12.57 364.67 12.89 368.40 13.21 373.42 13.81 378.45 14.41 382.64 15.08 386.83 15.76 391.73 16.98 396.63 18.19 400.27 19.27 403.92 20.34 407.62 21.41 411.32 22.48 415.13 23.28 418.94 24.09 425.39 25.26 431.85 26.43 442.91 28.00 453.98 29.57 465.02 30.81 476.06 32.05 490.22 33.57 504.37 35.10 514.29 36.10 524.22 37.11 536.28 38.35 548.33 39.59 558.22 41.25 568.11 42.91 581.46 45.74 594.81 48.56 605.78 51.45 616.76 54.34 634.19 58.94 651.62 63.55 662.03 66.98 672.44 70.41 687.43 75.76 702.41 81.11 712.28 86.02 722.14 90.93 738.08 99.63 754.02 108.32 767.97 117.80 781.91 127.27 800.47 141.26 819.02 155.26 830.10 166.59 841.17 177.93 850.55 190.66 859.93 203.40 864.93 212.39 869.94 221.39 875.28 231.81 880.61 242.24 884.67 250.41 888.72 258.58 892.71 268.67 896.70 278.76 897.58 286.25 898.46 293.73 897.88 302.79 897.30 311.84 895.83 318.92 894.36 325.99 891.61 336.46 888.86 346.93 887.22 351.76 885.58 356.59 883.51 361.64 881.44 366.69 879.32 370.87 877.20 375.06 875.23 377.91 873.25 380.76 869.50 385.68 865.76 390.59 861.52 395.41 857.28 400.23 850.01 408.26 842.75 416.29 838.08 421.52 833.41 426.75 829.80 431.27 826.18 435.79 824.07 438.06 821.96 440.33 818.86 442.99 815.76 445.65 812.19 448.05 808.62 450.45 802.75 453.87 796.88 457.29 789.82 460.73 782.76 464.17 773.29 468.59 763.82 473.01 756.37 475.77 748.92 478.53 739.12 481.18 729.32 483.83 719.58 485.25 709.83 486.68 691.55 488.94 673.28 491.21 654.56 492.60 635.85 494.00 606.29 495.49 576.73 496.99 558.95 496.52 541.17 496.06 516.28 494.96 491.38 493.86 479.58 492.80 467.78 491.74 455.18 490.04 442.59 488.34 421.29 485.33 400.00 482.33 378.06 478.77 356.12 475.21 333.89 471.46 311.65 467.71 286.67 462.99 261.70 458.26 236.01 452.40 210.32 446.54 194.30 441.19 178.28 435.84 167.76 430.62 157.24 425.40 143.77 417.34 130.30 409.28 121.54 402.60 112.78 395.93 100.51 385.77 88.24 375.61 74.76 362.14 61.27 348.67 54.58 337.36 47.90 326.06 43.14 311.92 38.38 297.78 37.25 288.77 36.12 279.77 35.23 266.60 34.35 253.44 34.07 244.69 33.80 235.94 33.16 222.96 32.51 209.98 31.88 200.89 31.25 191.81 30.90 181.32 30.56 170.83 31.50 162.30 32.45 153.77 35.33 143.47 38.21 133.17 42.48 125.24 46.76 117.31 53.45 108.40 60.14 99.50 67.00 92.96 73.86 86.42 81.68 80.03 89.49 73.63 95.44 69.29 101.38 64.95 108.41 59.92 115.44 54.88 120.28 52.07 125.13 49.25 133.37 44.72 141.62 40.19 148.43 37.59 155.24 34.98 166.08 31.62 176.91 28.26 184.71 26.62 192.52 24.98 204.28 22.94 216.05 20.91 225.04 19.68 234.03 18.45 245.05 16.85 256.07 15.25 264.59 14.17 273.11 13.10 282.49 12.12 291.87 11.14 306.30 10.00 320.73 8.86 332.02 8.67 343.32 8.48 357.04 8.76 370.75 9.03 380.03 9.19 389.31 9.35 401.29 9.72 413.27 10.09 422.23 10.54 431.19 10.99 440.72 12.05 450.24 13.12 456.05 14.20 461.86 15.28 467.21 18.58 472.57 21.88 472.56 21.89 Z"></path><path fill="#8ac926" d="M 137.36 503.40 Q 137.36 503.40 139.31 505.13 141.26 506.86 141.23 508.10 141.21 509.35 141.14 509.83 141.07 510.31 140.89 510.76 140.71 511.20 140.42 511.59 140.14 511.98 139.77 512.30 139.41 512.61 138.97 512.82 138.54 513.04 138.07 513.14 137.60 513.25 137.12 513.23 136.64 513.22 136.17 513.10 135.71 512.97 135.28 512.74 134.86 512.51 134.51 512.18 134.16 511.85 133.89 511.45 133.63 511.04 133.46 510.59 133.30 510.14 133.26 509.66 133.21 509.18 134.00 507.15 134.78 505.13 135.60 502.99 136.43 500.86 137.53 497.97 138.63 495.08 140.25 490.36 141.86 485.63 145.12 482.23 148.38 478.82 148.38 478.82 148.39 478.82 148.39 478.82 148.40 478.82 148.91 483.53 149.43 488.23 147.77 493.08 146.10 497.93 145.00 500.83 143.89 503.73 142.55 506.54 141.21 509.35 141.14 509.83 141.07 510.31 140.89 510.75 140.71 511.20 140.43 511.59 140.14 511.98 139.77 512.29 139.41 512.61 138.97 512.82 138.54 513.04 138.07 513.14 137.60 513.25 137.12 513.23 136.64 513.22 136.17 513.10 135.71 512.97 135.29 512.74 134.86 512.51 134.51 512.18 134.16 511.85 133.89 511.45 133.63 511.05 133.46 510.59 133.30 510.14 133.26 509.66 133.21 509.18 133.24 507.91 133.26 506.64 135.30 505.02 137.34 503.40 137.35 503.40 Z"></path><path fill="#8ac926" d="M 152.90 478.18 Q 152.90 478.18 155.03 479.48 157.16 480.78 157.68 481.38 158.20 481.97 158.22 482.45 158.24 482.93 158.15 483.40 158.05 483.88 157.85 484.31 157.64 484.75 157.34 485.12 157.03 485.50 156.65 485.79 156.26 486.08 155.82 486.27 155.38 486.46 154.90 486.54 154.43 486.62 153.95 486.58 153.47 486.54 153.01 486.39 152.55 486.24 152.14 485.98 151.73 485.72 151.40 485.38 151.06 485.03 150.82 484.61 150.58 484.20 150.45 483.73 150.31 483.27 151.37 480.95 152.42 478.62 155.71 478.27 158.99 477.92 158.99 477.92 158.99 477.93 159.00 477.93 159.00 477.94 158.60 479.95 158.20 481.97 158.22 482.45 158.24 482.93 158.15 483.40 158.05 483.88 157.85 484.31 157.64 484.75 157.34 485.12 157.03 485.50 156.65 485.79 156.27 486.08 155.82 486.27 155.38 486.46 154.90 486.54 154.43 486.62 153.95 486.58 153.47 486.54 153.01 486.39 152.55 486.24 152.14 485.98 151.73 485.72 151.40 485.38 151.06 485.03 150.82 484.61 150.58 484.20 150.45 483.73 150.31 483.27 150.09 483.21 149.86 483.15 151.37 480.67 152.88 478.19 152.89 478.19 Z"></path><path fill="#8ac926" d="M 157.09 481.44 Q 157.09 481.44 160.42 489.67 163.74 497.90 164.48 502.81 165.22 507.72 165.76 510.59 166.30 513.46 166.69 515.25 167.08 517.03 167.11 517.52 167.14 518.00 167.05 518.47 166.97 518.95 166.77 519.39 166.57 519.83 166.28 520.21 165.98 520.59 165.60 520.88 165.22 521.18 164.78 521.38 164.34 521.58 163.87 521.67 163.39 521.75 162.91 521.73 162.43 521.70 161.97 521.55 161.51 521.41 161.10 521.16 160.68 520.91 160.34 520.57 160.00 520.23 159.75 519.82 159.50 519.41 159.36 518.95 159.21 518.49 159.96 516.10 160.71 513.71 161.72 511.29 162.73 508.87 163.99 505.84 165.25 502.81 168.01 497.11 170.78 491.42 173.38 486.74 175.99 482.06 179.01 477.13 182.03 472.21 183.44 469.89 184.86 467.58 185.46 467.10 186.07 466.61 186.37 466.23 186.67 465.85 187.05 465.56 187.43 465.26 187.87 465.07 188.31 464.87 188.78 464.78 189.26 464.70 189.74 464.73 190.22 464.76 190.68 464.90 191.14 465.05 191.55 465.30 191.96 465.55 192.30 465.89 192.64 466.24 192.89 466.65 193.14 467.06 193.28 467.52 193.42 467.98 193.45 468.46 193.48 468.95 193.39 469.42 193.30 469.89 193.10 470.33 192.90 470.77 193.57 473.34 194.24 475.92 194.37 480.18 194.50 484.44 194.97 492.70 195.43 500.97 195.70 507.10 195.98 513.23 196.44 517.03 196.90 520.84 195.49 522.11 194.07 523.37 194.07 523.38 194.07 523.38 194.07 523.38 194.07 523.38 194.07 523.38 194.07 523.38 194.07 523.38 194.07 523.38 194.07 523.38 194.07 523.38 194.07 523.38 194.07 523.39 194.07 523.39 194.06 523.39 194.06 523.39 194.06 523.39 194.06 523.38 194.06 523.38 194.06 523.38 194.06 523.38 194.06 523.38 194.06 523.38 194.06 523.38 194.06 523.38 194.06 523.38 194.05 523.38 194.06 523.38 194.06 523.38 194.07 523.37 194.07 523.37 194.07 523.38 194.07 523.38 194.07 523.38 194.07 523.38 194.07 523.38 194.07 523.38 194.07 523.38 194.07 523.38 194.07 523.38 194.07 523.38 194.07 523.38 194.07 523.39 194.07 523.39 194.06 523.39 194.06 523.39 194.06 523.39 194.06 523.38 194.06 523.38 194.06 523.38 194.06 523.38 194.06 523.38 194.06 523.38 194.06 523.38 194.06 523.38 194.06 523.38 194.05 523.38 191.50 522.59 188.96 521.79 188.47 517.69 187.98 513.58 187.71 507.50 187.44 501.41 186.97 493.05 186.51 484.68 186.38 480.47 186.25 476.26 186.20 474.01 186.14 471.76 186.11 469.19 186.07 466.61 186.37 466.23 186.67 465.85 187.05 465.56 187.43 465.26 187.87 465.07 188.31 464.87 188.78 464.78 189.26 464.70 189.74 464.73 190.22 464.76 190.68 464.90 191.14 465.05 191.55 465.30 191.96 465.55 192.30 465.89 192.64 466.23 192.89 466.65 193.14 467.06 193.28 467.52 193.42 467.98 193.45 468.46 193.48 468.95 193.39 469.42 193.30 469.89 193.10 470.33 192.90 470.77 192.24 471.31 191.59 471.86 190.22 474.12 188.85 476.39 185.91 481.17 182.98 485.95 180.47 490.44 177.97 494.92 175.30 500.40 172.64 505.88 171.37 508.92 170.11 511.96 168.59 514.50 167.08 517.03 167.11 517.52 167.14 518.00 167.05 518.47 166.97 518.95 166.77 519.39 166.57 519.83 166.28 520.21 165.98 520.59 165.60 520.88 165.22 521.18 164.78 521.38 164.34 521.58 163.87 521.67 163.39 521.75 162.91 521.73 162.43 521.70 161.97 521.55 161.51 521.41 161.10 521.16 160.68 520.91 160.34 520.57 160.00 520.23 159.75 519.82 159.50 519.41 159.36 518.95 159.21 518.49 158.82 516.71 158.43 514.93 157.87 511.92 157.31 508.92 156.58 504.03 155.84 499.15 156.46 490.30 157.07 481.44 157.08 481.44 Z"></path><path fill="#8ac926" d="M 203.71 516.75 Q 203.71 516.75 204.36 514.37 205.02 511.99 208.32 510.20 211.62 508.42 214.21 506.68 216.81 504.93 222.52 500.82 228.23 496.70 232.12 493.88 236.01 491.05 238.27 489.26 240.54 487.46 241.40 486.70 242.25 485.94 242.66 485.69 243.07 485.44 243.53 485.30 243.99 485.15 244.47 485.12 244.96 485.09 245.43 485.17 245.90 485.26 246.35 485.45 246.79 485.65 247.17 485.95 247.55 486.24 247.85 486.62 248.15 487.00 248.35 487.44 248.55 487.87 248.63 488.35 248.72 488.82 248.70 489.30 248.67 489.79 248.53 490.25 248.39 490.71 248.14 491.12 247.89 491.53 247.55 491.88 247.21 492.22 245.03 492.90 242.86 493.58 237.34 497.11 231.83 500.64 227.98 504.10 224.14 507.55 220.42 511.44 216.70 515.32 214.89 517.30 213.09 519.28 214.76 521.43 216.43 523.59 217.47 524.65 218.50 525.72 218.51 525.72 218.51 525.73 218.51 525.73 218.51 525.74 215.70 528.25 212.89 530.77 209.69 528.49 206.48 526.21 205.33 524.37 204.17 522.53 204.36 519.93 204.55 517.32 205.86 515.60 207.18 513.88 209.05 511.83 210.93 509.78 214.86 505.69 218.80 501.59 222.99 497.86 227.19 494.12 231.61 491.02 236.04 487.92 239.14 486.93 242.25 485.95 242.66 485.69 243.07 485.44 243.53 485.30 243.99 485.15 244.47 485.12 244.96 485.09 245.43 485.17 245.90 485.26 246.35 485.45 246.79 485.65 247.17 485.94 247.55 486.24 247.85 486.62 248.15 487.00 248.35 487.44 248.55 487.87 248.63 488.35 248.72 488.82 248.70 489.30 248.67 489.78 248.53 490.25 248.39 490.71 248.14 491.12 247.89 491.53 247.55 491.88 247.21 492.22 246.36 492.98 245.51 493.73 243.11 495.63 240.71 497.52 236.81 500.36 232.91 503.20 227.09 507.39 221.26 511.58 218.39 513.49 215.52 515.41 211.69 517.44 207.85 519.47 205.78 518.12 203.72 516.77 203.71 516.76 Z"></path><path fill="#8ac926" d="M 258.37 478.38 Q 258.37 478.38 260.66 481.49 262.94 484.60 263.29 491.81 263.64 499.02 263.78 505.20 263.93 511.39 264.20 519.15 264.46 526.92 264.66 530.91 264.87 534.89 262.98 537.84 261.09 540.78 261.08 540.78 261.08 540.78 261.07 540.78 261.07 540.78 258.97 538.04 256.88 535.30 256.67 531.25 256.47 527.20 256.20 519.39 255.93 511.58 255.79 505.49 255.64 499.40 255.31 492.36 254.98 485.32 256.66 481.85 258.35 478.38 258.36 478.38 Z"></path>
</svg>