<svg width="980" height="551" xmlns="http://www.w3.org/2000/svg" xmlns:xlink="http://www.w3.org/1999/xlink">
<path fill="#ff595e" d="M 578.85 263.88 Q 578.85 263.88 578.85 263.88 578.84 263.88 578.84 263.89 578.84 263.89 578.84 263.88 Z"></path><path fill="#ff595e" d="M 785.41 63.90 Q 785.41 63.90 785.41 63.89 785.41 63.89 785.40 63.89 785.40 63.88 785.41 63.89 Z"></path><path fill="#ff595e" d="M 713.23 217.75 Q 713.23 217.75 713.23 217.75 713.22 217.75 713.22 217.75 713.21 217.75 713.22 217.75 Z"></path><path fill="#ff595e" d="M 554.97 311.97 Q 554.97 311.97 554.97 311.97 554.97 311.98 554.96 311.98 554.96 311.99 554.97 311.98 Z"></path><path fill="#ff595e" d="M 554.97 311.97 Q 554.97 311.97 554.97 311.97 554.97 311.98 554.96 311.98 554.96 311.99 554.97 311.98 Z"></path>
</svg>