<svg width="980" height="551" xmlns="http://www.w3.org/2000/svg" xmlns:xlink="http://www.w3.org/1999/xlink">
<path fill="#ff595e" d="M 643.51 264.61 Q 643.51 264.61 645.75 264.88 647.99 265.16 648.06 267.54 648.12 269.92 647.71 269.26 647.29 268.59 647.29 268.59 647.29 268.59 647.29 268.59 647.28 268.59 647.28 268.59 647.28 268.59 647.28 268.59 647.28 268.59 647.28 268.59 647.28 268.58 647.28 268.58 647.28 268.58 647.28 268.58 647.28 268.58 647.28 268.58 647.28 268.58 647.28 268.58 647.28 268.58 647.29 268.57 647.29 268.57 647.29 268.57 647.29 268.57 647.29 268.57 647.29 268.57 647.29 268.57 647.29 268.57 647.29 268.58 647.29 268.58 647.29 268.59 647.29 268.59 647.29 268.59 647.29 268.59 647.29 268.59 647.28 268.59 647.28 268.59 647.28 268.59 647.28 268.59 647.28 268.59 647.28 268.59 647.28 268.58 647.28 268.58 647.28 268.58 647.28 268.58 647.28 268.58 647.28 268.58 647.28 268.58 647.28 268.58 647.28 268.58 647.29 268.57 647.29 268.57 647.29 268.57 647.29 268.57 647.29 268.57 647.29 268.57 647.29 268.57 647.29 268.57 649.53 266.44 651.76 264.31 652.21 267.27 652.67 270.22 650.57 271.67 648.47 273.12 646.03 272.48 643.59 271.84 642.08 269.98 640.57 268.11 642.03 266.36 643.49 264.62 643.50 264.61 Z"></path><path fill="#ff595e" d="M 669.71 258.23 Q 669.71 258.23 671.70 261.15 673.70 264.07 673.70 266.50 673.70 268.94 673.70 271.36 673.70 273.79 673.70 276.60 673.70 279.41 674.22 280.69 674.75 281.98 674.75 281.99 674.75 281.99 674.75 282.00 674.75 282.00 672.05 283.14 669.34 284.27 667.52 281.87 665.70 279.47 665.70 276.63 665.70 273.79 665.70 271.36 665.70 268.94 665.70 266.50 665.70 264.07 667.69 261.15 669.69 258.23 669.70 258.23 Z"></path><path fill="#ff595e" d="M 699.62 271.63 Q 699.62 271.63 701.61 273.90 703.61 276.18 704.64 273.83 705.67 271.48 706.33 267.05 706.99 262.63 707.48 259.67 707.97 256.72 708.46 253.80 708.96 250.89 709.33 248.85 709.70 246.81 706.38 248.19 703.06 249.57 700.64 250.61 698.21 251.64 696.59 253.06 694.97 254.48 693.07 256.69 691.17 258.89 690.74 261.53 690.32 264.18 692.43 266.36 694.54 268.55 696.93 272.72 699.31 276.88 699.31 276.89 699.31 276.89 699.30 276.89 699.30 276.90 696.00 276.93 692.69 276.96 690.42 275.46 688.15 273.96 685.90 272.38 683.65 270.81 682.96 268.04 682.28 265.27 682.38 263.10 682.49 260.92 683.15 258.36 683.82 255.80 685.73 253.25 687.64 250.70 689.13 249.08 690.62 247.46 692.58 245.99 694.55 244.53 697.59 243.24 700.63 241.95 702.66 241.31 704.70 240.67 706.75 240.26 708.81 239.86 711.38 240.07 713.96 240.28 715.43 241.74 716.90 243.20 717.24 245.72 717.57 248.23 717.21 250.24 716.85 252.24 716.35 255.13 715.86 258.02 715.39 260.87 714.92 263.72 714.44 267.10 713.96 270.49 713.21 273.08 712.45 275.68 711.17 277.41 709.89 279.14 707.09 280.85 704.28 282.57 701.47 282.65 698.65 282.73 697.13 279.45 695.61 276.18 697.60 273.90 699.60 271.63 699.61 271.63 Z"></path><path fill="#ff595e" d="M 724.28 271.90 Q 724.28 271.90 726.33 274.21 728.38 276.53 728.41 279.34 728.44 282.14 728.45 284.86 728.46 287.57 726.39 291.03 724.32 294.49 724.32 294.49 724.31 294.48 724.31 294.48 724.31 294.47 722.38 291.02 720.46 287.58 720.45 284.90 720.44 282.22 720.41 279.46 720.38 276.71 722.32 274.30 724.26 271.90 724.27 271.90 Z"></path><path fill="#ff595e" d="M 765.68 248.06 Q 765.68 248.06 765.17 252.01 764.67 255.97 762.54 258.99 760.42 262.02 758.87 264.43 757.33 266.83 755.94 269.23 754.56 271.63 753.60 273.55 752.64 275.47 751.66 278.11 750.68 280.75 750.96 282.90 751.24 285.05 753.18 286.47 755.12 287.89 757.99 289.35 760.86 290.82 763.32 291.41 765.77 292.00 767.90 290.61 770.03 289.22 771.18 287.27 772.33 285.32 773.11 282.50 773.88 279.67 773.99 277.53 774.11 275.38 773.78 273.11 773.46 270.83 772.65 268.57 771.83 266.31 770.92 264.42 770.01 262.53 768.45 259.78 766.90 257.04 766.37 255.17 765.84 253.30 765.84 253.30 765.84 253.29 765.84 253.29 765.84 253.29 765.84 253.29 765.84 253.29 765.84 253.29 765.84 253.29 765.84 253.29 765.84 253.28 765.84 253.28 765.84 253.28 765.85 253.28 765.85 253.28 765.85 253.28 765.85 253.28 765.85 253.28 765.85 253.28 765.85 253.28 765.85 253.28 765.85 253.28 765.86 253.28 765.86 253.28 765.86 253.28 765.86 253.28 765.86 253.28 765.86 253.29 765.85 253.29 765.85 253.29 765.84 253.30 765.84 253.30 765.84 253.29 765.84 253.29 765.84 253.29 765.84 253.29 765.84 253.29 765.84 253.29 765.84 253.29 765.84 253.29 765.84 253.28 765.84 253.28 765.84 253.28 765.85 253.28 765.85 253.28 765.85 253.28 765.85 253.28 765.85 253.28 765.85 253.28 765.85 253.28 765.85 253.28 765.85 253.28 765.86 253.28 765.86 253.28 765.86 253.28 765.86 253.28 765.86 253.28 769.35 252.37 772.85 251.46 774.09 253.50 775.34 255.53 776.29 257.31 777.23 259.10 778.32 261.41 779.40 263.72 780.39 266.75 781.39 269.79 781.74 272.80 782.09 275.82 781.93 278.39 781.78 280.96 781.31 283.39 780.84 285.83 779.95 287.74 779.05 289.66 777.10 292.50 775.15 295.35 773.56 296.59 771.97 297.84 768.52 298.90 765.08 299.96 762.51 299.49 759.95 299.02 757.15 297.82 754.35 296.62 751.08 294.52 747.80 292.42 746.29 291.08 744.77 289.75 743.58 286.47 742.39 283.20 742.74 280.71 743.09 278.23 744.29 275.06 745.49 271.89 746.56 269.75 747.63 267.62 749.12 265.06 750.60 262.50 752.24 259.96 753.87 257.42 756.09 254.27 758.30 251.12 761.98 249.58 765.66 248.05 765.67 248.05 Z"></path><path fill="#ff595e" d="M 788.24 223.61 Q 788.24 223.61 791.67 224.29 795.10 224.96 797.07 227.82 799.04 230.68 800.79 234.30 802.54 237.92 803.56 241.67 804.58 245.43 805.00 248.13 805.42 250.83 805.60 253.03 805.78 255.24 805.88 257.62 805.98 260.00 804.93 263.28 803.88 266.56 802.66 268.51 801.43 270.47 799.91 272.90 798.39 275.32 797.03 277.52 795.67 279.71 794.37 282.00 793.07 284.30 792.02 286.17 790.98 288.05 789.65 290.67 788.31 293.29 787.48 295.24 786.64 297.18 786.10 299.14 785.56 301.10 782.82 305.02 780.08 308.95 780.08 308.94 780.07 308.94 780.07 308.94 780.06 308.94 778.45 306.19 776.84 303.44 777.38 301.09 777.91 298.75 778.57 296.45 779.23 294.16 780.17 291.98 781.11 289.80 782.55 286.98 783.99 284.16 785.05 282.25 786.11 280.35 787.49 277.92 788.87 275.49 790.24 273.29 791.61 271.08 793.13 268.65 794.65 266.22 796.29 262.42 797.93 258.62 797.72 255.32 797.51 252.03 797.18 249.74 796.84 247.45 796.08 244.40 795.32 241.34 793.86 238.25 792.40 235.15 790.87 232.83 789.33 230.50 788.78 227.06 788.23 223.62 788.24 223.62 Z"></path><path fill="#ff595e" d="M 569.88 411.69 Q 569.88 411.69 570.53 413.89 571.17 416.09 572.91 414.69 574.66 413.30 575.11 415.09 575.56 416.88 575.50 417.34 575.44 417.79 575.28 418.22 575.11 418.65 574.85 419.03 574.59 419.41 574.24 419.71 573.90 420.02 573.49 420.23 573.08 420.44 572.63 420.55 572.18 420.66 571.72 420.65 571.26 420.65 570.82 420.54 570.37 420.43 569.96 420.21 569.56 420.00 569.21 419.69 568.87 419.39 568.61 419.01 568.35 418.63 568.19 418.20 568.03 417.76 567.97 417.31 567.92 416.85 569.01 416.80 570.10 416.76 570.10 416.76 570.10 416.77 570.10 416.77 570.10 416.78 572.83 416.83 575.56 416.88 575.50 417.34 575.44 417.79 575.28 418.22 575.11 418.65 574.85 419.03 574.59 419.41 574.24 419.71 573.90 420.01 573.49 420.23 573.08 420.44 572.63 420.55 572.18 420.66 571.72 420.65 571.26 420.65 570.82 420.54 570.37 420.43 569.96 420.21 569.56 420.00 569.21 419.69 568.87 419.39 568.61 419.01 568.35 418.63 568.19 418.20 568.03 417.76 567.97 417.31 567.92 416.85 567.87 414.85 567.82 412.85 568.55 410.31 569.27 407.77 571.11 406.81 572.95 405.85 575.04 406.61 577.13 407.37 578.48 409.44 579.83 411.52 579.99 413.51 580.15 415.51 579.91 417.58 579.67 419.66 578.11 421.46 576.54 423.27 574.32 423.76 572.09 424.25 569.49 423.96 566.90 423.67 565.46 422.13 564.02 420.59 563.65 418.27 563.29 415.95 564.26 413.37 565.24 410.79 567.55 411.23 569.87 411.68 569.87 411.68 Z"></path><path fill="#ff595e" d="M 647.91 273.36 Q 647.91 273.36 649.91 275.21 651.90 277.06 649.81 280.40 647.71 283.73 647.70 283.73 647.70 283.73 647.69 283.73 647.69 283.73 645.80 280.40 643.90 277.06 645.90 275.21 647.89 273.36 647.90 273.36 Z"></path><path fill="#ff595e" d="M 648.59 312.09 Q 648.59 312.09 648.59 312.91 648.59 313.73 648.59 313.73 648.58 313.73 648.58 313.73 648.57 313.73 648.57 312.91 648.57 312.09 648.58 312.09 Z"></path><path fill="#ff595e" d="M 648.36 282.82 Q 648.36 282.82 650.35 286.50 652.35 290.18 652.35 292.55 652.35 294.93 652.35 298.05 652.35 301.17 652.35 303.47 652.35 305.77 653.00 308.66 653.65 311.54 654.48 315.34 655.32 319.13 655.85 322.32 656.38 325.50 656.54 327.65 656.69 329.80 656.71 332.11 656.72 334.41 656.72 337.09 656.72 339.78 656.62 342.10 656.53 344.42 656.39 346.89 656.26 349.35 656.10 352.07 655.94 354.79 655.88 357.54 655.82 360.29 655.79 363.29 655.76 366.29 655.64 369.61 655.52 372.93 654.93 378.67 654.34 384.42 653.91 388.09 653.49 391.77 653.12 394.83 652.75 397.88 652.42 401.86 652.10 405.83 651.96 407.91 651.82 409.98 651.76 412.28 651.70 414.58 651.67 417.77 651.63 420.96 651.86 423.32 652.10 425.68 652.79 428.77 653.48 431.86 653.89 434.43 654.30 436.99 654.45 439.84 654.60 442.69 652.66 444.87 650.73 447.05 650.73 447.05 650.72 447.05 650.72 447.05 650.71 447.05 648.64 443.52 646.57 439.99 646.27 437.64 645.98 435.29 645.40 432.49 644.83 429.68 644.40 427.58 643.97 425.49 643.80 423.19 643.63 420.90 643.67 417.64 643.70 414.38 643.77 411.91 643.83 409.45 643.98 407.31 644.12 405.17 644.46 401.05 644.81 396.93 645.17 393.88 645.54 390.84 645.96 387.22 646.38 383.60 646.95 378.12 647.53 372.63 647.64 369.42 647.76 366.21 647.79 363.16 647.82 360.10 647.89 357.21 647.96 354.32 648.11 351.62 648.27 348.92 648.40 346.50 648.53 344.08 648.63 340.25 648.72 336.43 648.71 333.73 648.71 331.04 648.59 328.84 648.46 326.63 647.96 323.64 647.46 320.65 646.67 317.05 645.88 313.45 645.11 309.62 644.35 305.79 644.35 303.48 644.35 301.17 644.35 298.05 644.35 294.93 644.35 292.55 644.35 290.18 646.34 286.50 648.34 282.82 648.35 282.82 Z"></path><path fill="#ff595e" d="M 572.79 437.23 Q 572.79 437.23 575.33 436.53 577.87 435.84 580.03 437.29 582.19 438.75 583.99 439.95 585.80 441.14 588.16 442.48 590.52 443.83 592.52 444.18 594.53 444.54 597.00 444.59 599.47 444.63 601.87 444.64 604.27 444.65 606.33 444.16 608.40 443.67 610.29 442.80 612.19 441.93 614.16 440.61 616.14 439.28 618.02 438.01 619.90 436.73 621.62 435.66 623.34 434.59 625.72 433.20 628.09 431.81 631.71 432.11 635.33 432.41 635.33 432.42 635.33 432.42 635.34 432.43 635.34 432.43 632.79 436.08 630.24 439.73 628.33 440.91 626.42 442.09 624.21 443.53 622.01 444.98 619.79 446.48 617.57 447.99 615.61 449.11 613.66 450.24 611.54 450.94 609.43 451.65 606.84 452.15 604.26 452.65 601.82 452.64 599.38 452.63 596.64 452.57 593.90 452.52 591.35 452.11 588.79 451.70 586.95 450.85 585.11 450.00 583.34 448.96 581.57 447.93 579.68 446.68 577.79 445.44 575.60 443.96 573.40 442.47 573.09 439.86 572.78 437.25 572.79 437.24 Z"></path><path fill="#ff595e" d="M 577.72 480.73 Q 577.72 480.73 579.41 479.12 581.10 477.51 580.45 473.08 579.80 468.66 580.14 465.72 580.47 462.78 580.79 460.37 581.11 457.96 581.68 455.25 582.24 452.54 582.39 452.18 582.54 451.82 582.73 451.37 582.91 450.93 583.19 450.54 583.47 450.15 583.84 449.84 584.21 449.53 584.64 449.31 585.08 449.10 585.55 448.99 586.02 448.89 586.50 448.90 586.98 448.91 587.45 449.04 587.91 449.17 588.33 449.40 588.75 449.64 589.11 449.96 589.46 450.29 589.73 450.70 589.99 451.10 590.15 451.55 590.31 452.01 590.36 452.49 590.40 452.97 590.33 453.45 590.26 453.92 590.87 457.42 591.48 460.91 591.61 462.99 591.74 465.06 592.00 469.05 592.27 473.04 592.48 476.89 592.70 480.74 592.80 485.21 592.89 489.69 592.93 492.46 592.97 495.23 593.31 497.90 593.65 500.57 594.35 502.54 595.06 504.51 596.24 506.43 597.42 508.35 599.38 506.16 601.34 503.97 602.35 502.09 603.36 500.21 604.47 496.96 605.57 493.72 605.84 491.41 606.10 489.10 605.99 488.16 605.88 487.23 605.85 486.75 605.81 486.27 605.89 485.79 605.97 485.32 606.16 484.87 606.35 484.43 606.64 484.05 606.94 483.66 607.31 483.36 607.69 483.06 608.12 482.85 608.56 482.65 609.03 482.55 609.50 482.46 609.99 482.48 610.47 482.50 610.93 482.64 611.39 482.78 611.81 483.02 612.23 483.26 612.57 483.60 612.92 483.93 613.17 484.34 613.43 484.75 613.58 485.21 613.73 485.67 614.72 488.79 615.70 491.92 616.27 494.06 616.85 496.19 617.41 498.14 617.98 500.09 618.66 502.58 619.34 505.08 621.26 508.28 623.17 511.48 624.96 513.93 626.75 516.37 628.55 518.67 630.35 520.98 630.73 521.37 631.11 521.76 631.36 522.17 631.62 522.58 631.77 523.04 631.92 523.50 631.95 523.98 631.99 524.46 631.91 524.93 631.83 525.41 631.63 525.85 631.44 526.29 631.15 526.68 630.86 527.06 630.48 527.36 630.11 527.67 629.67 527.87 629.23 528.07 628.76 528.17 628.29 528.26 627.80 528.24 627.32 528.21 626.86 528.08 626.40 527.94 625.98 527.69 625.57 527.45 625.22 527.11 624.88 526.78 624.74 524.08 624.60 521.38 624.65 519.11 624.69 516.85 624.93 514.20 625.16 511.56 625.44 509.28 625.72 507.01 626.24 504.31 626.77 501.62 627.64 499.66 628.51 497.71 630.81 496.00 633.11 494.29 633.12 494.30 633.12 494.30 633.12 494.31 633.12 494.31 634.67 496.98 636.22 499.65 635.39 501.57 634.55 503.49 634.10 505.74 633.66 507.98 633.39 510.13 633.13 512.27 632.91 514.72 632.69 517.16 631.90 519.46 631.11 521.76 631.36 522.17 631.62 522.58 631.77 523.04 631.92 523.50 631.95 523.98 631.99 524.46 631.91 524.93 631.83 525.41 631.63 525.85 631.44 526.29 631.15 526.68 630.86 527.06 630.48 527.36 630.11 527.67 629.67 527.87 629.23 528.07 628.76 528.17 628.29 528.26 627.80 528.24 627.32 528.21 626.86 528.08 626.40 527.94 625.98 527.69 625.57 527.45 625.22 527.11 624.88 526.78 623.83 525.56 622.79 524.34 621.53 522.71 620.28 521.09 618.42 518.53 616.56 515.97 614.10 511.60 611.64 507.22 610.96 504.77 610.29 502.31 609.71 500.29 609.12 498.26 608.59 496.28 608.06 494.29 606.97 490.76 605.88 487.23 605.85 486.75 605.81 486.27 605.89 485.79 605.97 485.32 606.16 484.88 606.35 484.43 606.64 484.05 606.93 483.66 607.31 483.36 607.68 483.06 608.12 482.85 608.56 482.65 609.03 482.55 609.50 482.46 609.99 482.48 610.47 482.50 610.93 482.64 611.39 482.78 611.81 483.02 612.22 483.26 612.57 483.60 612.92 483.93 613.17 484.34 613.43 484.75 613.58 485.21 613.73 485.67 613.90 487.73 614.07 489.80 613.65 492.90 613.24 496.01 612.62 498.05 612.00 500.09 611.20 502.04 610.41 504.00 609.29 506.06 608.18 508.12 606.15 511.34 604.12 514.56 602.53 515.90 600.95 517.24 598.58 517.25 596.22 517.26 593.99 515.69 591.76 514.12 590.59 512.45 589.41 510.78 588.19 508.50 586.97 506.22 586.37 504.06 585.76 501.90 585.37 498.62 584.97 495.35 584.93 492.60 584.90 489.85 584.81 485.52 584.72 481.19 584.50 477.37 584.28 473.56 583.91 467.69 583.53 461.83 583.25 459.36 582.97 456.90 582.75 454.36 582.54 451.82 582.73 451.37 582.91 450.93 583.19 450.54 583.47 450.15 583.84 449.84 584.21 449.53 584.64 449.31 585.08 449.10 585.55 448.99 586.02 448.89 586.50 448.90 586.98 448.91 587.45 449.04 587.91 449.17 588.33 449.40 588.75 449.64 589.11 449.96 589.46 450.29 589.72 450.70 589.99 451.10 590.15 451.55 590.31 452.01 590.36 452.49 590.40 452.97 590.33 453.44 590.26 453.92 590.11 454.29 589.96 454.65 589.50 456.83 589.04 459.01 588.73 461.35 588.42 463.69 588.09 466.62 587.75 469.56 587.41 472.57 587.07 475.58 585.71 479.80 584.36 484.01 581.70 484.62 579.04 485.23 578.38 482.99 577.72 480.75 577.72 480.74 Z"></path><path fill="#ff595e" d="M 643.11 505.84 Q 643.11 505.84 645.05 507.49 646.99 509.15 646.95 510.32 646.91 511.50 646.84 511.98 646.77 512.45 646.59 512.90 646.40 513.35 646.12 513.73 645.84 514.12 645.47 514.43 645.10 514.74 644.66 514.96 644.23 515.17 643.76 515.27 643.29 515.37 642.81 515.36 642.32 515.35 641.86 515.22 641.40 515.09 640.97 514.86 640.55 514.62 640.20 514.29 639.85 513.96 639.59 513.56 639.32 513.15 639.16 512.70 639.01 512.24 638.96 511.76 638.92 511.28 638.64 508.93 638.36 506.57 638.06 504.34 637.76 502.11 637.44 499.66 637.13 497.21 636.90 495.00 636.67 492.79 636.52 490.14 636.38 487.49 636.89 484.55 637.40 481.62 639.16 480.06 640.91 478.49 642.92 477.77 644.92 477.05 647.75 476.71 650.58 476.38 653.05 476.40 655.52 476.43 658.29 477.89 661.05 479.34 662.31 481.49 663.57 483.64 664.06 486.03 664.56 488.43 664.90 491.22 665.23 494.02 663.83 496.84 662.42 499.65 662.42 499.65 662.41 499.65 662.41 499.65 662.40 499.65 660.45 499.26 658.51 498.88 657.84 496.17 657.17 493.45 656.78 490.65 656.38 487.84 654.86 486.07 653.34 484.30 651.14 484.39 648.94 484.47 646.66 485.83 644.37 487.18 644.50 489.57 644.63 491.97 644.84 494.08 645.06 496.19 645.37 498.62 645.69 501.05 645.99 503.31 646.30 505.57 646.60 508.54 646.91 511.50 646.84 511.98 646.77 512.45 646.59 512.90 646.40 513.35 646.12 513.73 645.84 514.12 645.47 514.43 645.10 514.74 644.66 514.96 644.23 515.17 643.76 515.27 643.29 515.37 642.81 515.36 642.33 515.35 641.86 515.22 641.40 515.09 640.97 514.86 640.55 514.62 640.20 514.29 639.85 513.96 639.59 513.56 639.32 513.15 639.16 512.70 639.01 512.24 638.96 511.76 638.92 511.28 638.95 510.08 638.99 508.87 641.04 507.36 643.09 505.84 643.10 505.84 Z"></path><path fill="#ff595e" d="M 705.33 475.01 Q 705.33 475.01 706.32 478.80 707.30 482.58 705.65 487.19 703.99 491.79 702.08 496.39 700.18 500.99 698.82 504.22 697.46 507.44 696.35 510.06 695.23 512.68 694.24 514.62 693.24 516.55 692.19 518.43 691.14 520.30 689.93 522.03 688.73 523.76 687.50 526.05 686.28 528.33 685.64 530.61 684.99 532.89 684.68 535.09 684.36 537.29 683.63 539.56 682.90 541.83 680.53 542.67 678.17 543.50 678.16 543.50 678.16 543.50 678.15 543.50 678.15 543.50 677.29 539.74 676.44 535.98 676.79 533.65 677.15 531.33 677.68 529.25 678.22 527.17 679.12 524.97 680.01 522.77 681.12 520.93 682.23 519.10 683.68 517.09 685.13 515.08 686.50 512.32 687.87 509.55 688.98 506.94 690.09 504.33 691.44 501.13 692.79 497.92 694.63 493.50 696.47 489.08 698.04 484.72 699.62 480.37 702.47 477.69 705.31 475.00 705.32 475.01 Z"></path><path fill="#ff595e" d="M 719.52 519.02 Q 719.52 519.02 717.74 517.33 715.97 515.64 717.62 512.82 719.26 509.99 721.07 508.75 722.87 507.50 725.47 506.21 728.07 504.92 730.17 504.06 732.27 503.21 735.38 502.74 738.48 502.27 741.70 502.16 744.92 502.04 748.24 502.51 751.56 502.98 753.56 504.46 755.56 505.94 756.86 507.81 758.17 509.67 758.91 511.59 759.65 513.50 759.98 515.54 760.31 517.58 760.16 521.69 760.02 525.80 759.06 528.10 758.11 530.39 756.55 532.68 754.99 534.98 753.01 537.34 751.03 539.71 749.29 541.70 747.56 543.69 745.88 545.39 744.21 547.10 742.51 548.88 740.82 550.66 740.37 551.16 739.93 551.65 739.58 551.99 739.24 552.33 738.83 552.57 738.41 552.82 737.95 552.96 737.49 553.10 737.01 553.12 736.52 553.15 736.05 553.06 735.58 552.97 735.14 552.77 734.70 552.56 734.32 552.26 733.95 551.96 733.65 551.58 733.36 551.20 733.17 550.76 732.97 550.31 732.89 549.84 732.81 549.36 732.84 548.88 732.87 548.40 733.02 547.94 733.17 547.48 733.42 547.07 733.67 546.66 736.01 546.06 738.35 545.45 742.23 544.80 746.11 544.14 749.31 543.45 752.51 542.76 757.80 541.64 763.09 540.52 767.76 539.26 772.43 538.01 776.72 536.91 781.01 535.81 784.94 534.81 788.87 533.81 791.56 533.13 794.24 532.45 797.90 533.82 801.56 535.19 801.56 535.19 801.56 535.20 801.55 535.20 801.55 535.20 798.88 537.71 796.21 540.21 793.52 540.89 790.84 541.57 786.92 542.56 783.00 543.56 778.75 544.65 774.50 545.74 769.62 547.04 764.75 548.34 759.47 549.46 754.19 550.58 750.78 551.31 747.37 552.04 743.65 551.85 739.93 551.65 739.58 551.99 739.24 552.33 738.83 552.57 738.41 552.82 737.95 552.96 737.49 553.10 737.01 553.12 736.52 553.15 736.05 553.06 735.58 552.97 735.14 552.77 734.70 552.56 734.33 552.26 733.95 551.96 733.65 551.58 733.36 551.20 733.17 550.76 732.97 550.32 732.89 549.84 732.81 549.37 732.84 548.88 732.87 548.40 733.02 547.94 733.17 547.48 733.42 547.07 733.67 546.66 734.28 545.98 734.88 545.30 736.70 543.39 738.51 541.48 740.02 539.95 741.53 538.43 743.22 536.49 744.90 534.56 746.67 532.47 748.43 530.39 750.27 527.53 752.11 524.67 752.25 521.68 752.39 518.70 751.90 516.33 751.41 513.95 749.59 511.98 747.77 510.01 745.03 510.06 742.29 510.10 739.29 510.31 736.30 510.51 734.10 511.23 731.89 511.95 730.04 512.92 728.18 513.90 726.03 515.36 723.87 516.83 721.70 517.93 719.54 519.02 719.53 519.02 Z"></path><path fill="#ff595e" d="M 581.39 346.45 Q 581.39 346.45 583.38 349.15 585.38 351.85 585.38 355.08 585.38 358.30 585.38 360.68 585.38 363.06 585.46 365.69 585.55 368.32 585.83 371.45 586.12 374.58 586.17 376.58 586.21 378.58 584.78 380.66 583.34 382.74 583.34 382.74 583.33 382.74 583.33 382.75 583.32 382.75 580.86 381.22 578.39 379.69 578.26 377.35 578.13 375.01 577.85 371.89 577.56 368.76 577.47 365.91 577.38 363.06 577.38 360.68 577.38 358.30 577.38 355.08 577.38 351.85 579.37 349.15 581.37 346.45 581.38 346.45 Z"></path><path fill="#ff595e" d="M 600.91 350.50 Q 600.91 350.50 601.58 353.90 602.26 357.30 601.13 359.36 599.99 361.42 598.76 363.75 597.52 366.08 597.50 368.17 597.48 370.25 599.76 371.32 602.04 372.39 605.08 373.03 608.11 373.67 610.88 374.46 613.65 375.24 615.57 375.98 617.50 376.72 619.10 375.35 620.69 373.98 621.36 371.67 622.03 369.36 622.27 366.46 622.51 363.56 621.40 361.55 620.30 359.55 618.49 356.93 616.67 354.30 614.61 353.83 612.54 353.35 610.56 354.10 608.57 354.84 606.42 355.73 604.28 356.62 604.27 356.62 604.27 356.62 604.26 356.62 604.26 356.62 603.43 353.17 602.61 349.71 604.50 348.30 606.39 346.89 609.22 346.13 612.06 345.37 614.80 345.55 617.55 345.74 620.32 347.63 623.09 349.53 625.21 352.62 627.33 355.72 628.27 357.51 629.22 359.30 629.84 361.53 630.46 363.75 630.12 367.55 629.78 371.36 628.85 374.38 627.93 377.40 626.12 380.44 624.32 383.48 621.74 384.42 619.17 385.37 616.88 384.77 614.59 384.17 611.85 383.18 609.10 382.19 606.26 381.53 603.42 380.87 600.34 380.06 597.26 379.26 594.73 377.82 592.20 376.38 590.97 374.34 589.75 372.30 589.57 369.35 589.39 366.40 589.90 364.41 590.42 362.41 591.71 359.98 592.99 357.55 593.97 355.80 594.95 354.05 597.92 352.27 600.89 350.49 600.90 350.50 Z"></path><path fill="#ff595e" d="M 163.04 160.98 Q 163.04 160.98 162.89 160.22 162.74 159.46 162.74 159.46 162.75 159.46 162.75 159.46 162.76 159.46 162.91 160.22 163.06 160.98 163.05 160.98 Z"></path><path fill="#ff595e" d="M 738.75 412.97 Q 738.75 412.97 740.74 416.63 742.74 420.29 742.66 423.74 742.59 427.18 740.56 425.26 738.53 423.33 738.53 423.33 738.54 423.32 738.54 423.32 738.54 423.32 742.22 422.06 745.90 420.81 747.96 421.80 750.01 422.79 751.04 425.52 752.07 428.24 750.90 429.88 749.73 431.52 747.13 432.80 744.54 434.09 741.37 434.43 738.20 434.76 736.55 433.39 734.91 432.02 734.75 429.40 734.60 426.77 734.67 423.53 734.74 420.29 736.73 416.63 738.73 412.97 738.74 412.97 Z"></path><path fill="#8ac926" d="M 573.86 422.72 Q 573.86 422.72 572.64 420.30 571.42 417.87 572.41 415.48 573.39 413.08 574.48 411.23 575.56 409.37 576.54 407.06 577.52 404.75 578.71 402.44 579.90 400.12 580.94 398.04 581.98 395.96 583.35 393.78 584.72 391.59 585.86 389.49 587.00 387.39 588.27 383.93 589.54 380.46 591.11 376.89 592.67 373.33 594.25 370.39 595.84 367.45 596.98 365.47 598.13 363.49 599.46 361.14 600.78 358.80 601.81 357.05 602.83 355.30 603.69 353.42 604.55 351.55 605.67 348.96 606.78 346.38 607.78 343.89 608.79 341.40 609.73 339.31 610.68 337.23 611.78 334.50 612.87 331.76 613.73 329.07 614.59 326.39 615.99 323.30 617.38 320.22 618.65 317.46 619.91 314.69 620.78 312.83 621.64 310.97 622.46 309.14 623.27 307.31 624.53 305.29 625.79 303.28 627.05 300.75 628.31 298.23 629.15 296.05 630.00 293.87 630.80 291.93 631.60 290.00 632.72 288.12 633.83 286.24 635.31 284.12 636.79 282.01 638.25 280.22 639.72 278.42 641.09 276.93 642.45 275.44 644.08 273.58 645.71 271.71 648.16 271.44 650.61 271.18 650.62 271.18 650.62 271.18 650.63 271.19 650.63 271.19 650.79 274.49 650.95 277.79 649.60 279.38 648.24 280.96 646.63 282.71 645.02 284.47 643.68 286.21 642.33 287.96 640.84 290.17 639.36 292.38 638.38 294.64 637.40 296.91 636.55 299.09 635.70 301.28 634.87 303.15 634.04 305.01 632.88 306.89 631.72 308.77 630.58 310.94 629.44 313.11 628.32 315.55 627.20 317.99 625.91 320.81 624.62 323.63 623.41 326.25 622.20 328.87 621.59 330.78 620.99 332.69 620.27 334.67 619.56 336.64 618.77 338.56 617.98 340.49 617.08 342.49 616.17 344.48 615.13 347.06 614.09 349.64 612.95 352.28 611.81 354.92 610.55 357.50 609.29 360.08 608.13 362.13 606.97 364.19 605.49 366.69 604.02 369.20 602.73 371.54 601.44 373.88 599.92 376.94 598.39 379.99 597.02 383.49 595.64 386.98 594.92 388.93 594.20 390.88 592.76 393.49 591.32 396.11 590.23 397.83 589.13 399.54 588.04 401.72 586.95 403.89 585.92 405.87 584.90 407.85 584.08 409.69 583.27 411.54 581.97 413.97 580.67 416.41 579.79 418.55 578.91 420.68 576.40 421.71 573.88 422.73 573.87 422.72 Z"></path><path fill="#8ac926" d="M 650.66 271.13 Q 650.66 271.13 653.95 272.64 657.23 274.14 658.40 275.92 659.57 277.71 661.00 279.79 662.43 281.86 663.62 283.88 664.82 285.90 665.95 287.93 667.08 289.96 668.78 292.89 670.48 295.83 671.97 297.94 673.46 300.04 675.22 302.00 676.97 303.96 678.75 305.99 680.52 308.02 682.29 310.34 684.05 312.65 685.35 314.44 686.65 316.22 688.00 318.19 689.36 320.16 690.57 321.84 691.77 323.53 692.95 325.48 694.13 327.43 695.26 329.63 696.39 331.83 697.50 334.07 698.60 336.31 699.90 339.06 701.20 341.80 703.16 344.99 705.11 348.18 706.35 349.90 707.59 351.61 709.74 354.44 711.88 357.26 713.15 358.85 714.43 360.45 715.81 362.61 717.19 364.77 719.19 367.89 721.18 371.00 722.39 372.75 723.59 374.51 724.85 376.95 726.10 379.40 726.68 381.50 727.26 383.60 728.22 387.70 729.18 391.81 729.84 394.89 730.51 397.97 731.49 399.96 732.46 401.96 733.67 403.66 734.88 405.37 735.99 407.63 737.11 409.88 738.17 411.93 739.24 413.98 740.67 415.79 742.10 417.60 743.43 419.19 744.76 420.78 744.20 423.94 743.63 427.11 743.62 427.12 743.62 427.12 743.61 427.12 743.61 427.12 740.07 425.30 736.53 423.48 735.06 421.79 733.60 420.10 732.50 418.16 731.40 416.21 730.49 414.41 729.58 412.61 728.62 410.78 727.65 408.95 726.28 406.98 724.91 405.01 723.82 402.44 722.73 399.86 722.05 396.67 721.36 393.49 720.45 389.60 719.55 385.71 718.26 382.36 716.98 379.02 715.75 377.22 714.52 375.43 712.46 372.21 710.39 368.98 708.77 366.51 707.14 364.03 705.35 361.78 703.56 359.53 702.33 357.91 701.11 356.30 699.80 354.49 698.50 352.68 697.30 350.90 696.09 349.11 695.04 347.19 694.00 345.27 692.71 342.56 691.43 339.85 690.30 337.58 689.18 335.30 688.24 333.45 687.30 331.60 686.15 329.68 685.00 327.76 683.82 326.12 682.63 324.48 681.44 322.75 680.25 321.02 678.81 319.03 677.36 317.04 675.92 315.15 674.47 313.26 672.73 311.26 670.99 309.26 669.36 307.45 667.74 305.64 665.62 302.69 663.49 299.74 661.79 296.80 660.09 293.85 659.01 291.91 657.92 289.96 656.88 288.18 655.83 286.40 654.35 284.24 652.87 282.08 651.66 280.23 650.44 278.37 650.54 274.76 650.64 271.14 650.65 271.14 Z"></path><path fill="#8ac926" d="M 743.79 427.37 Q 743.79 427.37 740.34 429.37 736.89 431.36 733.45 431.36 730.00 431.36 727.24 431.36 724.48 431.36 721.82 431.36 719.15 431.36 716.63 431.36 714.11 431.36 711.63 431.18 709.14 430.99 705.39 430.34 701.63 429.68 698.32 429.18 695.02 428.68 692.34 428.57 689.66 428.45 686.00 428.43 682.34 428.41 680.02 428.31 677.70 428.22 675.69 428.09 673.68 427.96 670.25 427.68 666.82 427.40 664.65 427.22 662.48 427.04 660.16 427.01 657.84 426.98 654.32 426.98 650.80 426.97 648.69 427.06 646.57 427.16 642.90 427.21 639.24 427.27 636.37 427.28 633.51 427.29 631.30 427.22 629.10 427.14 627.06 427.00 625.02 426.86 622.10 426.84 619.19 426.81 616.85 426.81 614.51 426.80 612.50 426.80 610.48 426.80 607.68 426.91 604.88 427.02 602.59 427.04 600.30 427.06 598.20 427.06 596.10 427.07 593.36 427.00 590.62 426.93 588.54 426.80 586.45 426.67 583.63 426.65 580.81 426.63 578.56 427.15 576.30 427.66 573.42 427.92 570.54 428.19 568.36 426.26 566.18 424.34 566.18 424.34 566.18 424.34 566.18 424.34 566.18 424.34 566.18 424.34 566.18 424.34 566.18 424.34 566.17 424.34 566.17 424.33 566.17 424.33 566.17 424.33 566.17 424.33 566.17 424.33 566.17 424.33 566.17 424.33 566.17 424.33 566.17 424.32 566.17 424.32 566.18 424.32 566.18 424.32 566.18 424.32 566.18 424.32 566.18 424.32 566.18 424.32 566.18 424.32 566.18 424.32 566.18 424.32 566.18 424.33 566.18 424.33 566.18 424.34 566.18 424.34 566.18 424.34 566.18 424.34 566.18 424.34 566.18 424.34 566.18 424.34 566.18 424.34 566.17 424.34 566.17 424.33 566.17 424.33 566.17 424.33 566.17 424.33 566.17 424.33 566.17 424.33 566.17 424.33 566.17 424.33 566.17 424.32 566.17 424.32 566.18 424.32 566.18 424.32 566.18 424.32 566.18 424.32 566.18 424.32 566.18 424.32 566.18 424.32 566.18 424.32 568.26 422.26 570.34 420.19 572.96 419.89 575.58 419.59 578.19 419.11 580.81 418.64 583.83 418.66 586.86 418.68 588.96 418.81 591.06 418.94 593.57 419.01 596.09 419.07 599.17 419.06 602.26 419.05 604.74 419.00 607.22 418.96 609.73 418.88 612.23 418.80 614.48 418.80 616.73 418.80 619.36 418.82 621.99 418.83 624.88 418.90 627.77 418.97 630.63 419.13 633.49 419.29 636.32 419.28 639.16 419.27 642.69 419.22 646.23 419.16 650.45 419.07 654.68 418.97 657.73 418.99 660.79 419.00 662.96 419.09 665.13 419.18 667.85 419.44 670.56 419.70 674.30 419.96 678.03 420.23 680.20 420.32 682.37 420.41 686.12 420.43 689.88 420.46 692.96 420.60 696.04 420.74 699.54 421.28 703.04 421.81 706.40 422.41 709.76 423.02 711.94 423.19 714.11 423.36 716.63 423.36 719.15 423.36 721.82 423.36 724.48 423.36 727.24 423.36 730.00 423.36 733.45 423.36 736.89 423.36 740.34 425.36 743.79 427.35 743.79 427.36 Z"></path><path fill="#8ac926" d="M 591.28 266.67 Q 591.28 266.67 591.28 266.67 591.28 266.67 591.27 266.68 591.27 266.68 591.28 266.67 Z"></path>
</svg>