<svg width="980" height="551" xmlns="http://www.w3.org/2000/svg" xmlns:xlink="http://www.w3.org/1999/xlink">
<path fill="#8ac926" d="M 322.63 297.54 Q 322.63 297.54 322.63 297.55 322.63 297.55 322.63 297.56 322.63 297.56 322.63 297.55 Z"></path><path fill="#8ac926" d="M 323.50 298.12 Q 323.50 298.12 323.49 298.13 323.49 298.13 323.49 298.13 323.48 298.14 323.49 298.13 Z"></path><path fill="#8ac926" d="M 583.70 240.19 Q 583.70 240.19 583.70 240.19 583.70 240.18 583.70 240.18 583.70 240.17 583.70 240.18 Z"></path><path fill="#8ac926" d="M 583.88 240.75 Q 583.88 240.75 583.88 240.75 583.87 240.76 583.87 240.76 583.87 240.77 583.87 240.76 Z"></path><path fill="#8ac926" d="M 342.62 161.94 Q 342.62 161.94 342.62 161.94 342.62 161.95 342.62 161.95 342.62 161.96 342.62 161.95 Z"></path><path fill="#8ac926" d="M 334.33 181.30 Q 334.33 181.30 334.34 181.30 334.34 181.30 334.35 181.30 334.35 181.30 334.34 181.30 Z"></path><path fill="#8ac926" d="M 334.92 181.46 Q 334.92 181.46 334.92 181.47 334.92 181.47 334.91 181.47 334.91 181.48 334.92 181.47 Z"></path><path fill="#8ac926" d="M 334.92 181.46 Q 334.92 181.46 334.92 181.47 334.92 181.47 334.91 181.47 334.91 181.48 334.92 181.47 Z"></path>
</svg>