<svg width="980" height="551" xmlns="http://www.w3.org/2000/svg" xmlns:xlink="http://www.w3.org/1999/xlink">
<path fill="#8ac926" d="M 235.71 142.38 Q 235.71 142.38 237.83 142.39 239.96 142.39 242.20 142.46 244.44 142.52 245.41 142.65 246.37 142.78 246.83 142.90 247.30 143.03 247.72 143.27 248.14 143.50 248.49 143.83 248.85 144.16 249.11 144.57 249.37 144.97 249.53 145.42 249.69 145.88 249.74 146.36 249.78 146.84 249.71 147.32 249.64 147.79 249.46 148.24 249.27 148.69 248.99 149.08 248.71 149.46 248.34 149.77 247.97 150.08 247.53 150.30 247.10 150.51 246.63 150.61 246.16 150.72 245.68 150.70 245.20 150.69 243.54 149.02 241.88 147.35 244.25 147.92 246.61 148.49 244.05 148.89 241.48 149.29 239.69 146.94 237.89 144.58 237.90 144.58 237.90 144.57 237.90 144.57 237.90 144.56 239.77 143.60 241.64 142.65 244.00 142.71 246.37 142.78 246.83 142.90 247.30 143.03 247.72 143.27 248.14 143.50 248.49 143.83 248.85 144.16 249.11 144.57 249.37 144.97 249.53 145.42 249.69 145.88 249.74 146.36 249.78 146.84 249.71 147.32 249.64 147.79 249.46 148.24 249.27 148.69 248.99 149.08 248.71 149.46 248.34 149.77 247.97 150.08 247.53 150.30 247.10 150.51 246.63 150.61 246.16 150.72 245.68 150.70 245.20 150.69 244.58 150.64 243.96 150.60 241.59 150.14 239.23 149.68 236.28 148.07 233.34 146.45 234.52 144.42 235.69 142.39 235.70 142.38 Z"></path><path fill="#8ac926" d="M 309.75 143.19 Q 309.75 143.19 311.91 143.30 314.06 143.42 314.55 145.20 315.04 146.98 315.02 147.46 315.01 147.95 314.88 148.41 314.75 148.87 314.51 149.29 314.27 149.71 313.94 150.06 313.61 150.41 313.20 150.67 312.79 150.93 312.34 151.09 311.88 151.24 311.40 151.29 310.92 151.33 310.44 151.25 309.97 151.18 309.52 150.99 309.08 150.81 308.69 150.52 308.30 150.23 308.00 149.86 307.69 149.49 307.48 149.06 307.27 148.62 307.17 148.15 307.07 147.68 306.64 148.03 306.21 148.38 305.81 148.12 305.40 147.87 305.07 147.52 304.73 147.18 304.49 146.76 304.25 146.35 304.11 145.89 303.98 145.43 303.95 144.95 303.93 144.47 304.03 144.00 304.12 143.53 304.32 143.09 304.53 142.66 304.83 142.29 305.13 141.91 305.51 141.62 305.89 141.33 306.34 141.14 306.78 140.95 307.25 140.87 307.72 140.79 308.20 140.83 308.68 140.87 309.14 141.02 309.59 141.17 310.76 143.36 311.92 145.56 311.92 145.56 311.92 145.57 311.92 145.57 311.91 145.58 309.06 146.98 306.21 148.38 305.81 148.12 305.40 147.87 305.07 147.52 304.73 147.18 304.49 146.76 304.25 146.35 304.11 145.89 303.98 145.43 303.95 144.95 303.93 144.47 304.03 144.00 304.12 143.53 304.32 143.10 304.53 142.66 304.83 142.29 305.13 141.91 305.51 141.62 305.89 141.33 306.34 141.14 306.78 140.95 307.25 140.87 307.72 140.79 308.20 140.83 308.68 140.87 309.13 141.02 309.59 141.17 310.93 141.83 312.28 142.50 313.66 144.74 315.04 146.98 315.02 147.46 315.01 147.95 314.88 148.41 314.75 148.87 314.51 149.29 314.27 149.71 313.94 150.06 313.61 150.41 313.20 150.67 312.79 150.93 312.34 151.09 311.88 151.24 311.40 151.29 310.92 151.33 310.44 151.25 309.97 151.18 309.52 150.99 309.08 150.81 308.69 150.52 308.30 150.23 308.00 149.86 307.69 149.49 307.48 149.06 307.27 148.62 307.17 148.15 307.07 147.68 306.79 146.88 306.51 146.07 308.12 144.63 309.73 143.19 309.74 143.19 Z"></path><path fill="#8ac926" d="M 387.37 147.21 Q 387.37 147.21 385.97 149.26 384.56 151.31 381.91 151.08 379.25 150.85 377.72 150.46 376.18 150.08 375.75 149.91 375.31 149.74 374.92 149.47 374.54 149.20 374.23 148.84 373.92 148.49 373.71 148.07 373.49 147.65 373.38 147.20 373.28 146.74 373.28 146.27 373.28 145.80 373.40 145.35 373.51 144.89 373.74 144.48 373.96 144.06 374.27 143.72 374.59 143.37 374.97 143.10 375.36 142.84 375.80 142.68 376.24 142.51 376.71 142.46 377.18 142.41 377.64 142.47 378.11 142.53 379.36 144.19 380.61 145.86 380.61 145.87 380.61 145.87 380.61 145.88 380.61 145.88 378.40 147.98 376.18 150.08 375.75 149.91 375.31 149.74 374.92 149.47 374.54 149.20 374.23 148.84 373.92 148.49 373.71 148.07 373.49 147.65 373.38 147.20 373.28 146.74 373.28 146.27 373.28 145.80 373.40 145.35 373.51 144.89 373.74 144.48 373.96 144.07 374.27 143.72 374.58 143.37 374.97 143.10 375.36 142.84 375.80 142.68 376.24 142.51 376.71 142.46 377.17 142.41 377.64 142.47 378.11 142.53 378.54 142.60 378.98 142.68 381.62 143.00 384.25 143.32 385.81 145.25 387.37 147.19 387.37 147.20 Z"></path><path fill="#8ac926" d="M 453.11 146.71 Q 453.11 146.71 452.79 144.48 452.46 142.24 454.49 141.28 456.52 140.33 457.94 140.14 459.36 139.96 459.84 139.99 460.32 140.02 460.78 140.16 461.24 140.30 461.65 140.55 462.06 140.80 462.40 141.14 462.74 141.48 462.99 141.89 463.23 142.30 463.38 142.75 463.52 143.21 463.55 143.69 463.58 144.17 463.49 144.64 463.41 145.11 463.21 145.55 463.02 145.99 462.72 146.36 462.43 146.74 462.05 147.04 461.67 147.33 461.23 147.53 460.80 147.73 460.33 147.82 459.86 147.90 457.73 146.23 455.61 144.55 455.61 144.55 455.60 144.55 455.60 144.54 455.60 144.54 457.48 142.25 459.36 139.96 459.84 139.99 460.32 140.02 460.78 140.16 461.24 140.30 461.65 140.55 462.06 140.80 462.40 141.14 462.74 141.48 462.99 141.89 463.23 142.30 463.38 142.75 463.52 143.21 463.55 143.69 463.58 144.17 463.49 144.64 463.41 145.11 463.21 145.55 463.02 145.99 462.72 146.36 462.43 146.74 462.05 147.04 461.67 147.33 461.24 147.53 460.80 147.73 460.33 147.82 459.86 147.90 458.52 148.30 457.18 148.70 455.15 147.71 453.12 146.72 453.12 146.72 Z"></path><path fill="#ff595e" d="M 242.32 123.88 Q 242.32 123.88 242.32 123.88 242.32 123.88 242.33 123.88 242.33 123.89 242.32 123.88 Z"></path><path fill="#ff595e" d="M 241.70 88.01 Q 241.70 88.01 243.69 90.36 245.69 92.72 245.69 95.91 245.69 99.10 245.69 102.34 245.69 105.58 245.61 108.84 245.53 112.11 245.19 114.56 244.86 117.02 244.59 119.04 244.33 121.07 244.19 123.83 244.04 126.59 244.00 128.82 243.95 131.06 243.85 133.28 243.74 135.50 241.77 137.04 239.80 138.58 239.80 138.58 239.80 138.58 239.80 138.58 239.80 138.58 239.80 138.58 239.80 138.58 239.80 138.58 239.80 138.59 239.80 138.59 239.79 138.59 239.79 138.59 239.79 138.59 239.79 138.59 239.79 138.59 239.79 138.59 239.79 138.59 239.79 138.59 239.78 138.59 239.78 138.58 239.78 138.58 239.78 138.58 239.78 138.58 239.78 138.58 239.78 138.58 239.78 138.58 239.78 138.58 239.79 138.58 239.79 138.58 239.80 138.58 239.80 138.58 239.80 138.58 239.80 138.58 239.80 138.58 239.80 138.58 239.80 138.58 239.80 138.58 239.80 138.58 239.80 138.59 239.80 138.59 239.79 138.59 239.79 138.59 239.79 138.59 239.79 138.59 239.79 138.59 239.79 138.59 239.79 138.59 239.79 138.59 239.78 138.59 239.78 138.58 239.78 138.58 239.78 138.58 239.78 138.58 239.78 138.58 239.78 138.58 239.78 138.58 239.78 138.58 237.86 135.96 235.94 133.34 235.96 130.94 235.98 128.53 236.10 126.38 236.21 124.22 236.30 122.14 236.40 120.06 236.66 118.00 236.93 115.95 237.23 113.82 237.54 111.70 237.61 108.64 237.69 105.58 237.69 102.34 237.69 99.10 237.69 95.91 237.69 92.72 239.68 90.36 241.68 88.01 241.69 88.01 Z"></path><path fill="#ff595e" d="M 238.21 93.62 Q 238.21 93.62 238.65 96.63 239.08 99.64 237.71 101.74 236.34 103.84 235.81 105.28 235.28 106.73 235.06 107.15 234.83 107.58 234.51 107.94 234.19 108.30 233.79 108.57 233.39 108.84 232.94 109.01 232.49 109.18 232.01 109.23 231.53 109.29 231.05 109.23 230.57 109.17 230.12 108.99 229.67 108.82 229.28 108.55 228.88 108.27 228.57 107.91 228.25 107.54 228.03 107.12 227.80 106.69 227.69 106.22 227.58 105.75 227.58 105.27 227.58 104.79 227.70 104.32 227.82 103.85 228.73 101.15 229.64 98.45 233.03 95.70 236.43 92.95 238.00 91.63 239.57 90.31 241.85 88.12 244.13 85.93 244.67 85.23 245.21 84.53 245.42 84.10 245.64 83.67 245.95 83.30 246.26 82.93 246.65 82.65 247.04 82.36 247.48 82.18 247.93 82.00 248.41 81.93 248.88 81.86 249.36 81.90 249.84 81.95 250.30 82.11 250.75 82.27 251.16 82.54 251.56 82.80 251.89 83.15 252.22 83.51 252.45 83.93 252.69 84.35 252.81 84.81 252.94 85.28 252.95 85.76 252.96 86.24 252.86 86.71 252.76 87.18 253.22 89.51 253.69 91.83 254.07 94.04 254.45 96.26 254.65 98.52 254.85 100.77 253.25 103.01 251.65 105.25 251.64 105.25 251.64 105.25 251.63 105.25 251.63 105.25 249.22 102.37 246.80 99.49 246.52 97.27 246.24 95.06 245.71 92.47 245.17 89.88 245.19 87.21 245.21 84.53 245.42 84.10 245.64 83.67 245.95 83.30 246.26 82.93 246.65 82.65 247.04 82.36 247.48 82.18 247.93 82.00 248.41 81.93 248.88 81.86 249.36 81.90 249.84 81.95 250.30 82.11 250.75 82.27 251.16 82.53 251.56 82.80 251.89 83.15 252.22 83.51 252.45 83.93 252.69 84.35 252.81 84.81 252.94 85.28 252.95 85.76 252.96 86.24 252.86 86.71 252.76 87.18 251.97 88.53 251.18 89.88 249.47 91.76 247.76 93.63 246.23 95.04 244.70 96.45 242.97 97.90 241.23 99.35 239.50 100.64 237.78 101.93 236.53 104.33 235.28 106.73 235.06 107.15 234.83 107.58 234.51 107.94 234.19 108.30 233.79 108.57 233.39 108.84 232.94 109.01 232.49 109.18 232.01 109.23 231.53 109.29 231.05 109.23 230.57 109.17 230.12 109.00 229.67 108.82 229.28 108.55 228.88 108.27 228.57 107.91 228.25 107.54 228.03 107.12 227.80 106.69 227.69 106.22 227.58 105.75 227.58 105.27 227.58 104.79 227.70 104.32 227.82 103.85 227.92 103.68 228.02 103.50 228.78 101.56 229.54 99.63 230.95 97.46 232.36 95.30 235.28 94.46 238.19 93.61 238.20 93.62 Z"></path><path fill="#ff595e" d="M 242.77 150.81 Q 242.77 150.81 244.76 154.43 246.76 158.06 246.76 161.27 246.76 164.48 246.76 167.64 246.76 170.81 246.76 174.28 246.76 177.76 246.76 180.54 246.76 183.31 246.76 185.87 246.76 188.44 246.76 190.63 246.76 192.83 246.76 195.37 246.76 197.91 246.61 199.67 246.45 201.43 246.38 201.90 246.31 202.38 246.13 202.83 245.95 203.27 245.66 203.66 245.38 204.05 245.01 204.36 244.64 204.67 244.21 204.89 243.78 205.10 243.31 205.20 242.83 205.31 242.35 205.29 241.87 205.28 241.41 205.15 240.94 205.03 240.52 204.79 240.10 204.56 239.75 204.23 239.39 203.90 239.13 203.49 238.87 203.09 238.71 202.64 238.55 202.18 238.50 201.70 238.46 201.22 237.06 199.11 235.67 196.99 234.51 194.62 233.35 192.26 231.91 189.23 230.46 186.21 229.25 183.46 228.04 180.72 227.09 178.41 226.13 176.10 225.18 173.73 224.22 171.36 224.06 171.05 223.91 170.74 223.77 170.28 223.63 169.81 223.61 169.33 223.59 168.85 223.69 168.38 223.78 167.91 223.99 167.47 224.19 167.03 224.49 166.66 224.80 166.28 225.18 165.99 225.57 165.70 226.01 165.51 226.45 165.32 226.93 165.24 227.40 165.16 227.88 165.20 228.36 165.23 228.82 165.39 229.28 165.54 229.69 165.79 230.10 166.05 230.43 166.40 230.77 166.74 231.01 167.16 231.25 167.58 233.13 169.31 235.00 171.05 236.25 172.76 237.50 174.47 239.54 177.72 241.58 180.96 243.16 184.01 244.74 187.05 245.65 189.38 246.57 191.70 247.11 193.84 247.65 195.98 247.99 198.71 248.33 201.45 248.49 203.20 248.65 204.96 248.61 205.44 248.58 205.92 248.43 206.38 248.28 206.84 248.03 207.25 247.78 207.66 247.43 208.00 247.09 208.34 246.67 208.58 246.26 208.83 245.80 208.97 245.34 209.11 244.85 209.13 244.37 209.15 243.90 209.06 243.43 208.97 242.99 208.77 242.55 208.57 242.17 208.27 241.80 207.97 241.50 207.58 241.21 207.20 241.02 206.76 240.82 206.32 240.74 205.84 240.66 205.37 241.39 203.32 242.12 201.27 242.99 198.93 243.86 196.59 244.61 194.03 245.36 191.48 245.67 189.39 245.98 187.29 246.58 185.08 247.19 182.86 250.46 181.44 253.74 180.02 253.74 180.02 253.74 180.02 253.75 180.03 253.75 180.03 253.92 183.55 254.09 187.06 253.81 189.13 253.52 191.21 253.10 193.32 252.68 195.44 251.98 197.51 251.28 199.57 249.96 202.26 248.65 204.96 248.61 205.44 248.58 205.92 248.43 206.38 248.28 206.84 248.03 207.25 247.78 207.66 247.43 208.00 247.09 208.34 246.67 208.58 246.26 208.83 245.80 208.97 245.34 209.11 244.85 209.13 244.37 209.15 243.90 209.06 243.43 208.97 242.99 208.77 242.55 208.57 242.17 208.27 241.80 207.97 241.50 207.58 241.21 207.20 241.02 206.76 240.82 206.32 240.74 205.84 240.66 205.37 240.60 204.57 240.55 203.77 240.31 201.36 240.06 198.95 239.54 196.66 239.03 194.37 238.26 192.42 237.50 190.46 236.15 187.84 234.81 185.23 232.92 182.20 231.03 179.18 229.01 176.57 226.99 173.97 225.45 172.35 223.91 170.74 223.77 170.28 223.63 169.81 223.61 169.33 223.59 168.85 223.69 168.38 223.78 167.91 223.99 167.47 224.19 167.03 224.49 166.66 224.80 166.28 225.18 165.99 225.57 165.70 226.01 165.51 226.45 165.32 226.93 165.24 227.40 165.16 227.88 165.20 228.36 165.23 228.82 165.39 229.28 165.54 229.69 165.79 230.10 166.05 230.43 166.40 230.77 166.74 231.01 167.16 231.25 167.57 231.49 168.07 231.72 168.56 232.62 170.80 233.52 173.05 234.44 175.27 235.36 177.50 236.52 180.13 237.67 182.76 239.11 185.75 240.54 188.74 242.47 192.53 244.39 196.31 245.42 198.87 246.45 201.42 246.38 201.90 246.31 202.38 246.13 202.83 245.95 203.27 245.66 203.66 245.38 204.05 245.01 204.36 244.64 204.67 244.21 204.89 243.78 205.10 243.31 205.20 242.84 205.31 242.35 205.29 241.87 205.28 241.41 205.15 240.94 205.03 240.52 204.79 240.10 204.56 239.75 204.23 239.39 203.90 239.13 203.50 238.87 203.09 238.71 202.64 238.55 202.18 238.50 201.70 238.46 201.22 238.61 199.57 238.76 197.91 238.76 195.37 238.76 192.83 238.76 190.63 238.76 188.44 238.76 185.87 238.76 183.31 238.76 180.54 238.76 177.76 238.76 174.28 238.76 170.81 238.76 167.64 238.76 164.48 238.76 161.27 238.76 158.06 240.75 154.43 242.75 150.81 242.76 150.81 Z"></path><path fill="#ff595e" d="M 231.02 393.83 Q 231.02 393.83 231.08 391.71 231.14 389.60 233.43 388.07 235.71 386.54 238.81 386.48 241.92 386.42 244.19 386.32 246.46 386.22 249.15 386.20 251.84 386.18 254.04 386.18 256.25 386.17 258.50 386.17 260.75 386.17 263.58 386.17 266.41 386.17 268.62 386.10 270.83 386.02 273.60 385.71 276.36 385.40 280.07 385.06 283.78 384.72 286.75 384.45 289.72 384.18 292.27 383.91 294.83 383.64 297.81 383.35 300.79 383.06 303.34 382.80 305.89 382.54 308.48 382.45 311.06 382.36 314.01 382.34 316.95 382.33 320.66 382.32 324.37 382.32 327.40 382.32 330.43 382.32 333.49 382.32 336.55 382.32 341.15 381.97 345.76 381.62 347.95 381.49 350.14 381.37 353.97 381.29 357.81 381.21 361.39 381.11 364.96 381.01 368.51 380.95 372.06 380.90 375.00 380.89 377.94 380.88 380.18 380.87 382.43 380.87 385.30 380.69 388.18 380.50 390.78 380.28 393.39 380.06 396.49 379.80 399.60 379.54 402.22 379.47 404.85 379.40 407.47 379.33 410.09 379.26 412.16 379.22 414.22 379.17 416.53 379.16 418.84 379.15 421.80 380.03 424.75 380.92 422.68 383.80 420.60 386.69 420.60 386.68 420.60 386.68 420.59 386.68 420.59 386.68 420.28 386.91 419.98 387.15 417.71 387.15 415.45 387.16 413.04 387.20 410.63 387.25 407.78 387.33 404.93 387.40 402.57 387.46 400.20 387.52 398.18 387.65 396.16 387.78 394.06 388.02 391.96 388.25 389.30 388.46 386.65 388.66 384.54 388.77 382.43 388.87 380.19 388.87 377.95 388.88 375.05 388.89 372.14 388.90 368.76 388.95 365.39 389.00 361.65 389.11 357.91 389.21 354.25 389.28 350.59 389.35 348.53 389.47 346.47 389.58 341.51 389.95 336.55 390.32 333.49 390.32 330.43 390.32 327.40 390.32 324.37 390.32 320.67 390.32 316.97 390.33 314.09 390.34 311.20 390.36 308.99 390.42 306.77 390.49 304.15 390.76 301.53 391.03 298.59 391.31 295.64 391.60 293.07 391.87 290.50 392.14 287.45 392.42 284.39 392.70 280.90 393.02 277.42 393.33 274.38 393.67 271.34 394.01 268.88 394.09 266.41 394.17 263.58 394.17 260.75 394.17 258.51 394.17 256.26 394.17 254.07 394.18 251.87 394.18 249.27 394.20 246.68 394.21 244.30 394.32 241.93 394.42 239.76 394.53 237.59 394.63 235.57 395.93 233.55 397.23 232.29 395.54 231.03 393.85 231.02 393.84 Z"></path><path fill="#ff595e" d="M 247.74 481.49 Q 247.74 481.49 249.74 483.75 251.73 486.01 252.36 489.32 252.99 492.63 253.92 495.20 254.85 497.78 256.30 499.34 257.76 500.90 260.25 500.96 262.74 501.01 266.00 501.03 269.27 501.05 271.51 499.57 273.75 498.08 274.76 496.19 275.78 494.31 277.04 491.70 278.30 489.09 279.26 486.86 280.23 484.63 281.48 481.75 282.73 478.86 283.62 476.59 284.51 474.31 285.45 471.87 286.39 469.43 286.94 467.34 287.50 465.24 288.25 462.81 288.99 460.37 289.67 457.91 290.34 455.44 290.98 453.21 291.63 450.98 292.83 447.73 294.04 444.47 295.88 441.80 297.72 439.14 300.37 436.92 303.02 434.71 306.68 432.79 310.34 430.86 314.16 429.93 317.99 429.00 321.91 428.85 325.82 428.70 328.21 429.50 330.59 430.29 332.60 431.84 334.60 433.40 336.27 435.76 337.93 438.13 339.27 441.23 340.61 444.33 341.53 448.13 342.45 451.92 343.14 455.64 343.83 459.35 344.42 462.86 345.01 466.38 345.47 469.74 345.93 473.10 346.32 476.19 346.71 479.28 347.28 483.28 347.84 487.29 348.25 490.13 348.66 492.98 349.00 495.17 349.34 497.36 349.88 500.12 350.42 502.88 351.87 504.43 353.32 505.97 355.68 506.98 358.03 507.99 360.08 507.95 362.12 507.92 364.05 504.91 365.98 501.91 367.72 498.50 369.46 495.08 371.26 490.93 373.06 486.78 374.39 483.59 375.72 480.40 376.83 477.69 377.93 474.98 378.68 472.48 379.42 469.99 379.90 467.86 380.38 465.74 380.56 463.26 380.73 460.78 380.82 457.41 380.91 454.03 381.06 450.77 381.22 447.51 381.48 444.54 381.74 441.56 381.92 439.47 382.11 437.37 382.95 434.49 383.79 431.61 386.73 429.40 389.68 427.19 392.29 426.51 394.90 425.83 397.88 425.47 400.85 425.10 404.11 424.96 407.36 424.81 410.63 424.85 413.89 424.89 417.24 425.65 420.59 426.41 423.20 427.55 425.81 428.69 428.12 430.36 430.42 432.02 432.44 434.50 434.46 436.98 435.95 441.00 437.44 445.02 438.10 447.74 438.77 450.47 439.29 455.30 439.82 460.13 440.03 464.32 440.24 468.51 440.33 471.55 440.42 474.59 440.46 477.12 440.49 479.65 440.79 483.15 441.09 486.66 441.67 489.44 442.25 492.23 443.62 494.12 444.99 496.02 447.43 495.86 449.88 495.70 451.78 494.50 453.68 493.29 455.99 491.16 458.30 489.04 460.50 485.97 462.69 482.90 464.99 477.01 467.30 471.13 468.94 465.21 470.59 459.29 471.75 454.18 472.91 449.06 473.49 446.37 474.07 443.67 474.60 440.06 475.12 436.45 475.34 433.85 475.56 431.25 475.74 429.22 475.92 427.18 476.18 424.09 476.45 420.99 477.33 418.36 478.21 415.73 479.78 414.45 481.34 413.16 483.37 412.70 485.40 412.24 487.56 412.12 489.73 412.01 492.67 412.28 495.62 412.55 499.03 413.60 502.45 414.64 505.75 416.19 509.05 417.74 512.30 419.99 515.56 422.23 518.91 425.40 522.26 428.57 525.11 432.56 527.95 436.55 530.27 441.09 532.59 445.64 534.56 451.98 536.53 458.33 537.71 463.72 538.88 469.11 539.61 473.93 540.34 478.76 540.75 481.86 541.16 484.96 541.86 489.55 542.56 494.13 543.37 497.97 544.17 501.81 545.01 505.24 545.85 508.66 546.81 512.02 547.76 515.37 548.61 518.06 549.47 520.75 550.38 523.96 551.29 527.16 549.74 530.66 548.20 534.15 548.20 534.16 548.19 534.16 548.19 534.16 548.18 534.16 545.89 531.74 543.59 529.33 542.71 526.25 541.84 523.17 540.95 520.36 540.07 517.56 539.07 514.06 538.08 510.57 537.21 507.01 536.34 503.45 535.50 499.40 534.66 495.35 533.94 490.68 533.23 486.01 532.83 482.98 532.42 479.95 531.74 475.37 531.06 470.80 529.97 465.73 528.88 460.67 527.16 454.95 525.44 449.23 523.42 445.18 521.40 441.13 519.06 437.73 516.72 434.33 513.84 431.55 510.96 428.78 508.28 426.87 505.60 424.95 502.80 423.61 500.00 422.26 497.40 421.38 494.79 420.51 492.44 420.25 490.10 420.00 487.24 421.02 484.38 422.04 484.13 424.97 483.88 427.89 483.71 429.91 483.53 431.93 483.28 434.77 483.03 437.60 482.46 441.48 481.89 445.36 481.30 448.09 480.71 450.83 479.50 456.14 478.29 461.46 476.51 467.78 474.72 474.11 471.95 480.84 469.18 487.56 466.43 491.26 463.68 494.96 460.77 497.53 457.86 500.11 455.22 501.67 452.58 503.23 448.63 503.89 444.68 504.54 442.72 503.70 440.77 502.86 438.70 500.59 436.63 498.32 435.60 496.39 434.58 494.47 433.86 490.98 433.14 487.48 432.82 483.62 432.49 479.77 432.46 477.29 432.42 474.82 432.34 471.87 432.25 468.91 432.06 464.94 431.86 460.97 431.42 456.65 430.99 452.33 430.43 449.97 429.87 447.61 428.98 444.70 428.09 441.78 425.29 438.87 422.49 435.96 420.59 435.07 418.69 434.17 416.21 433.53 413.74 432.88 410.73 432.84 407.72 432.80 404.75 432.92 401.79 433.05 397.50 433.70 393.21 434.36 391.64 436.22 390.08 438.07 389.89 440.17 389.71 442.27 389.46 445.08 389.21 447.89 389.06 451.06 388.91 454.24 388.81 457.83 388.71 461.42 388.45 464.46 388.18 467.50 387.63 469.90 387.08 472.30 386.21 475.15 385.34 478.00 384.22 480.74 383.11 483.48 381.75 486.73 380.40 489.98 378.49 494.35 376.58 498.73 374.61 502.53 372.65 506.34 370.38 509.60 368.11 512.86 366.21 514.20 364.31 515.53 361.74 515.81 359.18 516.08 356.41 515.64 353.64 515.19 350.95 513.68 348.26 512.17 346.49 510.59 344.72 509.01 343.66 506.79 342.61 504.57 342.02 501.58 341.43 498.58 341.09 496.35 340.75 494.12 340.33 491.26 339.92 488.40 339.35 484.34 338.77 480.28 338.39 477.23 338.00 474.18 337.56 470.94 337.12 467.71 336.54 464.26 335.96 460.80 335.31 457.28 334.66 453.76 333.94 450.58 333.22 447.41 331.32 443.44 329.42 439.47 327.59 438.06 325.76 436.66 322.40 436.79 319.04 436.93 316.26 437.58 313.48 438.22 310.62 439.69 307.77 441.15 305.91 442.58 304.06 444.01 302.74 445.79 301.41 447.56 300.36 450.39 299.31 453.21 298.68 455.38 298.05 457.55 297.35 460.13 296.64 462.72 295.93 465.02 295.23 467.32 294.57 469.72 293.92 472.13 292.95 474.65 291.98 477.18 291.02 479.61 290.07 482.04 288.82 484.93 287.57 487.81 286.53 490.19 285.50 492.57 284.13 495.40 282.76 498.22 281.31 500.72 279.86 503.23 276.73 505.84 273.60 508.45 271.42 508.75 269.23 509.05 265.88 509.03 262.52 509.01 259.57 508.83 256.62 508.65 253.65 507.02 250.68 505.39 249.14 503.29 247.61 501.18 246.40 497.80 245.19 494.43 244.72 492.33 244.24 490.22 243.99 488.12 243.73 486.02 245.73 483.75 247.72 481.49 247.73 481.49 Z"></path><path fill="#ff595e" d="M 800.50 160.92 Q 800.50 160.92 799.12 160.92 797.73 160.92 797.73 160.92 797.73 160.91 797.73 160.91 797.73 160.90 799.12 160.90 800.50 160.90 800.50 160.91 Z"></path>
</svg>