<svg width="980" height="551" xmlns="http://www.w3.org/2000/svg" xmlns:xlink="http://www.w3.org/1999/xlink">
<path fill="#8ac926" d="M 235.71 142.38 Q 235.71 142.38 237.83 142.39 239.96 142.39 242.20 142.46 244.44 142.52 245.41 142.65 246.37 142.78 246.83 142.90 247.30 143.03 247.72 143.27 248.14 143.50 248.49 143.83 248.85 144.16 249.11 144.57 249.37 144.97 249.53 145.42 249.69 145.88 249.74 146.36 249.78 146.84 249.71 147.32 249.64 147.79 249.46 148.24 249.27 148.69 248.99 149.08 248.71 149.46 248.34 149.77 247.97 150.08 247.53 150.30 247.10 150.51 246.63 150.61 246.16 150.72 245.68 150.70 245.20 150.69 243.54 149.02 241.88 147.35 244.25 147.92 246.61 148.49 244.05 148.89 241.48 149.29 239.69 146.94 237.89 144.58 237.90 144.58 237.90 144.57 237.90 144.57 237.90 144.56 239.77 143.60 241.64 142.65 244.00 142.71 246.37 142.78 246.83 142.90 247.30 143.03 247.72 143.27 248.14 143.50 248.49 143.83 248.85 144.16 249.11 144.57 249.37 144.97 249.53 145.42 249.69 145.88 249.74 146.36 249.78 146.84 249.71 147.32 249.64 147.79 249.46 148.24 249.27 148.69 248.99 149.08 248.71 149.46 248.34 149.77 247.97 150.08 247.53 150.30 247.10 150.51 246.63 150.61 246.16 150.72 245.68 150.70 245.20 150.69 244.58 150.64 243.96 150.60 241.59 150.14 239.23 149.68 236.28 148.07 233.34 146.45 234.52 144.42 235.69 142.39 235.70 142.38 Z"></path>
</svg>