<svg width="980" height="551" xmlns="http://www.w3.org/2000/svg" xmlns:xlink="http://www.w3.org/1999/xlink">
<path fill="#8ac926" d="M 367.83 427.10 Q 367.83 427.10 363.89 427.69 359.94 428.29 357.55 427.53 355.16 426.78 350.10 426.25 345.04 425.72 340.60 425.61 336.17 425.51 332.69 425.69 329.22 425.88 327.20 426.24 325.19 426.61 322.74 427.74 320.29 428.88 318.04 430.47 315.80 432.07 314.25 433.39 312.71 434.71 312.38 437.30 312.05 439.90 312.04 442.79 312.03 445.69 312.20 448.30 312.36 450.91 312.83 452.89 313.30 454.87 315.49 457.09 317.67 459.32 320.52 460.90 323.37 462.49 326.82 463.21 330.28 463.93 332.29 464.04 334.30 464.16 337.43 464.20 340.55 464.25 343.03 464.11 345.50 463.97 349.47 463.74 353.43 463.51 356.71 463.41 359.98 463.31 366.22 462.77 372.46 462.22 378.27 461.83 384.08 461.43 390.80 460.61 397.52 459.78 400.93 459.35 404.33 458.91 405.17 455.92 406.01 452.93 405.87 449.51 405.74 446.08 405.53 444.07 405.32 442.07 404.93 439.73 404.54 437.40 403.88 435.35 403.22 433.31 400.89 431.95 398.57 430.60 396.27 429.80 393.98 428.99 390.37 428.27 386.75 427.54 383.35 427.29 379.94 427.03 377.49 426.97 375.04 426.90 370.92 425.30 366.80 423.70 366.80 423.70 366.80 423.69 366.79 423.69 366.79 423.68 369.01 421.40 371.23 419.12 373.25 419.01 375.27 418.90 377.92 418.98 380.57 419.06 384.47 419.38 388.37 419.71 392.53 420.59 396.69 421.47 399.56 422.53 402.42 423.59 406.41 426.69 410.40 429.78 411.42 432.94 412.44 436.10 412.86 438.67 413.28 441.24 413.50 443.42 413.72 445.59 413.88 448.12 414.03 450.64 414.00 453.17 413.97 455.70 413.91 457.88 413.85 460.05 411.93 463.07 410.01 466.08 407.68 466.47 405.34 466.85 401.92 467.29 398.50 467.72 391.56 468.57 384.62 469.42 378.89 469.80 373.16 470.19 366.69 470.75 360.23 471.31 357.06 471.40 353.90 471.50 349.92 471.73 345.93 471.96 343.18 472.11 340.43 472.25 337.13 472.20 333.84 472.14 331.68 472.02 329.51 471.89 325.05 471.03 320.60 470.16 318.46 468.91 316.33 467.67 314.25 466.40 312.18 465.13 310.58 463.57 308.98 462.02 307.43 459.91 305.88 457.81 305.14 454.75 304.40 451.68 304.21 448.73 304.03 445.79 304.00 443.73 303.98 441.68 304.19 438.50 304.40 435.32 304.93 433.25 305.45 431.19 307.11 429.34 308.76 427.49 310.98 425.83 313.20 424.17 316.30 422.27 319.40 420.37 321.59 419.55 323.78 418.74 326.29 418.31 328.80 417.89 332.59 417.70 336.37 417.51 341.15 417.64 345.92 417.77 351.73 418.46 357.55 419.14 360.21 419.99 362.87 420.84 365.36 423.96 367.84 427.08 367.84 427.09 Z"></path><path fill="#8ac926" d="M 764.37 284.88 Q 764.37 284.88 764.37 284.89 764.36 284.89 764.36 284.89 764.35 284.90 764.36 284.89 Z"></path><path fill="#8ac926" d="M 363.40 468.27 Q 363.40 468.27 363.86 464.62 364.31 460.96 366.13 458.89 367.95 456.81 369.66 454.99 371.36 453.18 373.32 451.34 375.27 449.51 377.17 448.06 379.07 446.62 381.67 444.61 384.28 442.60 387.31 440.20 390.34 437.79 394.30 437.17 398.26 436.55 398.26 436.56 398.26 436.56 398.27 436.56 398.27 436.57 396.83 440.29 395.39 444.00 393.83 445.27 392.28 446.53 389.30 448.90 386.33 451.28 383.53 453.32 380.73 455.35 378.96 457.01 377.19 458.66 375.58 460.37 373.96 462.09 372.21 464.09 370.45 466.09 366.93 467.19 363.42 468.29 363.41 468.28 Z"></path>
</svg>