<svg xmlns="http://www.w3.org/2000/svg" xmlns:xlink="http://www.w3.org/1999/xlink" width="980" height="551"><path fill="#ff595e" d="M 255.67 277.09 Q 255.67 277.09 255.67 277.09 255.66 277.09 255.66 277.09 255.65 277.09 255.66 277.09 Z" data-drauu_index="0"/><path fill="#ff595e" d="M 129.32 346.98 Q 129.32 346.98 129.32 346.98 129.32 346.99 129.32 346.99 129.31 347.00 129.32 346.99 Z" data-drauu_index="0"/><path fill="#ff595e" d="M 626.00 221.22 Q 626.00 221.22 626.00 221.22 626.00 221.21 626.00 221.21 626.00 221.20 626.00 221.21 Z" data-drauu_index="0"/><path fill="#ff595e" d="M 626.45 221.78 Q 626.45 221.78 626.44 221.78 626.44 221.79 626.44 221.79 626.43 221.79 626.44 221.79 Z" data-drauu_index="1"/><path fill="#ff595e" d="M 626.45 221.78 Q 626.45 221.78 626.44 221.78 626.44 221.79 626.44 221.79 626.43 221.79 626.44 221.79 Z" data-drauu_index="2"/><path fill="#ff595e" d="M 541.79 234.20 Q 541.79 234.20 541.79 234.20 541.78 234.20 541.78 234.20 541.77 234.20 541.78 234.20 Z" data-drauu_index="3"/><path fill="#ff595e" d="M 669.77 408.62 Q 669.77 408.62 669.77 408.62 669.77 408.62 669.78 408.61 669.78 408.61 669.77 408.62 Z" data-drauu_index="4"/></svg>