<svg width="980" height="551" xmlns="http://www.w3.org/2000/svg" xmlns:xlink="http://www.w3.org/1999/xlink">
<ellipse fill="transparent" stroke="#ff595e" stroke-width="4" stroke-linecap="round" cx="765.67" cy="298.02" rx="134.40" ry="134.40" data-drauu_index="0"></ellipse><line fill="transparent" stroke="#1982c4" stroke-width="1" stroke-linecap="round" x1="767.36" y1="72.80" x2="767.36" y2="514.15" data-drauu_index="8"></line><line fill="transparent" stroke="#1982c4" stroke-width="1" stroke-linecap="round" x1="541.54" y1="298.33" x2="971.48" y2="298.33" data-drauu_index="11"></line><ellipse fill="transparent" stroke="#ffca3a" stroke-width="12" stroke-linecap="round" cx="865.14" cy="208.77" rx="4.77" ry="4.77" data-drauu_index="13"></ellipse><line fill="transparent" stroke="#1982c4" stroke-width="2" stroke-linecap="round" x1="767.57" y1="299.63" x2="857.02" y2="215.48" data-drauu_index="14"></line><line fill="transparent" stroke="#1982c4" stroke-width="2" stroke-linecap="round" x1="866.31" y1="219.57" x2="866.31" y2="298.17" data-drauu_index="0"></line><path fill="#1982c4" d="M 785.64 286.91 Q 785.64 286.91 785.96 286.58 786.28 286.25 786.85 286.25 787.43 286.26 788.03 286.47 788.63 286.69 789.05 287.00 789.46 287.30 789.81 287.73 790.16 288.15 790.58 288.54 791.00 288.93 791.32 289.43 791.65 289.93 791.90 290.38 792.14 290.82 792.23 291.32 792.32 291.82 792.34 292.33 792.37 292.85 792.42 293.40 792.48 293.96 792.33 295.48 792.17 296.99 792.17 296.99 792.16 296.99 792.16 296.99 792.15 296.99 791.37 295.56 790.59 294.13 790.49 293.60 790.39 293.08 790.36 292.53 790.33 291.97 790.07 291.44 789.82 290.90 789.45 290.29 789.08 289.68 788.70 289.29 788.31 288.90 787.81 288.42 787.30 287.93 786.79 287.76 786.28 287.58 785.96 287.26 785.64 286.93 785.64 286.92 Z" data-drauu_index="1"></path><path fill="#1982c4" d="M 810.60 279.11 Q 810.60 279.11 810.75 279.62 810.89 280.13 810.83 280.65 810.76 281.16 810.45 281.79 810.15 282.43 809.88 282.97 809.62 283.51 809.34 284.09 809.07 284.68 808.75 285.22 808.44 285.77 808.11 286.20 807.79 286.63 807.42 287.18 807.06 287.73 806.51 288.11 805.97 288.49 805.49 288.68 805.01 288.87 804.51 289.07 804.02 289.27 803.50 289.36 802.97 289.45 802.41 289.08 801.85 288.71 801.74 288.13 801.62 287.56 801.50 286.93 801.38 286.31 801.37 285.72 801.36 285.14 801.41 284.56 801.46 283.98 801.58 283.38 801.70 282.79 802.07 282.28 802.44 281.77 802.94 281.52 803.44 281.26 804.00 281.03 804.56 280.80 805.23 280.79 805.90 280.78 806.43 280.95 806.96 281.12 807.42 281.39 807.89 281.66 808.28 282.12 808.67 282.58 809.08 282.97 809.49 283.36 809.96 283.70 810.43 284.04 810.86 284.30 811.30 284.55 812.52 285.83 813.73 287.11 813.73 287.11 813.73 287.12 813.73 287.12 813.73 287.13 811.84 286.59 809.95 286.06 809.54 285.77 809.13 285.48 808.70 285.16 808.27 284.85 807.80 284.44 807.33 284.04 806.89 283.57 806.44 283.10 805.96 282.77 805.48 282.44 804.84 282.78 804.21 283.11 803.87 283.56 803.53 284.01 803.44 284.58 803.36 285.14 803.37 285.78 803.38 286.41 803.24 286.94 803.10 287.46 803.59 287.28 804.08 287.10 804.60 286.92 805.12 286.74 805.48 286.34 805.85 285.94 806.14 285.50 806.44 285.07 806.74 284.54 807.05 284.01 807.37 283.54 807.70 283.06 807.99 282.44 808.28 281.81 808.67 281.24 809.07 280.67 809.35 280.14 809.64 279.61 810.11 279.35 810.58 279.10 810.59 279.10 Z" data-drauu_index="2"></path><path fill="#1982c4" d="M 357.34 474.77 Q 357.34 474.77 357.34 474.78 357.33 474.78 357.33 474.78 357.33 474.79 357.33 474.78 Z" data-drauu_index="1"></path><path fill="#1982c4" d="M 316.00 397.75 Q 316.00 397.75 316.00 397.75 316.01 397.75 316.01 397.75 316.02 397.75 316.01 397.75 Z" data-drauu_index="2"></path><path fill="#1982c4" d="M 557.11 98.39 Q 557.11 98.39 557.11 98.39 557.11 98.39 557.10 98.40 557.10 98.40 557.11 98.39 Z" data-drauu_index="3"></path><path fill="#1982c4" d="M 566.58 169.26 Q 566.58 169.26 566.57 169.27 566.57 169.27 566.57 169.27 566.56 169.28 566.57 169.27 Z" data-drauu_index="4"></path><path fill="#1982c4" d="M 429.61 151.20 Q 429.61 151.20 429.61 151.20 429.60 151.21 429.60 151.21 429.60 151.21 429.60 151.21 Z" data-drauu_index="5"></path><path fill="#1982c4" d="M 429.04 150.62 Q 429.04 150.62 429.33 151.07 429.62 151.52 429.62 151.53 429.62 151.53 429.61 151.53 429.61 151.53 429.31 151.08 429.02 150.64 429.03 150.63 Z" data-drauu_index="6"></path><path fill="#1982c4" d="M 430.06 152.19 Q 430.06 152.19 431.68 153.90 433.30 155.62 433.30 155.63 433.30 155.63 433.29 155.63 433.29 155.64 431.66 153.92 430.04 152.20 430.05 152.19 Z" data-drauu_index="7"></path><path fill="#1982c4" d="M 475.19 362.81 Q 475.19 362.81 475.19 362.81 475.19 362.82 475.18 362.82 475.18 362.83 475.19 362.82 Z" data-drauu_index="8"></path><path fill="#1982c4" d="M 683.56 204.65 Q 683.56 204.65 683.56 204.65 683.56 204.66 683.55 204.66 683.55 204.66 683.56 204.66 Z" data-drauu_index="9"></path><path fill="#1982c4" d="M 798.30 237.99 Q 798.30 237.99 798.80 237.85 799.30 237.72 799.83 238.01 800.35 238.30 800.74 238.70 801.13 239.10 801.62 239.73 802.11 240.36 802.61 240.90 803.12 241.43 803.41 241.84 803.71 242.25 804.17 242.83 804.63 243.41 805.00 243.91 805.38 244.42 805.80 244.97 806.22 245.53 806.55 245.96 806.88 246.38 806.93 247.10 806.99 247.82 806.35 247.90 805.71 247.98 805.16 247.34 804.60 246.70 804.32 246.14 804.04 245.57 803.74 245.16 803.44 244.75 803.16 244.19 802.87 243.64 802.45 243.28 802.02 242.91 801.68 242.46 801.35 242.01 801.17 241.49 800.98 240.96 800.98 240.39 800.98 239.83 801.17 239.33 801.36 238.83 801.81 238.20 802.25 237.57 802.60 237.18 802.95 236.78 804.24 236.45 805.53 236.12 805.53 236.13 805.52 236.13 805.52 236.14 805.52 236.14 804.75 237.31 803.98 238.47 803.60 238.97 803.21 239.48 802.94 240.00 802.68 240.51 802.96 240.94 803.23 241.37 803.73 241.71 804.23 242.05 804.60 242.67 804.97 243.29 805.24 243.74 805.51 244.20 805.79 244.64 806.07 245.09 806.52 245.87 806.97 246.66 806.37 246.53 805.78 246.41 805.50 246.88 805.23 247.35 804.88 246.92 804.54 246.50 804.16 246.04 803.79 245.58 803.50 245.15 803.21 244.73 802.85 244.21 802.49 243.70 802.08 243.26 801.68 242.82 801.33 242.42 800.98 242.02 800.50 241.45 800.03 240.89 799.68 240.46 799.34 240.04 798.95 239.52 798.57 239.00 798.43 238.50 798.29 238.00 798.29 237.99 Z" data-drauu_index="11"></path><path fill="#1982c4" d="M 805.91 236.19 Q 805.91 236.19 805.43 237.24 804.95 238.29 804.94 238.29 804.94 238.29 804.93 238.29 804.93 238.29 805.41 237.24 805.90 236.18 805.91 236.18 Z" data-drauu_index="14"></path><path fill="#1982c4" d="M 805.67 238.87 Q 805.67 238.87 806.89 238.91 808.11 238.95 808.10 238.95 808.10 238.96 808.10 238.96 808.10 238.97 806.88 238.93 805.67 238.89 805.67 238.88 Z" data-drauu_index="15"></path><path fill="#1982c4" d="M 808.99 239.41 Q 808.99 239.41 807.47 238.85 805.95 238.30 805.96 238.29 805.96 238.29 805.96 238.28 805.96 238.28 807.48 238.83 809.00 239.39 809.00 239.40 Z" data-drauu_index="16"></path><path fill="#1982c4" d="M 806.39 237.80 Q 806.39 237.80 806.39 237.80 806.39 237.81 806.38 237.81 806.38 237.81 806.39 237.81 Z" data-drauu_index="18"></path><path fill="#1982c4" d="M 808.40 239.67 Q 808.40 239.67 808.40 239.67 808.41 239.67 808.41 239.67 808.42 239.67 808.41 239.67 Z" data-drauu_index="19"></path><path fill="#1982c4" d="M 808.18 241.09 Q 808.18 241.09 807.01 240.60 805.83 240.10 805.83 240.10 805.83 240.10 805.84 240.09 805.84 240.09 807.02 240.58 808.19 241.07 808.19 241.08 Z" data-drauu_index="20"></path>
</svg>